<svg width="620" height="539" viewBox="0 0 620 539" fill="none" xmlns="http://www.w3.org/2000/svg">
<g clip-path="url(#clip0)">
<path d="M500.616 539C566.55 539 620 527.818 620 514.024C620 500.23 566.55 489.048 500.616 489.048C434.682 489.048 381.232 500.23 381.232 514.024C381.232 527.818 434.682 539 500.616 539Z" fill="#F2F2F2"/>
<path d="M36.5102 314.238C37.2217 315.916 37.9747 317.613 38.7477 319.28L37.0911 320.067C36.3094 318.381 35.5484 316.666 34.8286 314.969L36.5102 314.238Z" fill="#E6E6E6"/>
<path d="M331.966 179.969C333.012 182.224 334.015 184.521 334.95 186.797L333.26 187.508C331.861 184.099 330.312 180.664 328.679 177.342L330.318 176.517C330.879 177.657 331.428 178.808 331.966 179.969ZM325.011 166.576L323.432 167.512C321.578 164.305 319.594 161.128 317.536 158.069L319.048 157.027C321.129 160.12 323.136 163.333 325.011 166.576ZM338.886 197.368C340.076 200.928 341.156 204.568 342.098 208.188L340.329 208.659C339.397 205.081 338.329 201.482 337.152 197.962L338.886 197.368ZM312.452 147.914L311.013 149.059C308.748 146.144 306.352 143.273 303.893 140.524L305.249 139.28C307.737 142.061 310.16 144.966 312.452 147.914ZM344.568 219.207C345.262 222.89 345.839 226.647 346.281 230.373L344.465 230.594C344.027 226.91 343.456 223.196 342.77 219.554L344.568 219.207ZM297.476 131.172L296.208 132.508C293.567 129.938 290.806 127.43 288.003 125.054L289.179 123.634C292.013 126.037 294.805 128.573 297.476 131.172ZM347.231 241.648C347.417 245.404 347.477 249.21 347.407 252.96L345.577 252.925C345.646 249.218 345.587 245.455 345.402 241.742L347.231 241.648ZM280.387 116.689L279.311 118.187C276.346 116.009 273.271 113.906 270.17 111.94L271.141 110.369C274.278 112.358 277.388 114.485 280.387 116.689ZM346.816 264.253C346.492 267.997 346.036 271.773 345.46 275.477L343.653 275.189C344.221 271.527 344.673 267.793 344.993 264.091L346.816 264.253ZM261.49 104.704L260.626 106.337C257.395 104.587 254.065 102.928 250.726 101.406L251.476 99.7161C254.854 101.256 258.223 102.933 261.49 104.704ZM343.35 286.579C342.526 290.235 341.566 293.911 340.497 297.506L338.745 296.972C339.801 293.417 340.75 289.782 341.565 286.166L343.35 286.579ZM241.148 95.4301L240.513 97.1671C237.076 95.8781 233.552 94.6917 230.037 93.6419L230.556 91.8647C234.11 92.9269 237.674 94.1264 241.148 95.4301ZM336.915 308.21C335.607 311.722 334.162 315.231 332.623 318.641L330.959 317.87C332.481 314.499 333.909 311.029 335.203 307.557L336.915 308.21ZM219.743 89.0392L219.345 90.8468C215.771 90.0428 212.119 89.3529 208.491 88.7964L208.766 86.9654C212.435 87.5274 216.128 88.2256 219.743 89.0392ZM327.64 328.749C325.873 332.047 323.971 335.323 321.988 338.487L320.442 337.495C322.403 334.366 324.284 331.127 326.032 327.865L327.64 328.749ZM197.67 85.6573L197.521 87.5028C193.864 87.1997 190.152 87.0218 186.486 86.9741L186.51 85.1222C190.218 85.1702 193.972 85.3499 197.67 85.6574V85.6573ZM315.693 347.809C313.5 350.83 311.175 353.811 308.783 356.67L307.387 355.473C309.751 352.646 312.05 349.698 314.219 346.712L315.693 347.809ZM175.337 85.3654L175.441 87.2148C171.777 87.4237 168.073 87.7644 164.433 88.2281L164.204 86.3901C167.887 85.9206 171.633 85.5757 175.337 85.3654ZM301.291 365.025C298.706 367.715 295.996 370.348 293.236 372.849L292.016 371.469C294.744 368.996 297.423 366.394 299.979 363.734L301.291 365.025ZM153.183 88.1892L153.536 90.0077C149.94 90.7241 146.324 91.5769 142.788 92.5413L142.313 90.7529C145.888 89.7774 149.546 88.9152 153.183 88.1892ZM284.667 380.09C281.743 382.392 278.701 384.622 275.627 386.716L274.605 385.179C277.645 383.108 280.653 380.904 283.543 378.627L284.667 380.09ZM131.643 94.0656L132.239 95.8169C128.78 97.0236 125.313 98.3689 121.934 99.8145L121.222 98.1084C124.638 96.6461 128.144 95.286 131.643 94.0656ZM266.159 392.698C262.955 394.571 259.641 396.359 256.31 398.014L255.504 396.35C258.799 394.715 262.075 392.946 265.243 391.094L266.159 392.698ZM111.918 104.511C108.642 106.183 105.385 107.989 102.238 109.877L101.305 108.284C104.488 106.374 107.781 104.548 111.093 102.857L111.918 104.511ZM92.9418 115.898C89.9212 118.008 86.9387 120.246 84.0772 122.553L82.9375 121.104C85.8313 118.771 88.8476 116.506 91.9031 114.373L92.9418 115.898ZM75.6875 129.81C72.9886 132.313 70.3415 134.943 67.8205 137.627L66.4944 136.35C69.0445 133.636 71.7216 130.976 74.4515 128.445L75.6875 129.81ZM60.5029 145.976C58.1663 148.835 55.9004 151.81 53.7676 154.818L52.2807 153.738C54.4379 150.695 56.7298 147.687 59.0928 144.796L60.5029 145.976ZM47.6453 164.109C45.7154 167.267 43.8714 170.529 42.1638 173.802L40.5461 172.938C42.2722 169.627 44.1372 166.328 46.0887 163.133L47.6453 164.109ZM37.3483 183.855C35.8624 187.245 34.473 190.731 33.2182 194.217L31.499 193.582C32.7679 190.057 34.1731 186.532 35.675 183.103L37.3483 183.855ZM29.7957 204.84C28.778 208.409 27.8691 212.056 27.0951 215.678L25.3067 215.287C26.0893 211.623 27.0081 207.935 28.0376 204.327L29.7957 204.84ZM25.1299 226.676C24.602 230.355 24.1929 234.093 23.9147 237.788L22.0898 237.648C22.3714 233.91 22.7847 230.13 23.3193 226.41L25.1299 226.676ZM23.456 248.961C23.4292 252.676 23.5308 256.436 23.7573 260.14L21.9309 260.254C21.7018 256.509 21.5993 252.705 21.6255 248.947L23.456 248.961ZM24.8205 271.272C25.2991 274.95 25.9108 278.657 26.6387 282.292L24.8453 282.66C24.1088 278.983 23.4901 275.234 23.0061 271.515L24.8205 271.272ZM29.2038 293.159C30.177 296.731 31.2858 300.318 32.5002 303.821L30.7727 304.434C29.5449 300.891 28.4235 297.263 27.4393 293.651L29.2038 293.159Z" fill="#E6E6E6"/>
<path d="M245.187 401.035L245.878 402.75C244.167 403.456 242.436 404.136 240.732 404.772L240.099 403.034C241.783 402.405 243.495 401.733 245.187 401.035Z" fill="#E6E6E6"/>
<path d="M331.208 323.498C331.025 323.196 326.718 315.916 325.225 300.8C323.856 286.932 324.736 263.557 336.712 230.949C359.4 169.177 331.484 119.336 331.198 118.839L332.576 118.031C332.648 118.156 339.851 130.864 344.107 151.099C349.729 177.926 347.682 205.82 338.204 231.511C315.556 293.178 332.394 322.37 332.566 322.658L331.208 323.498Z" fill="#3F3D56"/>
<path d="M322.336 115.212C328.051 115.212 332.683 110.523 332.683 104.738C332.683 98.9539 328.051 94.2646 322.336 94.2646C316.622 94.2646 311.99 98.9539 311.99 104.738C311.99 110.523 316.622 115.212 322.336 115.212Z" fill="#42E695"/>
<path d="M354.968 153.885C360.682 153.885 365.315 149.196 365.315 143.411C365.315 137.627 360.682 132.937 354.968 132.937C349.254 132.937 344.621 137.627 344.621 143.411C344.621 149.196 349.254 153.885 354.968 153.885Z" fill="#3F3D56"/>
<path d="M332.683 179.667C338.397 179.667 343.03 174.977 343.03 169.193C343.03 163.408 338.397 158.719 332.683 158.719C326.969 158.719 322.336 163.408 322.336 169.193C322.336 174.977 326.969 179.667 332.683 179.667Z" fill="#42E695"/>
<path d="M359.743 201.42C365.458 201.42 370.09 196.731 370.09 190.946C370.09 185.162 365.458 180.472 359.743 180.472C354.029 180.472 349.397 185.162 349.397 190.946C349.397 196.731 354.029 201.42 359.743 201.42Z" fill="#42E695"/>
<path d="M324.724 235.259C330.438 235.259 335.071 230.569 335.071 224.785C335.071 219 330.438 214.311 324.724 214.311C319.01 214.311 314.377 219 314.377 224.785C314.377 230.569 319.01 235.259 324.724 235.259Z" fill="#3F3D56"/>
<path d="M337.458 323.883C337.458 323.883 327.112 298.102 358.151 278.765L337.458 323.883Z" fill="#3F3D56"/>
<path d="M324.734 323.416C324.734 323.416 320.025 295.999 283.579 296.234L324.734 323.416Z" fill="#3F3D56"/>
<path d="M256.429 131.207C256.057 131.117 255.665 131.167 255.326 131.347C254.987 131.527 254.725 131.826 254.587 132.188C254.45 132.549 254.447 132.949 254.578 133.313C254.71 133.676 254.968 133.979 255.304 134.165C260.704 137.217 265.455 141.32 269.282 146.238C287.126 169.166 280.895 204.258 255.366 224.618C244.029 233.819 229.895 238.762 215.365 238.608C232.507 243.498 252.741 239.65 269.046 226.647C294.576 206.287 300.806 171.195 282.962 148.266C276.26 139.727 266.914 133.718 256.429 131.207Z" fill="#3F3D56"/>
<path d="M269.282 146.585C287.126 169.513 280.895 204.605 255.366 224.965C246.011 232.51 234.75 237.241 222.868 238.617C237.059 238.532 250.806 233.599 261.883 224.618C287.413 204.258 293.643 169.166 275.799 146.238C270.737 139.751 264.102 134.702 256.539 131.585L256.421 131.555C256.049 131.467 255.659 131.519 255.321 131.7C254.984 131.882 254.723 132.181 254.587 132.542C254.451 132.903 254.449 133.302 254.581 133.664C254.713 134.027 254.971 134.329 255.306 134.514C260.706 137.565 265.455 141.668 269.282 146.585Z" fill="#42E695"/>
<path d="M190.143 111.184L200.676 129.652L211.209 148.119H190.143H169.078L179.611 129.652L190.143 111.184Z" fill="#42E695"/>
<path d="M228.561 111.184L239.095 129.652L249.628 148.119H228.561H207.495L218.028 129.652L228.561 111.184Z" fill="#42E695"/>
<path d="M188.926 120.817L195.424 132.211L201.923 143.605H188.926H175.928L182.426 132.211L188.926 120.817Z" fill="#3F3D56"/>
<path d="M228.408 120.817L234.906 132.211L241.404 143.605H228.408H215.411L221.909 132.211L228.408 120.817Z" fill="#3F3D56"/>
<path d="M283.444 242.568C283.445 259.638 277.693 276.199 267.139 289.513C256.585 302.827 241.861 312.099 225.397 315.796C208.934 319.493 191.718 317.395 176.592 309.848C161.466 302.301 149.336 289.756 142.205 274.287C135.075 258.817 133.37 241.348 137.373 224.766C141.376 208.183 150.847 193.478 164.222 183.081C177.597 172.684 194.075 167.217 210.935 167.582C227.794 167.947 244.026 174.123 256.95 185.09C265.245 192.129 271.917 200.924 276.494 210.854C281.072 220.784 283.444 231.609 283.444 242.568Z" fill="#3F3D56"/>
<path opacity="0.1" d="M256.95 185.09C250.751 201.476 231.786 213.4 209.353 213.4C186.919 213.4 167.954 201.476 161.755 185.09C175.095 173.769 191.946 167.565 209.353 167.565C226.759 167.565 243.61 173.769 256.95 185.09Z" fill="black"/>
<path d="M209.353 207.497C236.822 207.497 259.09 189.619 259.09 167.565C259.09 145.511 236.822 127.633 209.353 127.633C181.883 127.633 159.615 145.511 159.615 167.565C159.615 189.619 181.883 207.497 209.353 207.497Z" fill="#3F3D56"/>
<path d="M186.027 171.384C191.142 171.384 195.289 167.187 195.289 162.009C195.289 156.831 191.142 152.634 186.027 152.634C180.912 152.634 176.766 156.831 176.766 162.009C176.766 167.187 180.912 171.384 186.027 171.384Z" fill="white"/>
<path d="M232.678 171.384C237.793 171.384 241.939 167.187 241.939 162.009C241.939 156.831 237.793 152.634 232.678 152.634C227.563 152.634 223.416 156.831 223.416 162.009C223.416 167.187 227.563 171.384 232.678 171.384Z" fill="white"/>
<path d="M186.027 167.912C189.248 167.912 191.859 165.269 191.859 162.009C191.859 158.749 189.248 156.106 186.027 156.106C182.807 156.106 180.196 158.749 180.196 162.009C180.196 165.269 182.807 167.912 186.027 167.912Z" fill="#3F3D56"/>
<path d="M232.678 167.912C235.898 167.912 238.509 165.269 238.509 162.009C238.509 158.749 235.898 156.106 232.678 156.106C229.457 156.106 226.846 158.749 226.846 162.009C226.846 165.269 229.457 167.912 232.678 167.912Z" fill="#3F3D56"/>
<path d="M198.951 176.937C199.898 176.937 200.666 176.16 200.666 175.201C200.666 174.242 199.898 173.465 198.951 173.465C198.004 173.465 197.236 174.242 197.236 175.201C197.236 176.16 198.004 176.937 198.951 176.937Z" fill="#42E695"/>
<path d="M198.292 174.76C194.927 176.307 192.7 179.454 189.165 180.808C185.563 182.181 181.604 182.255 177.955 181.018C177.325 180.807 177.055 181.813 177.681 182.023C181.336 183.255 185.289 183.245 188.937 181.995C190.663 181.4 192.283 180.529 193.736 179.414C195.421 178.119 196.857 176.558 198.811 175.66C199.413 175.383 198.891 174.485 198.292 174.76Z" fill="#42E695"/>
<path d="M199.632 174.318C197.913 174.719 196.255 175.353 194.703 176.204C192.917 177.077 190.993 177.625 189.02 177.823C185.275 178.152 181.53 177.192 178.39 175.099C177.834 174.732 177.318 175.633 177.871 175.999C181.014 178.087 184.734 179.105 188.489 178.903C190.311 178.807 192.105 178.414 193.803 177.737C195.848 176.91 197.706 175.706 199.906 175.322C200.557 175.209 200.281 174.205 199.632 174.318V174.318Z" fill="#42E695"/>
<path d="M198.713 173.643C196.094 176.145 195.005 179.759 192.227 182.181C189.237 184.786 185.431 186.233 181.486 186.267C181.353 186.271 181.226 186.328 181.133 186.425C181.041 186.523 180.989 186.652 180.989 186.788C180.989 186.923 181.041 187.053 181.133 187.15C181.226 187.247 181.353 187.304 181.486 187.308C185.305 187.28 189.012 186 192.052 183.66C193.425 182.605 194.632 181.345 195.631 179.923C196.926 178.067 197.784 175.962 199.441 174.379C199.923 173.918 199.195 173.182 198.713 173.643H198.713Z" fill="#42E695"/>
<path d="M217.01 176.937C217.957 176.937 218.725 176.16 218.725 175.201C218.725 174.242 217.957 173.465 217.01 173.465C216.063 173.465 215.295 174.242 215.295 175.201C215.295 176.16 216.063 176.937 217.01 176.937Z" fill="#42E695"/>
<path d="M217.15 175.66C219.083 176.548 220.512 178.084 222.173 179.373C223.64 180.506 225.278 181.392 227.023 181.995C230.672 183.248 234.625 183.258 238.28 182.023C238.905 181.813 238.637 180.807 238.006 181.018C234.357 182.256 230.397 182.181 226.796 180.808C223.261 179.453 221.034 176.307 217.669 174.76C217.071 174.485 216.547 175.383 217.15 175.66Z" fill="#42E695"/>
<path d="M216.055 175.322C218.169 175.691 219.956 176.819 221.911 177.636C223.681 178.372 225.561 178.8 227.472 178.903C231.227 179.105 234.947 178.087 238.09 175.999C238.642 175.633 238.127 174.731 237.571 175.099C234.433 177.196 230.687 178.156 226.941 177.823C224.969 177.62 223.046 177.072 221.258 176.204C219.706 175.354 218.048 174.72 216.329 174.318C215.681 174.205 215.403 175.208 216.055 175.322V175.322Z" fill="#42E695"/>
<path d="M216.52 174.379C218.175 175.96 219.034 178.07 220.33 179.923C221.329 181.344 222.536 182.605 223.909 183.66C226.949 186 230.656 187.28 234.475 187.308C234.608 187.304 234.735 187.247 234.828 187.15C234.92 187.053 234.972 186.923 234.972 186.788C234.972 186.652 234.92 186.522 234.828 186.425C234.735 186.328 234.608 186.271 234.475 186.267C230.529 186.238 226.722 184.789 223.734 182.181C220.967 179.75 219.866 176.144 217.248 173.642C216.766 173.182 216.037 173.918 216.52 174.379V174.379Z" fill="#42E695"/>
<path d="M186.027 322.779C193.605 322.779 199.748 319.203 199.748 314.793C199.748 310.382 193.605 306.806 186.027 306.806C178.45 306.806 172.307 310.382 172.307 314.793C172.307 319.203 178.45 322.779 186.027 322.779Z" fill="#3F3D56"/>
<path d="M232.678 322.779C240.255 322.779 246.398 319.203 246.398 314.793C246.398 310.382 240.255 306.806 232.678 306.806C225.1 306.806 218.957 310.382 218.957 314.793C218.957 319.203 225.1 322.779 232.678 322.779Z" fill="#3F3D56"/>
<path d="M207.98 181.454C214.232 181.454 219.3 178.5 219.3 174.857C219.3 171.213 214.232 168.259 207.98 168.259C201.729 168.259 196.661 171.213 196.661 174.857C196.661 178.5 201.729 181.454 207.98 181.454Z" fill="#42E695"/>
<g filter="url(#filter0_d)">
<path d="M0 0V447.958H592.94V0H0ZM76.4057 5.63976C78.2946 5.63976 80.1411 6.20679 81.7117 7.26914C83.2823 8.33149 84.5065 9.84146 85.2294 11.6081C85.9522 13.3747 86.1414 15.3186 85.7728 17.1941C85.4043 19.0695 84.4947 20.7922 83.159 22.1443C81.8233 23.4965 80.1216 24.4173 78.2689 24.7903C76.4163 25.1634 74.4959 24.9719 72.7508 24.2401C71.0056 23.5084 69.514 22.2692 68.4645 20.6793C67.4151 19.0893 66.8549 17.2201 66.8549 15.3079C66.8549 12.7438 67.8612 10.2846 69.6523 8.4715C71.4434 6.65837 73.8726 5.63976 76.4057 5.63976ZM19.1014 24.9761C17.2125 24.9761 15.3659 24.4091 13.7953 23.3467C12.2247 22.2843 11.0006 20.7744 10.2777 19.0078C9.55485 17.2411 9.3657 15.2972 9.73422 13.4218C10.1027 11.5463 11.0124 9.82362 12.348 8.4715C13.6837 7.11938 15.3855 6.19858 17.2382 5.82553C19.0908 5.45248 21.0111 5.64394 22.7563 6.3757C24.5015 7.10746 25.9931 8.34666 27.0425 9.93658C28.092 11.5265 28.6521 13.3957 28.6521 15.3079C28.6521 17.8721 27.6459 20.3312 25.8548 22.1443C24.0637 23.9575 21.6344 24.9761 19.1014 24.9761ZM38.2028 15.3079C38.2028 13.3957 38.763 11.5265 39.8124 9.93658C40.8619 8.34666 42.3535 7.10746 44.0986 6.3757C45.8438 5.64394 47.7641 5.45248 49.6168 5.82553C51.4695 6.19858 53.1712 7.11938 54.5069 8.4715C55.8426 9.82362 56.7522 11.5463 57.1207 13.4218C57.4892 15.2972 57.3001 17.2411 56.5772 19.0078C55.8544 20.7744 54.6302 22.2843 53.0596 23.3467C51.489 24.4091 49.6425 24.9761 47.7535 24.9761C45.2205 24.9761 42.7913 23.9575 41.0002 22.1443C39.2091 20.3312 38.2028 17.8721 38.2028 15.3079ZM366.906 322.272H47.7535V82.1794H366.906V322.272Z" fill="#3EC9A9"/>
</g>
<path d="M580.205 8.05679H561.104V10.4738H580.205V8.05679Z" fill="white"/>
<path d="M580.205 15.3079H561.104V17.725H580.205V15.3079Z" fill="white"/>
<path d="M580.205 22.5591H561.104V24.9761H580.205V22.5591Z" fill="white"/>
<path d="M561.104 78.151H417.047V85.4021H561.104V78.151Z" fill="white"/>
<path d="M561.104 103.127H417.047V110.378H561.104V103.127Z" fill="white"/>
<path d="M561.104 128.103H417.047V135.354H561.104V128.103Z" fill="white"/>
<path d="M561.104 153.079H417.047V160.33H561.104V153.079Z" fill="white"/>
<path d="M561.104 178.055H417.047V185.306H561.104V178.055Z" fill="white"/>
<path d="M561.104 203.031H417.047V210.283H561.104V203.031Z" fill="white"/>
<path d="M561.104 228.007H417.047V235.259H561.104V228.007Z" fill="white"/>
<path d="M561.104 252.984H417.047V260.235H561.104V252.984Z" fill="white"/>
<path d="M561.104 277.96H417.047V285.211H561.104V277.96Z" fill="white"/>
<path d="M561.104 302.936H417.047V310.187H561.104V302.936Z" fill="white"/>
<path d="M66.855 348.859C72.1297 348.859 76.4057 344.531 76.4057 339.191C76.4057 333.852 72.1297 329.523 66.855 329.523C61.5803 329.523 57.3043 333.852 57.3043 339.191C57.3043 344.531 61.5803 348.859 66.855 348.859Z" fill="white"/>
<path d="M99.4865 348.859C104.761 348.859 109.037 344.531 109.037 339.191C109.037 333.852 104.761 329.523 99.4865 329.523C94.2118 329.523 89.9358 333.852 89.9358 339.191C89.9358 344.531 94.2118 348.859 99.4865 348.859Z" fill="white"/>
<path d="M132.118 348.859C137.393 348.859 141.669 344.531 141.669 339.191C141.669 333.852 137.393 329.523 132.118 329.523C126.843 329.523 122.567 333.852 122.567 339.191C122.567 344.531 126.843 348.859 132.118 348.859Z" fill="white"/>
<path d="M561.104 386.726H417.047V427.816H561.104V386.726Z" fill="#42E695"/>
<path d="M488.646 354.053L490.257 411.137L507.442 478.006C507.442 478.006 503.683 489.422 506.368 492.141C509.053 494.859 521.405 499.752 521.405 499.752L511.202 357.315L488.646 354.053Z" fill="#2F2E41"/>
<path d="M525.957 491.862C525.957 491.862 532.085 505.511 523.505 506.752C514.925 507.992 475.294 511.301 477.745 504.27C480.197 497.239 510.022 490.621 510.022 490.621L525.957 491.862Z" fill="#2F2E41"/>
<path d="M548.795 303.494C548.795 303.494 542.35 338.831 538.054 344.811C533.757 350.791 540.202 394.283 540.202 394.283C540.202 394.283 549.869 456.803 545.572 466.589C541.276 476.375 542.35 473.113 542.887 478.549C543.424 483.986 544.498 488.335 542.887 493.228C541.276 498.121 541.276 497.577 540.739 500.295C540.202 503.014 540.739 517.692 540.739 517.692C540.739 517.692 517.646 525.847 513.887 513.887C513.887 513.887 519.257 506.276 517.646 500.295C515.966 494.277 515.064 488.064 514.961 481.811V470.395L490.257 376.887L484.349 343.18C484.349 343.18 485.96 308.93 491.868 305.668C497.775 302.406 548.795 303.494 548.795 303.494Z" fill="#2F2E41"/>
<path d="M539.128 514.974C539.128 514.974 547.184 532.914 535.906 534.545C524.628 536.176 472.534 540.526 475.756 531.283C478.979 522.041 518.183 513.343 518.183 513.343L539.128 514.974Z" fill="#2F2E41"/>
<path d="M528.918 146.945C540.783 146.945 550.4 137.209 550.4 125.199C550.4 113.189 540.783 103.453 528.918 103.453C517.054 103.453 507.437 113.189 507.437 125.199C507.437 137.209 517.054 146.945 528.918 146.945Z" fill="#FFB9B9"/>
<path d="M544.014 134.808L543.614 162.579L517.277 162.67C517.277 162.67 523.961 140.93 520.967 136.384C517.973 131.838 544.014 134.808 544.014 134.808Z" fill="#FFB9B9"/>
<path d="M504.757 177.91C504.757 177.91 523.554 153.446 538.054 163.775C552.554 174.105 557.925 198.569 557.925 198.569L554.702 267.069C554.702 267.069 546.647 276.855 551.48 283.379C556.313 289.902 558.999 288.271 555.239 293.164C551.48 298.057 547.184 301.863 548.795 303.494C550.406 305.125 547.184 306.212 547.184 306.212L490.257 307.843C490.257 307.843 491.868 305.668 487.034 299.144C482.201 292.621 488.108 283.922 487.034 280.66C485.96 277.398 484.886 281.204 484.349 273.593C483.812 265.982 504.757 177.91 504.757 177.91Z" fill="#3F3D56"/>
<path d="M510.127 318.172C510.127 318.172 509.053 331.763 500.998 333.938C497.977 334.754 495.711 333.199 494.059 330.937C492.517 328.77 491.652 326.184 491.577 323.513C491.501 320.843 492.219 318.211 493.637 315.958L495.627 312.736L510.127 318.172Z" fill="#FFB9B9"/>
<path d="M559.804 150.456C559.804 150.456 560.341 161.329 559.804 162.96C559.267 164.591 558.73 166.222 559.804 167.853C560.878 169.484 560.341 174.92 559.267 175.464C558.193 176.007 561.415 180.9 560.341 184.162C559.267 187.424 558.193 188.511 557.656 189.599C557.119 190.686 556.254 192.634 556.254 192.634C556.254 192.634 540.471 158.611 527.581 166.765C514.692 174.92 504.488 177.638 504.488 177.638C504.488 177.638 511.47 139.583 559.804 150.456Z" fill="#3F3D56"/>
<path d="M536.443 175.736C536.443 175.736 553.628 177.367 552.554 200.2C551.48 223.033 554.165 258.914 554.165 258.914C554.165 258.914 524.628 304.581 519.794 307.843C514.961 311.105 514.424 310.561 514.961 313.279C515.498 315.998 516.035 318.172 513.887 320.347C512.619 321.639 511.171 322.738 509.59 323.609C509.59 323.609 492.405 317.629 494.016 312.192C495.627 306.756 503.146 298.057 503.146 298.057C503.146 298.057 516.035 276.855 516.572 273.593C517.109 270.331 517.109 270.875 518.72 269.244C520.331 267.613 524.628 261.089 524.628 257.827V247.498L520.125 192.297C519.921 190.049 520.189 187.782 520.911 185.646C521.634 183.51 522.795 181.553 524.318 179.904C526.874 177.197 530.737 175.042 536.443 175.736Z" fill="#3F3D56"/>
<path d="M515.065 108.429C513.665 108.821 512.19 108.855 510.774 108.527C509.358 108.198 508.045 107.519 506.954 106.549C504.854 104.529 504.149 101.031 505.642 98.5192C506.932 96.3505 509.441 95.2899 511.828 94.5359C517.094 92.8744 522.577 92.0277 528.093 92.0245C530.722 92.0237 533.468 92.2506 535.718 93.6279C536.832 94.3094 537.775 95.2454 538.875 95.9475C540.899 97.2387 543.33 97.6677 545.552 98.5646C547.824 99.4995 549.872 100.918 551.556 102.723C553.24 104.528 554.521 106.679 555.313 109.029C555.823 110.622 556.141 112.273 556.262 113.943C556.625 118.521 555.826 123.116 553.941 127.292C550.944 133.906 545.241 139.468 544.435 146.699C541.365 144.09 540.465 139.714 538.087 136.447C536.317 134.031 533.789 132.295 530.918 131.521C530.116 131.414 529.362 131.073 528.748 130.539C528.334 129.961 528.098 129.272 528.068 128.559L526.594 117.816C526.294 115.629 525.889 113.24 524.232 111.806C523.192 111.022 521.988 110.493 520.712 110.26C517.696 109.501 514.624 108.993 511.526 108.743" fill="#2F2E41"/>
<path opacity="0.1" d="M551.553 266.68L521.405 306.285C521.405 306.285 549.166 282.794 551.553 266.68Z" fill="black"/>
<path opacity="0.1" d="M522.615 222.831L522.901 260.235L505.392 286.822L519.718 257.012L522.615 222.831Z" fill="black"/>
<path opacity="0.1" d="M319.701 513.079C317.121 514.4 314.418 515.542 311.756 516.661C301.904 520.791 291.901 524.964 281.322 526.382C261.442 529.028 240.932 521.828 221.404 526.321C205.046 530.072 191.518 541.568 175.537 546.688C168.106 549.068 160.374 550 152.574 550H151.567C150.606 550 149.65 549.964 148.69 549.928C140.781 549.633 132.839 548.488 125.086 546.987C100.605 542.306 75.6893 533.727 56.9727 517.932C111.47 508.035 223.73 492.849 319.701 513.079Z" fill="#252223"/>
<path opacity="0.3" d="M338.696 394.647V371.605H324.929V394.647H308.625V359.004H296.669V332.362H286.887V305H266.598V332.362H256.816V359.004H245.222V326.962H238.701V310.76H234.715V326.962H211.528V429.21H193.775V418.409H182.906V429.21H165.153V394.647H133.27V371.605H119.503V394.647H118.778V438.931H104.286V413.009H86.8953V438.931H72.4031V359.004H61.1717V332.362H19.8691V359.004H9V499.776H72.4031H118.778H165.153H211.528H245.222H308.625H355V394.647H338.696Z" fill="#42E695"/>
<path opacity="0.4" d="M31.1005 367.285H15.8838V375.926H31.1005V367.285Z" fill="white"/>
<path opacity="0.4" d="M49.9403 375.926H65.157V367.285H49.9403V375.926Z" fill="white"/>
<path opacity="0.4" d="M31.1005 384.206H15.8838V392.847H31.1005V384.206Z" fill="white"/>
<path opacity="0.4" d="M49.9403 392.847H65.157V384.206H49.9403V392.847Z" fill="white"/>
<path opacity="0.4" d="M31.1005 401.128H15.8838V409.769H31.1005V401.128Z" fill="white"/>
<path opacity="0.4" d="M49.9403 409.769H65.157V401.128H49.9403V409.769Z" fill="white"/>
<path opacity="0.4" d="M31.1005 418.049H15.8838V426.69H31.1005V418.049Z" fill="white"/>
<path opacity="0.4" d="M49.9403 426.69H65.157V418.049H49.9403V426.69Z" fill="white"/>
<path opacity="0.4" d="M31.1005 434.971H15.8838V443.611H31.1005V434.971Z" fill="white"/>
<path opacity="0.4" d="M49.9403 443.611H65.157V434.971H49.9403V443.611Z" fill="white"/>
<path opacity="0.4" d="M31.1005 451.892H15.8838V460.533H31.1005V451.892Z" fill="white"/>
<path opacity="0.4" d="M49.9403 460.533H65.157V451.892H49.9403V460.533Z" fill="white"/>
<path opacity="0.4" d="M31.1005 468.813H15.8838V477.454H31.1005V468.813Z" fill="white"/>
<path opacity="0.4" d="M49.9403 477.454H65.157V468.813H49.9403V477.454Z" fill="white"/>
<path opacity="0.4" d="M113.343 447.572H77.8376V451.892H113.343V447.572Z" fill="white"/>
<path opacity="0.4" d="M113.343 454.052H77.8376V458.373H113.343V454.052Z" fill="white"/>
<path opacity="0.4" d="M113.343 460.533H77.8376V464.853H113.343V460.533Z" fill="white"/>
<path opacity="0.4" d="M206.093 449.732H170.587V454.052H206.093V449.732Z" fill="white"/>
<path opacity="0.4" d="M206.093 456.212H170.587V460.533H206.093V456.212Z" fill="white"/>
<path opacity="0.4" d="M206.093 462.693H170.587V467.013H206.093V462.693Z" fill="white"/>
<path opacity="0.4" d="M113.343 467.013H77.8376V471.334H113.343V467.013Z" fill="white"/>
<path opacity="0.4" d="M113.343 473.494H77.8376V477.814H113.343V473.494Z" fill="white"/>
<path opacity="0.4" d="M113.343 479.974H77.8376V484.295H113.343V479.974Z" fill="white"/>
<path opacity="0.4" d="M136.169 402.928H126.386V415.529H136.169V402.928Z" fill="white"/>
<path opacity="0.4" d="M147.762 415.529H157.544V402.928H147.762V415.529Z" fill="white"/>
<path opacity="0.4" d="M136.169 423.09H126.386V435.691H136.169V423.09Z" fill="white"/>
<path opacity="0.4" d="M147.762 435.691H157.544V423.09H147.762V435.691Z" fill="white"/>
<path opacity="0.4" d="M136.169 443.251H126.386V455.852H136.169V443.251Z" fill="white"/>
<path opacity="0.4" d="M147.762 455.852H157.544V443.251H147.762V455.852Z" fill="white"/>
<path opacity="0.4" d="M136.169 463.413H126.386V476.014H136.169V463.413Z" fill="white"/>
<path opacity="0.4" d="M147.762 476.014H157.544V463.413H147.762V476.014Z" fill="white"/>
<path opacity="0.4" d="M224.571 335.242H211.528V351.804H224.571V335.242Z" fill="white"/>
<path opacity="0.4" d="M224.571 359.004H211.528V375.566H224.571V359.004Z" fill="white"/>
<path opacity="0.4" d="M224.571 382.766H211.528V399.328H224.571V382.766Z" fill="white"/>
<path opacity="0.4" d="M224.571 406.528H211.528V423.09H224.571V406.528Z" fill="white"/>
<path opacity="0.4" d="M224.571 430.29H211.528V446.852H224.571V430.29Z" fill="white"/>
<path opacity="0.4" d="M224.571 454.052H211.528V470.614H224.571V454.052Z" fill="white"/>
<path opacity="0.4" d="M301.198 369.085H252.649V383.126H301.198V369.085Z" fill="white"/>
<path opacity="0.4" d="M301.379 399.328H252.83V413.369H301.379V399.328Z" fill="white"/>
<path opacity="0.4" d="M301.56 429.57H253.011V443.611H301.56V429.57Z" fill="white"/>
<path opacity="0.4" d="M301.741 459.813H253.193V473.854H301.741V459.813Z" fill="white"/>
<path opacity="0.4" d="M26.3906 339.923H19.8691V353.604H26.3906V339.923Z" fill="white"/>
<path opacity="0.4" d="M355 402.928H338.696V423.81H355V402.928Z" fill="white"/>
<path opacity="0.4" d="M355 433.17H338.696V454.052H355V433.17Z" fill="white"/>
<path opacity="0.4" d="M355 463.413H338.696V484.295H355V463.413Z" fill="white"/>
<path d="M26.9956 477.652C26.9956 477.652 -1.52859 494.753 51.0525 521.082C51.0525 521.082 62.6463 499.711 49.828 482.286C47.3418 478.888 43.6878 476.515 39.5584 475.616C35.429 474.717 31.1111 475.354 27.4231 477.407L26.9956 477.652Z" fill="#42E695"/>
<path d="M27.3253 477.292C27.3253 477.292 51.7337 495.852 51.0526 521.082" stroke="#535461" stroke-miterlimit="10"/>
<path d="M52.3786 522.055C52.3786 522.055 43.4406 491.898 54.0561 469.703C58.5088 460.389 59.987 449.93 57.9291 439.82C56.9463 435.02 55.5212 430.32 53.6721 425.779" stroke="#535461" stroke-width="2" stroke-miterlimit="10"/>
<path d="M60.266 411.77C60.266 415.464 53.5344 426.172 53.5344 426.172C53.5344 426.172 46.7992 415.453 46.7992 411.77C46.7784 410.879 46.9371 409.992 47.2662 409.162C47.5952 408.332 48.0878 407.576 48.7152 406.938C49.3425 406.3 50.0918 405.793 50.9191 405.447C51.7464 405.1 52.635 404.922 53.5326 404.922C54.4302 404.922 55.3188 405.1 56.1461 405.447C56.9734 405.793 57.7227 406.3 58.35 406.938C58.9773 407.576 59.47 408.332 59.799 409.162C60.128 409.992 60.2868 410.879 60.266 411.77Z" fill="#42E695"/>
<path d="M71.4104 432.242C69.3888 435.345 57.8748 440.702 57.8748 440.702C57.8748 440.702 58.0813 428.069 60.1029 424.969C61.0848 423.505 62.6075 422.484 64.3414 422.127C66.0752 421.77 67.8807 422.106 69.3672 423.062C70.8537 424.018 71.9015 425.517 72.2839 427.235C72.6663 428.953 72.3525 430.752 71.4104 432.242Z" fill="#42E695"/>
<path d="M70.9214 467.226C67.6026 468.889 54.9401 467.737 54.9401 467.737C54.9401 467.737 61.5377 456.936 64.86 455.273C66.452 454.5 68.2861 454.382 69.965 454.944C71.6439 455.506 73.0324 456.703 73.8296 458.275C74.6268 459.847 74.7686 461.668 74.2243 463.344C73.6799 465.019 72.4933 466.414 70.9214 467.226Z" fill="#42E695"/>
<path d="M64.5556 493.612C61.5666 495.808 48.8932 496.802 48.8932 496.802C48.8932 496.802 53.5561 485.047 56.5487 482.851C57.9869 481.837 59.768 481.424 61.5093 481.7C63.2507 481.977 64.8134 482.921 65.8618 484.33C66.9102 485.739 67.3607 487.501 67.1164 489.236C66.8722 490.972 65.9528 492.543 64.5556 493.612Z" fill="#42E695"/>
<path d="M43.734 441.419C46.4006 443.993 58.8312 446.661 58.8312 446.661C58.8312 446.661 55.7879 434.395 53.1177 431.82C52.4835 431.208 51.7341 430.726 50.9124 430.401C50.0907 430.077 49.2127 429.916 48.3285 429.929C47.4444 429.942 46.5714 430.128 45.7595 430.475C44.9475 430.823 44.2125 431.327 43.5964 431.957C42.9802 432.587 42.495 433.332 42.1685 434.149C41.842 434.965 41.6805 435.838 41.6933 436.716C41.7061 437.595 41.8929 438.462 42.243 439.269C42.5932 440.076 43.0998 440.806 43.734 441.419Z" fill="#42E695"/>
<path d="M36.6836 472.37C40.0023 474.037 52.6649 472.885 52.6649 472.885C52.6649 472.885 46.0673 462.084 42.7486 460.421C41.957 460.004 41.0897 459.749 40.1975 459.67C39.3053 459.59 38.4061 459.688 37.5526 459.958C36.699 460.228 35.9083 460.665 35.2266 461.243C34.545 461.82 33.9861 462.527 33.5827 463.322C33.1793 464.116 32.9395 464.983 32.8773 465.871C32.8152 466.759 32.9319 467.651 33.2206 468.493C33.5094 469.336 33.9644 470.113 34.559 470.779C35.1537 471.444 35.876 471.985 36.6836 472.37Z" fill="#42E695"/>
<path d="M33.9845 503.391C36.9735 505.587 49.6505 506.58 49.6505 506.58C49.6505 506.58 44.984 494.826 41.9914 492.629C40.5532 491.615 38.7721 491.202 37.0308 491.479C35.2895 491.756 33.7268 492.7 32.6783 494.109C31.6299 495.518 31.1795 497.279 31.4237 499.015C31.6679 500.75 32.5873 502.321 33.9845 503.391Z" fill="#42E695"/>
<path opacity="0.25" d="M60.266 411.77C60.266 415.464 53.5344 426.172 53.5344 426.172C53.5344 426.172 46.7992 415.453 46.7992 411.77C46.7784 410.879 46.9371 409.992 47.2662 409.162C47.5952 408.332 48.0878 407.576 48.7152 406.938C49.3425 406.3 50.0918 405.793 50.9191 405.447C51.7464 405.1 52.635 404.922 53.5326 404.922C54.4302 404.922 55.3188 405.1 56.1461 405.447C56.9734 405.793 57.7227 406.3 58.35 406.938C58.9773 407.576 59.47 408.332 59.799 409.162C60.128 409.992 60.2868 410.879 60.266 411.77Z" fill="black"/>
<path opacity="0.25" d="M71.4104 432.242C69.3888 435.345 57.8748 440.702 57.8748 440.702C57.8748 440.702 58.0813 428.069 60.1029 424.969C61.0848 423.505 62.6075 422.484 64.3414 422.127C66.0752 421.77 67.8807 422.106 69.3672 423.062C70.8537 424.018 71.9015 425.517 72.2839 427.235C72.6663 428.953 72.3525 430.752 71.4104 432.242Z" fill="black"/>
<path opacity="0.25" d="M70.9214 467.226C67.6026 468.889 54.9401 467.737 54.9401 467.737C54.9401 467.737 61.5377 456.936 64.86 455.273C66.452 454.5 68.2861 454.382 69.965 454.944C71.6439 455.506 73.0324 456.703 73.8296 458.275C74.6268 459.847 74.7686 461.668 74.2243 463.344C73.6799 465.019 72.4933 466.414 70.9214 467.226Z" fill="black"/>
<path opacity="0.25" d="M64.5556 493.612C61.5666 495.808 48.8932 496.802 48.8932 496.802C48.8932 496.802 53.5561 485.047 56.5487 482.851C57.9869 481.837 59.768 481.424 61.5093 481.7C63.2507 481.977 64.8134 482.921 65.8618 484.33C66.9102 485.739 67.3607 487.501 67.1164 489.236C66.8722 490.972 65.9528 492.543 64.5556 493.612Z" fill="black"/>
<path opacity="0.25" d="M43.734 441.419C46.4006 443.993 58.8312 446.661 58.8312 446.661C58.8312 446.661 55.7879 434.395 53.1177 431.82C52.4835 431.208 51.7341 430.726 50.9124 430.401C50.0907 430.077 49.2127 429.916 48.3285 429.929C47.4444 429.942 46.5714 430.128 45.7595 430.475C44.9475 430.823 44.2125 431.327 43.5964 431.957C42.9802 432.587 42.495 433.332 42.1685 434.149C41.842 434.965 41.6805 435.838 41.6933 436.716C41.7061 437.595 41.8929 438.462 42.243 439.269C42.5932 440.076 43.0998 440.806 43.734 441.419Z" fill="black"/>
<path opacity="0.25" d="M36.6836 472.37C40.0023 474.037 52.6649 472.885 52.6649 472.885C52.6649 472.885 46.0673 462.084 42.7486 460.421C41.957 460.004 41.0897 459.749 40.1975 459.67C39.3053 459.59 38.4061 459.688 37.5526 459.958C36.699 460.228 35.9083 460.665 35.2266 461.243C34.545 461.82 33.9861 462.527 33.5827 463.322C33.1793 464.116 32.9395 464.983 32.8773 465.871C32.8152 466.759 32.9319 467.651 33.2206 468.493C33.5094 469.336 33.9644 470.113 34.559 470.779C35.1537 471.444 35.876 471.985 36.6836 472.37Z" fill="black"/>
<path opacity="0.25" d="M33.9845 503.391C36.9735 505.587 49.6505 506.58 49.6505 506.58C49.6505 506.58 44.984 494.826 41.9914 492.629C40.5532 491.615 38.7721 491.202 37.0308 491.479C35.2895 491.756 33.7268 492.7 32.6783 494.109C31.6299 495.518 31.1795 497.279 31.4237 499.015C31.6679 500.75 32.5873 502.321 33.9845 503.391Z" fill="black"/>
<path d="M331.371 514.267C331.371 514.267 322.432 484.111 333.048 461.915C337.501 452.601 338.983 442.142 336.925 432.033C335.938 427.233 334.513 422.534 332.668 417.992" stroke="#535461" stroke-width="2" stroke-miterlimit="10"/>
<path d="M339.272 403.983C339.272 407.677 332.537 418.384 332.537 418.384C332.537 418.384 325.802 407.666 325.802 403.983C325.802 402.208 326.512 400.505 327.775 399.25C329.038 397.995 330.751 397.29 332.537 397.29C334.323 397.29 336.037 397.995 337.3 399.25C338.563 400.505 339.272 402.208 339.272 403.983Z" fill="#42E695"/>
<path d="M350.402 424.454C348.381 427.558 336.867 432.915 336.867 432.915C336.867 432.915 337.077 420.281 339.098 417.182C340.069 415.692 341.595 414.647 343.341 414.275C345.088 413.904 346.911 414.237 348.41 415.201C349.909 416.166 350.961 417.682 351.334 419.418C351.708 421.153 351.373 422.965 350.402 424.454Z" fill="#42E695"/>
<path d="M349.917 459.438C346.595 461.102 333.932 459.949 333.932 459.949C333.932 459.949 340.533 449.149 343.852 447.485C345.447 446.686 347.296 446.549 348.993 447.105C350.689 447.661 352.094 448.863 352.899 450.448C353.703 452.033 353.841 453.871 353.281 455.557C352.722 457.243 351.512 458.639 349.917 459.438Z" fill="#42E695"/>
<path d="M343.551 485.825C340.559 488.021 327.885 489.015 327.885 489.015C327.885 489.015 332.552 477.26 335.541 475.063C336.978 474.025 338.77 473.592 340.526 473.861C342.282 474.129 343.861 475.076 344.918 476.496C345.974 477.915 346.424 479.692 346.168 481.44C345.912 483.187 344.971 484.763 343.551 485.825Z" fill="#42E695"/>
<path d="M322.726 433.621C325.396 436.195 337.823 438.863 337.823 438.863C337.823 438.863 334.78 426.596 332.113 424.022C331.482 423.395 330.732 422.899 329.906 422.563C329.08 422.227 328.196 422.057 327.303 422.064C326.411 422.07 325.529 422.253 324.708 422.601C323.887 422.949 323.144 423.456 322.522 424.092C321.9 424.728 321.412 425.48 321.085 426.305C320.758 427.13 320.6 428.012 320.619 428.898C320.638 429.785 320.834 430.659 321.195 431.47C321.557 432.28 322.077 433.011 322.726 433.621Z" fill="#42E695"/>
<path d="M315.69 464.583C319.012 466.25 331.675 465.098 331.675 465.098C331.675 465.098 325.077 454.297 321.755 452.634C320.963 452.217 320.096 451.962 319.204 451.882C318.312 451.803 317.413 451.901 316.559 452.171C315.706 452.441 314.915 452.878 314.233 453.455C313.551 454.033 312.993 454.739 312.589 455.534C312.186 456.329 311.946 457.196 311.884 458.084C311.822 458.972 311.938 459.863 312.227 460.706C312.516 461.548 312.971 462.325 313.566 462.991C314.16 463.657 314.882 464.198 315.69 464.583Z" fill="#42E695"/>
<path d="M312.976 495.603C315.969 497.799 328.642 498.793 328.642 498.793C328.642 498.793 323.976 487.042 320.987 484.842C319.55 483.803 317.758 483.371 316.002 483.639C314.245 483.907 312.667 484.854 311.61 486.274C310.553 487.694 310.104 489.471 310.36 491.218C310.616 492.966 311.556 494.542 312.976 495.603Z" fill="#42E695"/>
<path d="M291.053 511.333C291.053 511.333 286.249 495.132 291.956 483.2C294.378 478.212 295.109 472.578 294.039 467.143C293.509 464.566 292.742 462.042 291.749 459.604" stroke="#535461" stroke-width="2" stroke-miterlimit="10"/>
<path d="M295.3 452.065C295.3 454.052 291.677 459.813 291.677 459.813C291.677 459.813 288.054 454.052 288.054 452.065C288.054 451.11 288.435 450.194 289.115 449.519C289.794 448.844 290.716 448.465 291.677 448.465C292.637 448.465 293.559 448.844 294.238 449.519C294.918 450.194 295.3 451.11 295.3 452.065Z" fill="#42E695"/>
<path d="M301.281 463.067C300.194 464.734 294.006 467.614 294.006 467.614C294.006 467.614 294.119 460.824 295.205 459.157C295.747 458.403 296.561 457.886 297.477 457.713C298.393 457.54 299.341 457.724 300.123 458.228C300.906 458.731 301.463 459.515 301.678 460.417C301.894 461.318 301.752 462.268 301.281 463.067Z" fill="#42E695"/>
<path d="M301.02 481.864C299.234 482.757 292.43 482.138 292.43 482.138C292.43 482.138 295.977 476.334 297.76 475.442C298.611 475.059 299.578 475.019 300.458 475.328C301.339 475.637 302.065 476.272 302.486 477.101C302.907 477.93 302.989 478.888 302.716 479.775C302.443 480.663 301.835 481.411 301.02 481.864Z" fill="#42E695"/>
<path d="M297.597 496.046C295.992 497.227 289.18 497.76 289.18 497.76C289.18 497.76 291.687 491.445 293.296 490.264C293.676 489.952 294.115 489.721 294.588 489.583C295.06 489.446 295.556 489.406 296.045 489.465C296.533 489.525 297.005 489.682 297.43 489.929C297.855 490.175 298.226 490.505 298.518 490.899C298.811 491.292 299.02 491.741 299.132 492.217C299.244 492.694 299.258 493.188 299.172 493.669C299.085 494.151 298.901 494.61 298.63 495.019C298.36 495.427 298.008 495.777 297.597 496.046Z" fill="#42E695"/>
<path d="M286.409 468C287.858 469.382 294.521 470.815 294.521 470.815C294.521 470.815 292.887 464.223 291.452 462.84C291.117 462.485 290.713 462.201 290.264 462.005C289.815 461.81 289.331 461.706 288.841 461.702C288.351 461.698 287.865 461.792 287.412 461.98C286.96 462.167 286.551 462.444 286.209 462.794C285.868 463.143 285.601 463.557 285.426 464.012C285.25 464.467 285.169 464.952 285.188 465.439C285.206 465.926 285.324 466.404 285.534 466.844C285.744 467.284 286.041 467.677 286.409 468Z" fill="#42E695"/>
<path d="M282.619 484.633C284.405 485.526 291.209 484.91 291.209 484.91C291.209 484.91 287.662 479.107 285.876 478.21C285.025 477.828 284.058 477.787 283.177 478.096C282.297 478.406 281.57 479.041 281.15 479.869C280.729 480.698 280.647 481.656 280.92 482.544C281.193 483.431 281.8 484.18 282.615 484.633H282.619Z" fill="#42E695"/>
<path d="M281.17 501.306C282.775 502.487 289.586 503.02 289.586 503.02C289.586 503.02 287.068 496.701 285.474 495.52C284.7 494.997 283.752 494.792 282.829 494.948C281.906 495.104 281.08 495.609 280.523 496.357C279.967 497.105 279.723 498.038 279.844 498.961C279.964 499.884 280.439 500.724 281.17 501.306Z" fill="#42E695"/>
<path opacity="0.1" d="M104.895 322.166H102.402C102.638 322.177 102.873 322.14 103.094 322.058C103.315 321.975 103.517 321.849 103.688 321.687C103.858 321.525 103.994 321.331 104.087 321.115C104.18 320.899 104.228 320.667 104.228 320.433C104.228 320.198 104.18 319.966 104.087 319.75C103.994 319.535 103.858 319.34 103.688 319.178C103.517 319.016 103.315 318.89 103.094 318.808C102.873 318.725 102.638 318.688 102.402 318.699H82.2107C81.9749 318.688 81.7394 318.725 81.5184 318.808C81.2974 318.89 81.0955 319.016 80.9248 319.178C80.7542 319.34 80.6183 319.535 80.5255 319.75C80.4327 319.966 80.3849 320.198 80.3849 320.433C80.3849 320.667 80.4327 320.899 80.5255 321.115C80.6183 321.331 80.7542 321.525 80.9248 321.687C81.0955 321.849 81.2974 321.975 81.5184 322.058C81.7394 322.14 81.9749 322.177 82.2107 322.166H84.7034C84.2402 322.166 83.796 322.349 83.4685 322.674C83.141 323 82.9571 323.441 82.9571 323.902C82.9571 324.362 83.141 324.803 83.4685 325.129C83.796 325.454 84.2402 325.637 84.7034 325.637H81.2144C80.9786 325.626 80.7431 325.663 80.5221 325.745C80.301 325.828 80.0991 325.954 79.9285 326.116C79.7578 326.278 79.622 326.472 79.5292 326.688C79.4364 326.904 79.3885 327.136 79.3885 327.37C79.3885 327.605 79.4364 327.837 79.5292 328.053C79.622 328.268 79.7578 328.463 79.9285 328.625C80.0991 328.787 80.301 328.913 80.5221 328.995C80.7431 329.078 80.9786 329.115 81.2144 329.104H101.406C101.641 329.115 101.877 329.078 102.098 328.995C102.319 328.913 102.521 328.787 102.691 328.625C102.862 328.463 102.998 328.268 103.091 328.053C103.184 327.837 103.231 327.605 103.231 327.37C103.231 327.136 103.184 326.904 103.091 326.688C102.998 326.472 102.862 326.278 102.691 326.116C102.521 325.954 102.319 325.828 102.098 325.745C101.877 325.663 101.641 325.626 101.406 325.637H104.895C105.358 325.637 105.802 325.454 106.129 325.129C106.457 324.803 106.641 324.362 106.641 323.902C106.641 323.441 106.457 323 106.129 322.674C105.802 322.349 105.358 322.166 104.895 322.166Z" fill="#252223"/>
<path opacity="0.1" d="M194.021 365.73H191.529C191.764 365.74 192 365.704 192.221 365.621C192.442 365.539 192.644 365.413 192.814 365.251C192.985 365.089 193.121 364.894 193.214 364.679C193.307 364.463 193.354 364.231 193.354 363.996C193.354 363.762 193.307 363.53 193.214 363.314C193.121 363.098 192.985 362.904 192.814 362.742C192.644 362.579 192.442 362.454 192.221 362.371C192 362.289 191.764 362.252 191.529 362.263H171.337C171.102 362.252 170.866 362.289 170.645 362.371C170.424 362.454 170.222 362.579 170.052 362.742C169.881 362.904 169.745 363.098 169.652 363.314C169.559 363.53 169.512 363.762 169.512 363.996C169.512 364.231 169.559 364.463 169.652 364.679C169.745 364.894 169.881 365.089 170.052 365.251C170.222 365.413 170.424 365.539 170.645 365.621C170.866 365.704 171.102 365.74 171.337 365.73H173.83C173.367 365.73 172.923 365.913 172.595 366.238C172.268 366.563 172.084 367.005 172.084 367.465C172.084 367.925 172.268 368.367 172.595 368.692C172.923 369.018 173.367 369.2 173.83 369.2H170.341C170.105 369.19 169.87 369.227 169.649 369.309C169.428 369.391 169.226 369.517 169.055 369.679C168.885 369.841 168.749 370.036 168.656 370.252C168.563 370.467 168.515 370.699 168.515 370.934C168.515 371.169 168.563 371.401 168.656 371.616C168.749 371.832 168.885 372.027 169.055 372.189C169.226 372.351 169.428 372.477 169.649 372.559C169.87 372.641 170.105 372.678 170.341 372.668H190.532C190.768 372.678 191.004 372.641 191.225 372.559C191.446 372.477 191.648 372.351 191.818 372.189C191.989 372.027 192.125 371.832 192.217 371.616C192.31 371.401 192.358 371.169 192.358 370.934C192.358 370.699 192.31 370.467 192.217 370.252C192.125 370.036 191.989 369.841 191.818 369.679C191.648 369.517 191.446 369.391 191.225 369.309C191.004 369.227 190.768 369.19 190.532 369.2H194.021C194.251 369.2 194.478 369.156 194.69 369.068C194.901 368.981 195.094 368.853 195.256 368.692C195.418 368.531 195.547 368.34 195.635 368.129C195.722 367.919 195.768 367.693 195.768 367.465C195.768 367.237 195.722 367.012 195.635 366.801C195.547 366.59 195.418 366.399 195.256 366.238C195.094 366.077 194.901 365.949 194.69 365.862C194.478 365.775 194.251 365.73 194.021 365.73Z" fill="#252223"/>
<path opacity="0.1" d="M345.826 308.845H343.334C343.57 308.856 343.805 308.819 344.026 308.737C344.247 308.654 344.449 308.528 344.62 308.366C344.79 308.204 344.926 308.01 345.019 307.794C345.112 307.578 345.16 307.346 345.16 307.112C345.16 306.877 345.112 306.645 345.019 306.429C344.926 306.214 344.79 306.019 344.62 305.857C344.449 305.695 344.247 305.569 344.026 305.487C343.805 305.404 343.57 305.367 343.334 305.378H323.143C322.907 305.367 322.671 305.404 322.45 305.487C322.229 305.569 322.027 305.695 321.857 305.857C321.686 306.019 321.55 306.214 321.457 306.429C321.365 306.645 321.317 306.877 321.317 307.112C321.317 307.346 321.365 307.578 321.457 307.794C321.55 308.01 321.686 308.204 321.857 308.366C322.027 308.528 322.229 308.654 322.45 308.737C322.671 308.819 322.907 308.856 323.143 308.845H325.635C325.172 308.845 324.728 309.028 324.4 309.353C324.073 309.679 323.889 310.12 323.889 310.58C323.889 311.041 324.073 311.482 324.4 311.808C324.728 312.133 325.172 312.316 325.635 312.316H322.146C321.911 312.305 321.675 312.342 321.454 312.424C321.233 312.507 321.031 312.633 320.86 312.795C320.69 312.957 320.554 313.151 320.461 313.367C320.368 313.583 320.32 313.815 320.32 314.049C320.32 314.284 320.368 314.516 320.461 314.732C320.554 314.947 320.69 315.142 320.86 315.304C321.031 315.466 321.233 315.592 321.454 315.674C321.675 315.757 321.911 315.794 322.146 315.783H342.338C342.573 315.794 342.809 315.757 343.03 315.674C343.251 315.592 343.453 315.466 343.623 315.304C343.794 315.142 343.93 314.947 344.023 314.732C344.115 314.516 344.163 314.284 344.163 314.049C344.163 313.815 344.115 313.583 344.023 313.367C343.93 313.151 343.794 312.957 343.623 312.795C343.453 312.633 343.251 312.507 343.03 312.424C342.809 312.342 342.573 312.305 342.338 312.316H345.826C346.29 312.316 346.734 312.133 347.061 311.808C347.389 311.482 347.573 311.041 347.573 310.58C347.573 310.12 347.389 309.679 347.061 309.353C346.734 309.028 346.29 308.845 345.826 308.845Z" fill="#252223"/>
<path d="M264.605 495.398C264.749 495.398 264.888 495.341 264.99 495.24C265.091 495.138 265.149 495.001 265.149 494.858C265.149 494.715 265.091 494.577 264.99 494.476C264.888 494.375 264.749 494.318 264.605 494.318C264.461 494.318 264.323 494.375 264.221 494.476C264.119 494.577 264.062 494.715 264.062 494.858C264.062 495.001 264.119 495.138 264.221 495.24C264.323 495.341 264.461 495.398 264.605 495.398Z" fill="#535461"/>
<g opacity="0.5">
<path opacity="0.5" d="M198.133 464.497L192.869 439.871H193.409L193.326 439.453H193.478L190.753 426.132C190.753 426.132 190.891 412.217 191.554 406.834C192.039 402.906 192.808 397.902 192.246 393.69C192.324 393.573 192.395 393.453 192.46 393.33C192.692 392.882 192.833 392.392 192.873 391.889C193.076 390.712 192.917 389.501 192.416 388.415L197.891 385.017C198.014 385.017 198.141 385.042 198.253 385.049C198.253 384.999 198.202 384.919 198.162 384.815C200.752 384.95 203.318 384.26 205.485 382.845C207.653 381.43 209.309 379.364 210.213 376.948C210.695 377.667 211.29 378.305 211.977 378.835C213.452 379.933 215.774 380.178 217.002 378.813C217.45 378.269 217.752 377.621 217.883 376.93C217.955 376.621 218.006 376.304 218.049 375.991C218.745 372.311 217.22 368.516 215.252 365.291C212.792 361.262 209.528 357.615 205.379 355.325C201.231 353.035 196.141 352.214 191.652 353.741C187.163 355.267 182.641 359.411 182.232 364.11C182.029 366.511 182.319 367.624 181.819 369.982C181.569 371.155 182.109 373.442 182.101 374.738C182.058 374.976 182.028 375.216 182.014 375.458C181.942 376.898 182.518 378.259 182.938 379.641C177.018 379.937 161.45 381.128 156.954 385.672C151.36 391.321 137.643 393.34 137.643 393.34L114.8 397.909L106.829 401.272L106.92 401.632L106.76 401.7C106.76 401.7 107.043 402.748 107.449 404.131C105.671 405.73 104.506 407.893 104.155 410.251C103.713 412.696 103.949 415.842 105.507 419.857C105.507 419.857 113.372 434.211 113.916 440L123.843 459.69C122.992 461.379 114.485 478.444 113.021 487.996C112.905 488.684 112.827 489.377 112.785 490.073C112.785 490.073 112.731 490.577 112.597 491.416C112.014 494.955 110.17 503.657 105.666 507.725L105.724 507.776L105.594 507.902L105.695 507.988C104.344 510.555 106.297 514.033 106.297 514.033L108.518 523.891L111.003 524.29L113.619 523.232L115.068 526.001C115.068 526.001 126.354 527.801 129.56 527.696C132.767 527.592 126.843 522.191 124.767 520.589C123.615 519.704 122.713 516.064 122.14 513C122.442 512.756 122.714 512.477 122.948 512.168C122.948 512.168 121.568 504.968 125.723 495.088C127.495 490.883 129.401 486.048 131.013 481.882C131.879 487.477 132.788 493.241 133.459 497.177C134.433 502.876 134.306 506.354 134.006 508.316C133.95 509 133.787 509.672 133.524 510.307C133.537 510.325 133.549 510.344 133.56 510.364C133.541 510.415 133.518 510.465 133.491 510.512C133.513 510.548 133.535 510.58 133.553 510.616C131.285 513.194 133.647 517.399 133.647 517.399L135.868 527.228L138.353 527.628L140.969 526.569L142.418 529.338C142.418 529.338 153.704 531.138 156.91 531.034C160.117 530.929 154.193 525.529 152.114 523.927C150.494 522.677 149.371 515.97 148.954 513.093C149.255 513.065 149.422 513.043 149.422 513.043L149.389 512.845H149.458L148.038 504.593C145.61 502.516 145.947 473.004 145.947 473.004C145.947 473.004 144.683 476.09 144.643 475.841C144.766 475.344 145.223 473.94 146.28 470.948C146.902 469.233 147.362 467.463 147.654 465.663C148.802 458.639 146.661 454.344 146.661 454.344C146.802 452.933 145.306 447.449 143.538 441.61L149.092 430.852C149.864 431.141 150.703 431.209 151.512 431.05L155.718 423.489C155.718 423.489 164.414 418.341 166.903 418.741C169.218 419.101 176.471 417.524 179.275 414.521C179.477 414.302 179.661 414.067 179.826 413.819C182.083 410.381 181.156 431.77 181.156 431.77L179.949 439.179L179.884 439.59L183.482 439.662L191.96 468.558C191.96 468.558 192.492 478.358 202.126 480.536C211.76 482.714 198.133 464.497 198.133 464.497ZM140.226 431.1C139.705 429.502 139.248 428.123 138.904 427.09L140.697 425.7C140.697 425.7 140.922 425.887 141.302 426.186L140.226 431.1Z" fill="url(#paint0_linear)"/>
</g>
<path d="M148.969 509.968C148.969 509.968 150.197 520.251 152.23 521.813C154.262 523.376 160.03 528.621 156.903 528.737C153.777 528.852 142.773 527.088 142.773 527.088L141.35 524.387L138.813 525.417L136.39 525.028L134.216 515.419C134.216 515.419 131.165 509.99 135.459 507.797C139.752 505.605 148.969 509.968 148.969 509.968Z" fill="#3A384D"/>
<path opacity="0.1" d="M138.647 425.667C138.647 425.667 147.179 450.902 146.857 454.142C146.857 454.142 149.983 460.407 146.534 470.145C143.085 479.884 146.172 472.352 146.172 472.352C146.172 472.352 145.846 501.115 148.208 503.142L149.592 511.185C149.592 511.185 136.288 512.755 134.049 508.69C134.049 508.69 135.781 505.677 134.085 495.729C132.39 485.782 129.122 463.863 129.122 463.863L120.267 413.866L138.647 425.667Z" fill="black"/>
<path d="M138.679 425.466C138.679 425.466 147.212 450.715 146.889 453.955C146.889 453.955 150.016 460.219 146.567 469.958C143.118 479.697 146.204 472.165 146.204 472.165C146.204 472.165 145.878 500.932 148.241 502.955L149.625 511.002C149.625 511.002 136.321 512.568 134.082 508.503C134.082 508.503 135.814 505.49 134.118 495.542C132.422 485.594 129.151 463.665 129.151 463.665L120.3 413.664L138.679 425.466Z" fill="#BEC7DE"/>
<path opacity="0.1" d="M122.495 414.975L131.172 463.989C131.172 463.989 134.433 485.918 136.14 495.866C137.846 505.814 136.103 508.827 136.103 508.827C136.756 510.012 138.339 510.714 140.259 511.12C137.563 510.807 135.132 510.076 134.285 508.535C134.285 508.535 136.02 505.522 134.324 495.574C132.629 485.627 129.357 463.697 129.357 463.697L120.503 413.696L122.495 414.975Z" fill="black"/>
<path d="M122.361 506.724C122.361 506.724 123.586 517.007 125.622 518.569C127.658 520.132 133.422 525.378 130.296 525.493C127.169 525.608 116.166 523.844 116.166 523.844L114.742 521.144L112.206 522.177L109.782 521.784L107.608 512.175C107.608 512.175 104.558 506.746 108.847 504.553C113.137 502.361 122.361 506.724 122.361 506.724Z" fill="#3A384D"/>
<path opacity="0.1" d="M138.647 425.667C138.647 425.667 147.179 450.902 146.857 454.142C146.857 454.142 149.983 460.407 146.534 470.145C143.085 479.884 146.172 472.352 146.172 472.352C146.172 472.352 145.846 501.115 148.208 503.142L149.592 511.185C149.592 511.185 136.288 512.755 134.049 508.69C134.049 508.69 135.781 505.677 134.085 495.729C132.39 485.782 129.122 463.863 129.122 463.863L120.267 413.866L138.647 425.667Z" fill="black"/>
<path opacity="0.1" d="M111.608 403.418C111.608 403.418 102.112 407.04 107.221 420.209C107.221 420.209 114.891 434.2 115.423 439.845L125.133 459.107C125.133 459.107 114.778 479.47 114.318 488.658C114.318 488.658 112.934 500.993 107.347 506.062C107.347 506.062 119.365 516.226 123.839 510.357C123.839 510.357 122.495 503.351 126.549 493.709C130.604 484.068 135.411 471.064 135.411 471.064C135.411 471.064 147.038 463.255 139.292 447.19L130.596 411.421L130.455 403.371L123.785 401.067L111.608 403.418Z" fill="black"/>
<path opacity="0.1" d="M111.173 403.551C111.173 403.551 101.677 407.173 106.786 420.343C106.786 420.343 114.452 434.337 114.985 439.982L124.694 459.244C124.694 459.244 114.34 479.603 113.887 488.795C113.887 488.795 112.503 501.126 106.913 506.199C106.913 506.199 118.93 516.362 123.408 510.494C123.408 510.494 122.061 503.484 126.115 493.846C130.169 484.208 134.977 471.186 134.977 471.186C134.977 471.186 146.607 463.377 138.861 447.312L130.165 411.543L130.024 403.493L123.358 401.189L111.173 403.551Z" fill="black"/>
<path d="M111.206 403.353C111.206 403.353 101.71 406.978 106.818 420.145C106.818 420.145 112.452 430.423 114.394 436.915C115.242 439.703 116.333 442.412 117.655 445.012L124.727 459.053C124.727 459.053 114.372 479.416 113.916 488.604C113.916 488.604 112.532 500.939 106.942 506.008C106.942 506.008 118.959 516.172 123.437 510.303C123.437 510.303 122.089 503.297 126.144 493.655C130.198 484.014 135.006 470.995 135.006 470.995C135.006 470.995 146.636 463.186 138.889 447.122L130.194 411.353L130.053 403.302L123.387 400.998L111.206 403.353Z" fill="#BEC7DE"/>
<path opacity="0.1" d="M111.206 403.353L123.397 400.987L124.988 401.538L113.63 403.738C113.63 403.738 104.134 407.36 109.242 420.53C109.242 420.53 114.872 430.809 116.818 437.3C117.666 440.088 118.757 442.797 120.079 445.397L127.154 459.438C127.154 459.438 116.785 479.794 116.34 488.982C116.34 488.982 114.952 501.317 109.365 506.386C109.365 506.386 114.543 510.764 119.365 512.114C114.046 512.006 106.942 505.994 106.942 505.994C112.532 500.924 113.916 488.59 113.916 488.59C114.372 479.402 124.727 459.039 124.727 459.039L117.655 444.997C116.333 442.398 115.242 439.689 114.394 436.9C112.452 430.42 106.818 420.13 106.818 420.13C101.71 406.978 111.206 403.353 111.206 403.353Z" fill="black"/>
<path d="M150.331 428.983L142.77 443.619C142.77 443.619 144.987 463.118 140.752 463.672C136.516 464.227 138.216 442.272 138.216 442.272L142.292 423.576L150.331 428.983Z" fill="#BE7C5E"/>
<path d="M191.659 438.502L197.065 463.863C197.065 463.863 210.332 481.638 200.941 479.513C191.55 477.389 191.032 467.823 191.032 467.823L181.975 436.933L191.659 438.502Z" fill="#BE7C5E"/>
<path d="M197.047 386.259L183.677 394.611L178.906 381.906C178.906 381.906 189.971 382.655 191.261 378.54C192.55 374.424 197.047 386.259 197.047 386.259Z" fill="#BE7C5E"/>
<path d="M190.181 391.54L189.326 387.9L176.149 388.667L170.841 409.841L180.728 410.193L186.264 401.614L189.282 393.247L190.181 391.54Z" fill="#BE7C5E"/>
<path opacity="0.1" d="M185.623 387.72L186.71 381.618C186.71 381.618 162.323 381.92 156.871 387.425C151.418 392.93 138.049 394.903 138.049 394.903L115.782 399.353L107.996 402.633C107.996 402.633 110.191 410.805 111.133 411.371C112.075 411.936 122.589 403.328 122.589 403.328L126.575 404.379L113.597 417.938L137.549 441.34L137.991 428.443L141.06 426.06C141.06 426.06 148.353 432.18 151.606 431.252L155.708 423.882C155.708 423.882 164.186 418.863 166.609 419.252C168.867 419.612 175.939 418.067 178.67 415.14C178.862 414.935 179.037 414.715 179.192 414.481C181.395 411.129 180.489 431.979 180.489 431.979L179.25 439.601L192.463 439.871L189.811 426.888C189.811 426.888 189.945 413.326 190.59 408.076C191.235 402.827 192.402 395.609 190.036 391.108L185.384 395.508L177.29 408.418L180.362 397.178L185.623 387.72Z" fill="black"/>
<path d="M185.692 387.317L184.536 381.056C184.536 381.056 162.403 381.517 156.95 387.022C151.498 392.527 138.111 394.496 138.111 394.496L115.843 398.95L108.09 402.233C108.09 402.233 110.286 410.406 111.228 410.967C112.17 411.529 122.687 402.928 122.687 402.928L126.673 403.979L113.695 417.538L137.647 440.94L138.089 428.04L141.168 425.653C141.168 425.653 148.462 431.774 151.715 430.848L155.816 423.478C155.816 423.478 164.247 418.46 166.685 418.859C168.943 419.219 176.015 417.671 178.747 414.744C178.938 414.539 179.113 414.319 179.268 414.085C181.471 410.733 180.565 431.586 180.565 431.586L179.326 439.208L192.539 439.478L189.887 426.496C189.887 426.496 190.021 412.93 190.666 407.684C191.311 402.438 192.478 395.213 190.112 390.716L185.46 395.097L177.355 407.997L180.428 396.757L185.692 387.317Z" fill="#7FAFF2"/>
<path opacity="0.1" d="M157.776 395.288C157.776 395.288 144.585 406.345 143.205 412.3L157.776 395.288Z" fill="black"/>
<path opacity="0.1" d="M172.178 404.818C172.178 404.818 162.033 412.451 160.222 417.304L172.178 404.818Z" fill="black"/>
<path opacity="0.1" d="M142.552 416.31C142.552 416.31 141.6 420.89 141.411 423.331L142.552 416.31Z" fill="black"/>
<path opacity="0.1" d="M137.73 426.856C137.73 426.856 122.535 413.3 120.408 413.578L137.73 426.856Z" fill="black"/>
<path opacity="0.1" d="M191.42 378.77C192.655 374.831 196.829 385.51 197.181 386.428C196.784 386.406 196.388 386.362 195.996 386.298C194.411 386.046 192.895 385.476 191.539 384.623C190.184 383.769 189.018 382.65 188.112 381.333C189.739 380.826 191.036 380.023 191.42 378.77Z" fill="black"/>
<path d="M197.728 386.219C204.279 386.219 209.589 380.942 209.589 374.432C209.589 367.922 204.279 362.644 197.728 362.644C191.177 362.644 185.866 367.922 185.866 374.432C185.866 380.942 191.177 386.219 197.728 386.219Z" fill="#BE7C5E"/>
<path opacity="0.1" d="M207.361 376.131C208.292 377.654 209.14 379.306 210.578 380.372C212.017 381.438 214.281 381.679 215.477 380.351C215.912 379.819 216.205 379.188 216.332 378.514C217.209 374.802 215.676 370.954 213.687 367.681C211.289 363.753 208.104 360.2 204.064 357.96C200.025 355.721 195.057 354.925 190.681 356.416C186.304 357.906 182.71 361.888 182.348 366.468C182.149 368.808 182.743 371.195 182.254 373.496C182 374.694 181.453 375.836 181.391 377.06C181.275 379.332 182.841 381.445 182.699 383.717C182.612 385.117 181.891 386.388 181.449 387.724C180.362 390.943 180.949 394.446 180.725 397.83C180.5 401.214 179.011 405.009 175.75 406.01C179.355 407.81 184.326 405.916 185.793 402.179C186.239 401.038 186.402 399.771 187.079 398.748C188.224 397.02 190.605 396.336 191.565 394.5C192.525 392.664 191.692 390.428 190.641 388.646C189.59 386.863 188.279 385.071 188.257 383.008C188.265 382 188.581 381.019 189.163 380.195C189.746 379.37 190.567 378.741 191.518 378.392C192.507 378.05 193.576 378.032 194.615 377.917C197.195 377.587 199.659 376.653 201.803 375.191C204.59 373.38 205.336 372.819 207.361 376.131Z" fill="black"/>
<path d="M207.437 375.616C208.368 377.143 209.216 378.792 210.655 379.861C212.093 380.93 214.357 381.168 215.553 379.839C215.987 379.307 216.281 378.676 216.408 378.003C217.285 374.291 215.752 370.443 213.763 367.17C211.365 363.238 208.18 359.688 204.14 357.449C200.101 355.21 195.133 354.418 190.757 355.905C186.38 357.391 181.975 361.435 181.587 366.014C181.388 368.354 181.674 369.438 181.185 371.735C180.931 372.934 181.522 375.335 181.46 376.552C181.344 378.824 182.909 380.937 182.768 383.209C182.681 384.61 181.96 385.881 181.518 387.213C180.431 390.435 181.018 393.938 180.794 397.322C180.569 400.707 179.08 404.498 175.819 405.499C179.424 407.299 184.395 405.405 185.862 401.668C186.308 400.53 186.471 399.263 187.148 398.24C188.293 396.512 190.674 395.828 191.634 393.992C192.594 392.156 191.76 389.917 190.713 388.134C189.666 386.352 188.348 384.563 188.326 382.496C188.334 381.49 188.651 380.509 189.233 379.686C189.815 378.862 190.636 378.234 191.587 377.884C192.576 377.542 193.644 377.524 194.684 377.409C197.263 377.078 199.727 376.144 201.872 374.684C204.673 372.866 205.419 372.308 207.437 375.616Z" fill="#723647"/>
<path d="M182.821 382.44L187.853 383.248C188.244 383.311 188.612 383.047 188.675 382.66C188.738 382.272 188.473 381.907 188.081 381.844L183.049 381.036C182.658 380.973 182.29 381.236 182.227 381.624C182.164 382.012 182.43 382.377 182.821 382.44Z" fill="#252A62"/>
<path d="M172.45 481.936C172.533 487.575 177.319 492.017 182.993 492.017H183.783C184.48 492.015 185.151 492.284 185.652 492.766C186.032 493.12 186.296 493.579 186.409 494.084C186.463 494.287 186.49 494.496 186.489 494.707V504.661C186.485 506.576 187.036 508.451 188.076 510.062C189.589 512.345 190.409 515.012 190.438 517.745C190.438 518.383 190.566 519.015 190.814 519.603C191.062 520.191 191.426 520.725 191.884 521.172C192.342 521.619 192.885 521.971 193.482 522.207C194.078 522.443 194.716 522.559 195.358 522.548C198.01 522.501 200.09 520.233 200.09 517.594V515.106L201.409 515.257V517.752C201.409 518.389 201.537 519.02 201.785 519.608C202.034 520.195 202.397 520.728 202.855 521.174C203.313 521.621 203.855 521.972 204.451 522.208C205.047 522.444 205.684 522.559 206.325 522.548C208.981 522.501 211.06 520.233 211.06 517.594V516.334C212.376 516.881 219.835 516.881 221.904 516.334L222.466 516.29V517.731C222.464 518.37 222.59 519.003 222.838 519.593C223.085 520.183 223.448 520.718 223.907 521.167C224.365 521.616 224.909 521.969 225.506 522.206C226.104 522.443 226.743 522.559 227.386 522.548C230.038 522.501 232.117 520.233 232.117 517.594V515.527L232.556 515.488V517.756C232.557 518.393 232.686 519.023 232.935 519.611C233.184 520.198 233.548 520.73 234.006 521.176C234.464 521.622 235.006 521.973 235.602 522.208C236.198 522.444 236.835 522.559 237.476 522.548C238.645 522.508 239.762 522.056 240.626 521.271C241.489 520.486 242.042 519.421 242.186 518.267C242.213 518.044 242.228 517.819 242.229 517.594V507.182C242.233 503.605 241.027 500.131 238.806 497.317C238.421 496.819 238.205 496.212 238.19 495.584C238.175 494.956 238.362 494.34 238.722 493.825C241.179 490.25 244.813 484.215 244.693 479.938C244.718 478.778 244.309 477.651 243.545 476.774C243.497 476.72 243.447 476.669 243.4 476.619C239.864 472.939 233.639 475.834 234.179 480.892C234.363 482.586 234.24 484.3 233.817 485.951C233.572 486.883 233.24 487.79 232.828 488.662C232.414 489.536 231.734 490.26 230.885 490.729C230.035 491.199 229.058 491.391 228.092 491.279C227.436 491.199 226.775 491.16 226.114 491.16H205.825C204.634 491.161 203.473 490.791 202.505 490.102C201.537 489.413 200.81 488.439 200.427 487.319C200.221 486.732 200.116 486.115 200.119 485.494V469.796C200.119 469.387 200.037 468.983 199.876 468.606C199.716 468.229 199.481 467.888 199.186 467.604C198.891 467.319 198.541 467.096 198.157 466.948C197.773 466.8 197.364 466.731 196.952 466.743C196.551 466.758 196.156 466.852 195.792 467.021C195.428 467.19 195.102 467.43 194.833 467.726C194.283 468.327 193.979 469.11 193.978 469.922C193.978 470.135 193.937 470.345 193.855 470.541C193.773 470.738 193.654 470.916 193.502 471.066C193.351 471.217 193.172 471.336 192.974 471.417C192.777 471.498 192.565 471.539 192.351 471.539H182.761C181.394 471.539 180.041 471.809 178.78 472.333C177.518 472.857 176.375 473.626 175.415 474.593C174.456 475.561 173.7 476.708 173.191 477.969C172.681 479.23 172.43 480.578 172.45 481.936Z" fill="#F3AD55"/>
<path d="M232.723 518.947C232.994 519.993 233.613 520.917 234.478 521.57C235.343 522.223 236.404 522.568 237.49 522.548C238.66 522.508 239.777 522.056 240.64 521.271C241.504 520.486 242.057 519.421 242.2 518.267C239.244 517.486 235.193 516.946 232.723 518.947Z" fill="#FBDCA3"/>
<path d="M222.614 518.947C222.887 519.993 223.506 520.917 224.372 521.57C225.237 522.223 226.299 522.568 227.386 522.548C228.552 522.504 229.664 522.049 230.523 521.265C231.382 520.481 231.932 519.418 232.074 518.267C229.154 517.486 225.114 516.946 222.614 518.947Z" fill="#FBDCA3"/>
<path d="M201.564 518.947C201.836 519.993 202.455 520.917 203.32 521.57C204.185 522.223 205.246 522.568 206.332 522.548C207.502 522.508 208.619 522.056 209.482 521.271C210.346 520.486 210.899 519.421 211.042 518.267C208.086 517.486 204.043 516.946 201.564 518.947Z" fill="#FBDCA3"/>
<path d="M190.587 518.947C190.859 519.993 191.477 520.918 192.343 521.571C193.209 522.224 194.271 522.568 195.358 522.548C196.524 522.504 197.636 522.049 198.495 521.265C199.354 520.481 199.904 519.418 200.046 518.267C197.126 517.486 193.076 516.946 190.587 518.947Z" fill="#FBDCA3"/>
<path d="M233.788 485.951C237.197 484.59 241.356 482.098 244.657 479.938C244.682 478.778 244.273 477.651 243.508 476.774C243.461 476.72 243.41 476.669 243.363 476.619C239.827 472.939 233.603 475.834 234.143 480.892C234.329 482.586 234.208 484.299 233.788 485.951Z" fill="#FBDCA3"/>
<path d="M229.661 491.189C229.661 491.189 220.274 502.933 204.916 491.16L229.661 491.189Z" fill="#FBDCA3"/>
<path d="M200.09 469.361C200.09 469.361 194.387 476.774 200.09 485.922V469.361Z" fill="#FBDCA3"/>
<path d="M186.489 494.649C186.489 494.649 191.514 500.849 186.554 505.781L186.489 494.649Z" fill="#FBDCA3"/>
<path opacity="0.1" d="M186.051 493.339C186.413 493.699 186.297 494.023 186.413 494.534L202.717 490.289C201.84 489.616 200.749 488.82 200.391 487.769C198.441 489.263 194.576 491.79 186.051 493.339Z" fill="black"/>
<path d="M185.652 492.781C186.032 493.134 186.296 493.593 186.409 494.098L202.311 489.979C201.423 489.299 200.758 488.374 200.398 487.319C198.441 488.827 194.177 491.225 185.652 492.781Z" fill="#383F4D"/>
<path opacity="0.1" d="M199.8 488.19C199.8 488.19 194.826 491.909 186.489 493.061L199.8 488.19Z" fill="black"/>
<path d="M199.8 487.755C199.8 487.755 194.826 491.474 186.489 492.626L199.8 487.755Z" fill="#F3AD55"/>
<path opacity="0.1" d="M187.366 488.107C187.366 488.107 179.033 490.725 176.837 482.44L187.366 488.107Z" fill="black"/>
<path d="M187.366 487.672C187.366 487.672 179.033 490.289 176.837 482.005L187.366 487.672Z" fill="#FBDCA3"/>
<path d="M172.45 482.44C172.934 482.44 173.326 481.757 173.326 480.914C173.326 480.071 172.934 479.387 172.45 479.387C171.965 479.387 171.573 480.071 171.573 480.914C171.573 481.757 171.965 482.44 172.45 482.44Z" fill="#383F4D"/>
<path opacity="0.1" d="M238.918 512.305L237.164 498.354C237.164 498.354 242.429 506.634 238.918 512.305Z" fill="black"/>
<path d="M236.726 498.354C236.726 498.354 241.99 506.634 238.48 512.305L236.726 498.354Z" fill="#FBDCA3"/>
</g>
<defs>
<filter id="filter0_d" x="-4" y="0" width="600.94" height="455.958" filterUnits="userSpaceOnUse" color-interpolation-filters="sRGB">
<feFlood flood-opacity="0" result="BackgroundImageFix"/>
<feColorMatrix in="SourceAlpha" type="matrix" values="0 0 0 0 0 0 0 0 0 0 0 0 0 0 0 0 0 0 127 0"/>
<feOffset dy="4"/>
<feGaussianBlur stdDeviation="2"/>
<feColorMatrix type="matrix" values="0 0 0 0 0 0 0 0 0 0 0 0 0 0 0 0 0 0 0.25 0"/>
<feBlend mode="normal" in2="BackgroundImageFix" result="effect1_dropShadow"/>
<feBlend mode="normal" in="SourceGraphic" in2="effect1_dropShadow" result="shape"/>
</filter>
<linearGradient id="paint0_linear" x1="100.857" y1="430.57" x2="210.535" y2="448.407" gradientUnits="userSpaceOnUse">
<stop stop-color="#808080" stop-opacity="0.25"/>
<stop offset="0.54" stop-color="#808080" stop-opacity="0.12"/>
<stop offset="1" stop-color="#808080" stop-opacity="0.1"/>
</linearGradient>
<clipPath id="clip0">
<path d="M0 0H620V539H0V0Z" fill="white"/>
</clipPath>
</defs>
</svg>
