<svg id="Layer_1" data-name="Layer 1" xmlns="http://www.w3.org/2000/svg" xmlns:xlink="http://www.w3.org/1999/xlink" viewBox="0 0 290.88 293.42"><defs><linearGradient id="linear-gradient" x1="93.12" y1="140.95" x2="201.51" y2="140.95" gradientUnits="userSpaceOnUse"><stop offset="0.01"/><stop offset="0.13" stop-opacity="0.69"/><stop offset="1" stop-opacity="0"/></linearGradient><linearGradient id="linear-gradient-2" x1="224.5" y1="104.18" x2="183.58" y2="152.71" gradientUnits="userSpaceOnUse"><stop offset="0.01" stop-color="#fff"/><stop offset="0.13" stop-color="#fff" stop-opacity="0.69"/><stop offset="1" stop-color="#fff" stop-opacity="0"/></linearGradient><linearGradient id="linear-gradient-3" x1="209.33" y1="194.81" x2="196.01" y2="140.89" xlink:href="#linear-gradient"/><linearGradient id="linear-gradient-4" x1="196.19" y1="117.44" x2="211.12" y2="117.44" xlink:href="#linear-gradient-2"/><linearGradient id="linear-gradient-5" x1="165.53" y1="147.77" x2="179.51" y2="147.77" xlink:href="#linear-gradient-2"/><linearGradient id="linear-gradient-6" x1="165.53" y1="138.56" x2="181.11" y2="138.56" xlink:href="#linear-gradient"/><linearGradient id="linear-gradient-7" x1="147.14" y1="178.59" x2="148.41" y2="261.06" xlink:href="#linear-gradient"/><linearGradient id="linear-gradient-8" x1="113.46" y1="279.55" x2="183.92" y2="206.47" xlink:href="#linear-gradient"/><linearGradient id="linear-gradient-9" x1="280.14" y1="165.55" x2="147.88" y2="215.98" xlink:href="#linear-gradient-2"/><linearGradient id="linear-gradient-10" x1="89.41" y1="144.59" x2="205.16" y2="144.59" xlink:href="#linear-gradient-2"/><linearGradient id="linear-gradient-11" x1="165.64" y1="132.05" x2="181.65" y2="132.05" xlink:href="#linear-gradient-2"/><linearGradient id="linear-gradient-12" x1="134.27" y1="109.82" x2="138.61" y2="109.82" xlink:href="#linear-gradient"/><linearGradient id="linear-gradient-13" x1="123.07" y1="108.65" x2="127.41" y2="108.65" xlink:href="#linear-gradient"/><linearGradient id="linear-gradient-14" x1="194.8" y1="89.82" x2="194.8" y2="121.54" xlink:href="#linear-gradient"/><linearGradient id="linear-gradient-15" x1="95.89" y1="75.78" x2="180.47" y2="88.04" xlink:href="#linear-gradient"/></defs><title>3</title><path d="M101.19,59.23C96,76.64,93.59,95.17,84.68,111c-6.93,12.31-17.42,22.29-24.74,34.38-13.44,22.19-15,50.47-7,75.15s24.9,45.87,45.3,61.91c12,9.47,25.54,17.37,40.32,21.4,37.1,10.11,75.85-5.15,114.16-8.48,17.87-1.55,36.93-.76,52.3-10,23.11-13.89,28.79-44.29,32.19-71,1.49-11.72,3-23.77.06-35.22-5.83-23-27.75-38.49-36.59-60.48-7.26-18-5.09-38.91-12.95-56.7-7.93-18-25.29-30.39-43.87-36.72C219.67,17,191,15.43,165.47,14,131.24,12.1,111.07,26,101.19,59.23Z" transform="translate(-48.08 -13.84)" fill="#68fded" opacity="0.18" style="isolation:isolate"/><polygon points="93.12 136.77 108.37 136.77 123.38 127.1 136.71 129.85 154.17 123.51 172.08 130.14 180.48 127.31 201.51 138.24 147.31 158.4 93.12 136.77" fill="#68fded"/><polygon points="93.12 136.77 108.37 136.77 123.38 127.1 136.71 129.85 154.17 123.51 172.08 130.14 180.48 127.31 201.51 138.24 147.31 158.4 93.12 136.77" fill="url(#linear-gradient)"/><path d="M161.44,129.67a46.72,46.72,0,0,1,3.75-10.19,30.07,30.07,0,0,1,3.7-6.32c4.88-6,13.14-7.84,20.81-8.65,6.53-.68,13.5-.78,19.22,2.45,7.28,4.11,10.79,12.55,13.47,20.48s5.39,16.45,11.93,21.66c-3,2.68-5.24,8.48-9.15,9.33-3,.66-7.94-3.52-11-3.68-2.66-.12-5.24-.85-7.88-1.16-5.43-.66-10.89.42-16.34.89a133.65,133.65,0,0,1-16.26.13c-4.8-.17-11.49-1-12.17-6.87S160.21,135.49,161.44,129.67Z" transform="translate(-48.08 -13.84)" fill="#68fded"/><path d="M161.44,129.67a46.72,46.72,0,0,1,3.75-10.19,30.07,30.07,0,0,1,3.7-6.32c4.88-6,13.14-7.84,20.81-8.65,6.53-.68,13.5-.78,19.22,2.45,7.28,4.11,10.79,12.55,13.47,20.48s5.39,16.45,11.93,21.66c-3,2.68-5.24,8.48-9.15,9.33-3,.66-7.94-3.52-11-3.68-2.66-.12-5.24-.85-7.88-1.16-5.43-.66-10.89.42-16.34.89a133.65,133.65,0,0,1-16.26.13c-4.8-.17-11.49-1-12.17-6.87S160.21,135.49,161.44,129.67Z" transform="translate(-48.08 -13.84)" fill="url(#linear-gradient-2)"/><path d="M161.44,129.67a46.72,46.72,0,0,1,3.75-10.19,30.07,30.07,0,0,1,3.7-6.32c4.88-6,13.14-7.84,20.81-8.65,6.53-.68,13.5-.78,19.22,2.45,7.28,4.11,10.79,12.55,13.47,20.48s5.39,16.45,11.93,21.66c-3,2.68-5.24,8.48-9.15,9.33-3,.66-7.94-3.52-11-3.68-2.66-.12-5.24-.85-7.88-1.16-5.43-.66-10.89.42-16.34.89a133.65,133.65,0,0,1-16.26.13c-4.8-.17-11.49-1-12.17-6.87S160.21,135.49,161.44,129.67Z" transform="translate(-48.08 -13.84)" fill="url(#linear-gradient-3)"/><path d="M198,118.3a23.78,23.78,0,0,1,.94,5,7.63,7.63,0,0,0,2,4.57c1.26,1.15,3.44,1.4,4.59.14a5.15,5.15,0,0,0,.89-3.51l0-6.46c.69.77,1.76,1.61,2.64,1.08s.67-1.74.4-2.68L208,111.19a3.49,3.49,0,0,0-1-1.88c-.92-.73-2.26-.37-3.36.06a57.81,57.81,0,0,0-7.69,3.7C192.78,114.88,197.1,115.94,198,118.3Z" transform="translate(-48.08 -13.84)" fill="#68fded"/><path d="M199.4,116.87a23.87,23.87,0,0,1,.94,5,7.57,7.57,0,0,0,2,4.56c1.25,1.15,3.44,1.4,4.58.15a5.09,5.09,0,0,0,.89-3.52l0-6.46c.69.77,1.75,1.62,2.64,1.08s.66-1.74.39-2.68l-1.52-5.24a3.58,3.58,0,0,0-1-1.88c-.92-.73-2.27-.36-3.36.07a57.88,57.88,0,0,0-7.7,3.69C194.17,113.45,198.49,114.51,199.4,116.87Z" transform="translate(-48.08 -13.84)" fill="url(#linear-gradient-4)"/><path d="M166.27,149.62c-.6,1.35-1.14,3-.33,4.24a4,4,0,0,0,1.29,1.12,2.89,2.89,0,0,0,2.5.49,2.64,2.64,0,0,0,1.34-1.9,12.36,12.36,0,0,1,.6-2.34.62.62,0,0,1,.33-.36c.39-.14.65.37.79.76a4.6,4.6,0,0,0,5.85,2.63c.78-2.1-.34-4.36-.76-6.56a10.42,10.42,0,0,1,1.63-7.77,19.81,19.81,0,0,1-5.12,1.55c-1.48.3-7.77.14-8.36,1.22s.68,2,.93,2.83A5.73,5.73,0,0,1,166.27,149.62Z" transform="translate(-48.08 -13.84)" fill="url(#linear-gradient-5)"/><path d="M165.53,142.31a5.35,5.35,0,0,0,2.54.77,20,20,0,0,0,10.78-1.88c1.06-.51,2.22-1.33,2.25-2.51a2.44,2.44,0,0,0-1.39-2.1c-1.22-.64-13.45-4.09-14.07-2-.44,1.47,6.33,2.47,4.4,4.4C169.5,139.55,165.53,141.91,165.53,142.31Z" transform="translate(-48.08 -13.84)" fill="url(#linear-gradient-6)"/><ellipse cx="148.17" cy="246.09" rx="71.68" ry="7.61" fill="url(#linear-gradient-7)"/><path d="M258.87,200.13v.33q0,1.09,0,2.16c0,.35,0,.68,0,1,0,.1,0,.2,0,.3l-.06,1.41a.66.66,0,0,0,0,.14c0,.5-.06,1-.1,1.49,0,.32-.05.64-.08,1s-.05.69-.09,1c-.06.59-.12,1.17-.19,1.75s-.15,1.14-.23,1.71-.13.9-.2,1.34-.17,1-.27,1.55-.13.71-.2,1.06c-.11.6-.23,1.19-.37,1.77s-.25,1.12-.4,1.67a.09.09,0,0,1,0,.05c-.1.4-.2.79-.31,1.18-.15.57-.31,1.14-.48,1.69s-.4,1.31-.62,1.95c0,.13-.09.26-.13.38-.2.59-.41,1.17-.63,1.75l-.09.22c-.19.52-.39,1-.61,1.54-.12.29-.24.58-.37.87s-.37.86-.57,1.28-.39.84-.6,1.25-.41.83-.62,1.23c-.42.81-.86,1.61-1.32,2.39-.19.34-.39.68-.59,1a54.1,54.1,0,0,1-7.78,9.93,55.72,55.72,0,0,1-8.31,6.88c-11.3,7.66-25.45,11.37-40.45,11.37-14.81,0-28.07-3.61-38.47-11.07a49.58,49.58,0,0,1-4.68-3.78,50.19,50.19,0,0,1-7.69-8.87,59.56,59.56,0,0,1-8.52-19.57,87.45,87.45,0,0,1-2.38-21c0-1,0-1.9,0-2.86.07-2.55.23-5.15.48-7.78a139.39,139.39,0,0,1,2.63-16.67c.84-3.85,1.83-7.71,3-11.54a1.81,1.81,0,0,1,.09-.31c1-3.47,2.2-6.92,3.47-10.31l.14-.38,8.53,2.94,5,1.71,18.61-8,15.64,8,16.08-8,14.8,9.73,15.22-9.73,14.54,4.86q.82,2.25,1.58,4.53c.49,1.47,1,2.95,1.41,4.43.23.74.45,1.49.66,2.23v0q1,3.65,1.91,7.31c.12.54.25,1.08.37,1.62.71,3.15,1.31,6.3,1.8,9.42.09.57.17,1.13.25,1.7.2,1.36.38,2.72.53,4.07l.18,1.68c0,.38.07.76.11,1.14l.15,1.82c.06.71.1,1.42.14,2.13s.07,1.2.09,1.79.06,1.4.07,2.09c0,.47,0,.94,0,1.41C258.87,199.69,258.87,199.91,258.87,200.13Z" transform="translate(-48.08 -13.84)" fill="#68fded"/><path d="M258.87,200.13v.33q0,1.09,0,2.16c0,.35,0,.68,0,1,0,.1,0,.2,0,.3l-.06,1.41a.66.66,0,0,0,0,.14c0,.5-.06,1-.1,1.49,0,.32-.05.64-.08,1s-.05.69-.09,1c-.06.59-.12,1.17-.19,1.75s-.15,1.14-.23,1.71-.13.9-.2,1.34-.17,1-.27,1.55-.13.71-.2,1.06c-.11.6-.23,1.19-.37,1.77s-.25,1.12-.4,1.67a.09.09,0,0,1,0,.05c-.1.4-.2.79-.31,1.18-.15.57-.31,1.14-.48,1.69s-.4,1.31-.62,1.95c0,.13-.09.26-.13.38-.2.59-.41,1.17-.63,1.75l-.09.22c-.19.52-.39,1-.61,1.54-.12.29-.24.58-.37.87s-.37.86-.57,1.28-.39.84-.6,1.25-.41.83-.62,1.23c-.42.81-.86,1.61-1.32,2.39-.19.34-.39.68-.59,1a54.1,54.1,0,0,1-7.78,9.93,55.72,55.72,0,0,1-8.31,6.88c-11.3,7.66-25.45,11.37-40.45,11.37-14.81,0-28.07-3.61-38.47-11.07a49.58,49.58,0,0,1-4.68-3.78,50.19,50.19,0,0,1-7.69-8.87,59.56,59.56,0,0,1-8.52-19.57,87.45,87.45,0,0,1-2.38-21c0-1,0-1.9,0-2.86.07-2.55.23-5.15.48-7.78a139.39,139.39,0,0,1,2.63-16.67c.84-3.85,1.83-7.71,3-11.54a1.81,1.81,0,0,1,.09-.31c1-3.47,2.2-6.92,3.47-10.31l.14-.38,8.53,2.94,5,1.71,18.61-8,15.64,8,16.08-8,14.8,9.73,15.22-9.73,14.54,4.86q.82,2.25,1.58,4.53c.49,1.47,1,2.95,1.41,4.43.23.74.45,1.49.66,2.23v0q1,3.65,1.91,7.31c.12.54.25,1.08.37,1.62.71,3.15,1.31,6.3,1.8,9.42.09.57.17,1.13.25,1.7.2,1.36.38,2.72.53,4.07l.18,1.68c0,.38.07.76.11,1.14l.15,1.82c.06.71.1,1.42.14,2.13s.07,1.2.09,1.79.06,1.4.07,2.09c0,.47,0,.94,0,1.41C258.87,199.69,258.87,199.91,258.87,200.13Z" transform="translate(-48.08 -13.84)" fill="url(#linear-gradient-8)"/><path d="M258.87,200.13v.33q0,1.09,0,2.16c0,.35,0,.68,0,1,0,.1,0,.2,0,.3l-.06,1.41a.66.66,0,0,0,0,.14c0,.5-.06,1-.1,1.49,0,.32-.05.64-.08,1s-.05.69-.09,1c-.06.59-.12,1.17-.19,1.75s-.15,1.14-.23,1.71-.13.9-.2,1.34-.17,1-.27,1.55-.13.71-.2,1.06c-.11.6-.23,1.19-.37,1.77s-.25,1.12-.4,1.67a.09.09,0,0,1,0,.05c-.1.4-.2.79-.31,1.18-.15.57-.31,1.14-.48,1.69s-.4,1.31-.62,1.95c0,.13-.09.26-.13.38-.2.59-.41,1.17-.63,1.75l-.09.22c-.19.52-.39,1-.61,1.54-.12.29-.24.58-.37.87s-.37.86-.57,1.28-.39.84-.6,1.25-.41.83-.62,1.23c-.42.81-.86,1.61-1.32,2.39-.19.34-.39.68-.59,1a62,62,0,0,1-18,9,79.78,79.78,0,0,1-24.26,3.6,74.41,74.41,0,0,1-23.66-3.6,53.23,53.23,0,0,1-21.38-13.07,49.66,49.66,0,0,1-5.56-6.71,51.46,51.46,0,0,1-2.95-4.76,60.29,60.29,0,0,1-5.29-13.17A77.49,77.49,0,0,1,146,193.73h0q-.39-4.23-.39-8.81A121.08,121.08,0,0,1,147,167.15c.67-4.49,1.58-9.05,2.7-13.6l5,1.71,18.61-8,15.64,8,16.08-8,14.8,9.73,15.22-9.73,14.54,4.86q.82,2.25,1.58,4.53c.49,1.47,1,2.95,1.41,4.43.23.74.45,1.49.66,2.23v0q1,3.65,1.91,7.31c.12.54.25,1.08.37,1.62.71,3.15,1.31,6.3,1.8,9.42.09.57.17,1.13.25,1.7.2,1.36.38,2.72.53,4.07l.18,1.68c0,.38.07.76.11,1.14l.15,1.82c.06.71.1,1.42.14,2.13s.07,1.2.09,1.79.06,1.4.07,2.09c0,.47,0,.94,0,1.41C258.87,199.69,258.87,199.91,258.87,200.13Z" transform="translate(-48.08 -13.84)" fill="#68fded"/><path d="M258.87,200.13v.33q0,1.09,0,2.16c0,.35,0,.68,0,1,0,.1,0,.2,0,.3l-.06,1.41a.66.66,0,0,0,0,.14c0,.5-.06,1-.1,1.49,0,.32-.05.64-.08,1s-.05.69-.09,1c-.06.59-.12,1.17-.19,1.75s-.15,1.14-.23,1.71-.13.9-.2,1.34-.17,1-.27,1.55-.13.71-.2,1.06c-.11.6-.23,1.19-.37,1.77s-.25,1.12-.4,1.67a.09.09,0,0,1,0,.05c-.1.4-.2.79-.31,1.18-.15.57-.31,1.14-.48,1.69s-.4,1.31-.62,1.95c0,.13-.09.26-.13.38-.2.59-.41,1.17-.63,1.75l-.09.22c-.19.52-.39,1-.61,1.54-.12.29-.24.58-.37.87s-.37.86-.57,1.28-.39.84-.6,1.25-.41.83-.62,1.23c-.42.81-.86,1.61-1.32,2.39-.19.34-.39.68-.59,1a62,62,0,0,1-18,9,79.78,79.78,0,0,1-24.26,3.6,74.41,74.41,0,0,1-23.66-3.6,53.23,53.23,0,0,1-21.38-13.07,49.66,49.66,0,0,1-5.56-6.71,51.46,51.46,0,0,1-2.95-4.76,60.29,60.29,0,0,1-5.29-13.17A77.49,77.49,0,0,1,146,193.73h0q-.39-4.23-.39-8.81A121.08,121.08,0,0,1,147,167.15c.67-4.49,1.58-9.05,2.7-13.6l5,1.71,18.61-8,15.64,8,16.08-8,14.8,9.73,15.22-9.73,14.54,4.86q.82,2.25,1.58,4.53c.49,1.47,1,2.95,1.41,4.43.23.74.45,1.49.66,2.23v0q1,3.65,1.91,7.31c.12.54.25,1.08.37,1.62.71,3.15,1.31,6.3,1.8,9.42.09.57.17,1.13.25,1.7.2,1.36.38,2.72.53,4.07l.18,1.68c0,.38.07.76.11,1.14l.15,1.82c.06.71.1,1.42.14,2.13s.07,1.2.09,1.79.06,1.4.07,2.09c0,.47,0,.94,0,1.41C258.87,199.69,258.87,199.91,258.87,200.13Z" transform="translate(-48.08 -13.84)" fill="url(#linear-gradient-9)"/><polygon points="205.16 149.43 205.16 149.45 189.09 142.9 167.94 152.41 154.59 142.9 139.39 153.26 122.9 141.42 103.24 155.8 98.95 153.31 89.42 147.77 89.41 147.76 89.51 147.46 92.98 137.15 93.11 136.77 93.12 136.77 101.65 139.71 106.62 141.42 125.23 133.38 140.87 141.42 156.95 133.38 171.75 143.11 186.97 133.38 201.51 138.24 205.16 149.43" fill="#68fded"/><polygon points="205.16 149.43 205.16 149.45 189.09 142.9 167.94 152.41 154.59 142.9 139.39 153.26 122.9 141.42 103.24 155.8 98.95 153.31 89.42 147.77 89.41 147.76 89.51 147.46 92.98 137.15 93.11 136.77 93.12 136.77 101.65 139.71 106.62 141.42 125.23 133.38 140.87 141.42 156.95 133.38 171.75 143.11 186.97 133.38 201.51 138.24 205.16 149.43" fill="url(#linear-gradient-10)"/><path d="M258.87,200.13v.33a82.62,82.62,0,0,1-1,13.31,47.45,47.45,0,0,1-8.29-7.28c-1.81-2-3.64-4.31-6.27-5-2.95-.75-6,.83-8.3,2.87s-4.08,4.58-6.53,6.4a14.79,14.79,0,0,1-12,2.49c-4-1-7.34-3.49-10.84-5.59S198,203.85,194,204.76c-5.82,1.33-8.95,7.56-13.77,11.08a17,17,0,0,1-20.29-.68c-3.28-2.75-6-7-10.25-7.26-4-.23-7.1,3.21-9.35,6.48-1.84,2.68-3.79,5.65-6.56,7.12a87.45,87.45,0,0,1-2.38-21c0-1,0-1.9,0-2.86a1,1,0,0,1,.26.12,13.83,13.83,0,0,1,16.73-3c3,1.71,5.28,4.51,8.16,6.46a17.28,17.28,0,0,0,15.11,2c5.75-2,10-6.88,13.59-11.77,2.49-3.38,8-2.62,12.05-1.44s7.51,3.74,10.61,6.58c3.68,3.38,7.55,7.49,12.56,7.52,5.46,0,9.63-4.94,11.87-9.92.91-2,1.76-4.25,3.64-5.4a10,10,0,0,1,4.15-1.08c4.06-.42,8.62-.71,11.73,1.93s3.75,7.78,7,10.53Z" transform="translate(-48.08 -13.84)" fill="#fff" opacity="0.74"/><path d="M250.24,235.6c-.19.34-.39.68-.59,1a54.1,54.1,0,0,1-7.78,9.93,33.32,33.32,0,0,1-10.16-.87c-5.26-1.37-10-4.39-15.38-5.36-11.66-2.12-23,5.77-34.87,5.37-4.3-.15-8.47-1.4-12.73-2s-8.84-.61-12.55,1.57c-2.25,1.32-4,3.35-6.22,4.72a50.19,50.19,0,0,1-7.69-8.87,32.12,32.12,0,0,0,13.26-4.35c4.55-2.78,9.23-6.56,14.51-5.82,2.76.38,5.17,2,7.68,3.2a29.13,29.13,0,0,0,13.2,2.92,16.74,16.74,0,0,0,7.59-1.67c1.69-.89,3.13-2.16,4.77-3.12,3.45-2,7.54-2.5,11.5-2.95a17.2,17.2,0,0,1,5.77,0c3.15.72,5.6,3.11,8.4,4.73C235.3,237.69,242.87,237.2,250.24,235.6Z" transform="translate(-48.08 -13.84)" fill="#fff"/><circle cx="119.36" cy="167.74" r="8.46" fill="#fff"/><circle cx="156.63" cy="165.09" r="8.46" fill="#fff"/><circle cx="187.76" cy="161.24" r="8.46" fill="#fff"/><path d="M142.27,181.58a8.46,8.46,0,0,1-8.46,8.46,8.69,8.69,0,0,1-1.92-.22,139.39,139.39,0,0,1,2.63-16.67A8.46,8.46,0,0,1,142.27,181.58Z" transform="translate(-48.08 -13.84)" fill="#fff"/><path d="M142.26,223.33a1.77,1.77,0,0,0-.82.57,1.8,1.8,0,0,0-.24.92l-.12,1.47a2.42,2.42,0,0,0,0,.93,2,2,0,0,0,2.1,1,14.34,14.34,0,0,0,4-1.11c3.75-1.26,7.79-1.25,11.74-1.31.82,0,1.79-.12,2.18-.83,1.41-2.52-5.41-3.82-6.91-3.89A27.24,27.24,0,0,0,142.26,223.33Z" transform="translate(-48.08 -13.84)" fill="#fff"/><path d="M186.62,219.74c-1.61.51-3.31,1.23-4.13,2.7a1.21,1.21,0,0,0-.19.95c.19.59,1,.68,1.59.65l17.88-.58c1.74-.06,3.4-1.38,2.93-3.32-.43-1.76-2-1.94-3.58-2.12A35.83,35.83,0,0,0,186.62,219.74Z" transform="translate(-48.08 -13.84)" fill="#fff"/><path d="M230.2,216.11a30,30,0,0,0-8.3.69c-.72.2-1.53.57-1.7,1.29a1.9,1.9,0,0,0,.79,1.77,8,8,0,0,0,4.74,1.76c1.71.16,3.43,0,5.14.18,3.79.32,7.75,1.92,11.24.42a1.14,1.14,0,0,0,.51-.35c1.44-2-2.05-4.94-3.7-5.45C236.31,215.61,232.9,216.13,230.2,216.11Z" transform="translate(-48.08 -13.84)" fill="#fff"/><path d="M165.64,134.62l15.69,2.26c.73.11,0-4.84-.17-5.25a7.85,7.85,0,0,0-2.86-4c-1.32-.77-3-.11-4.32.2a11.79,11.79,0,0,0-4.93,2.18A10.57,10.57,0,0,0,165.64,134.62Z" transform="translate(-48.08 -13.84)" fill="#68fded"/><path d="M165.64,134.62l15.69,2.26c.73.11,0-4.84-.17-5.25a7.85,7.85,0,0,0-2.86-4c-1.32-.77-3-.11-4.32.2a11.79,11.79,0,0,0-4.93,2.18A10.57,10.57,0,0,0,165.64,134.62Z" transform="translate(-48.08 -13.84)" fill="url(#linear-gradient-11)"/><circle cx="136.44" cy="109.82" r="2.17" fill="url(#linear-gradient-12)"/><circle cx="125.24" cy="108.65" r="2.17" fill="url(#linear-gradient-13)"/><path d="M174,113.34a5,5,0,0,1,2.3.82l14.83,8.25a3.56,3.56,0,0,0,1.45.54,3.19,3.19,0,0,0,1.39-.3,23.43,23.43,0,0,0,5.59-3.13,3.28,3.28,0,0,0,.88-.9c.69-1.24-.24-3.21.93-4a5.57,5.57,0,0,0,1.64,1.64,1.89,1.89,0,0,0,2.17-.14c.49-.49.69-1.38,1.38-1.47a1.64,1.64,0,0,1,1,.32,7.1,7.1,0,0,0,3.52.88,9.29,9.29,0,0,0,2.28,4.79,13.1,13.1,0,0,0,3.71,2,17.2,17.2,0,0,1,4.79,3.21l-6.62-15.55a11.57,11.57,0,0,0-2.76-4.45c-2.06-1.76-5-1.86-7.72-1.88l-14.9-.07a27.46,27.46,0,0,0-6.08.43,27,27,0,0,0-5.43,2.09,36,36,0,0,0-7.21,4.07c-1,.78-4.47,3.51-2.87,4.67S172.29,113.33,174,113.34Z" transform="translate(-48.08 -13.84)" fill="url(#linear-gradient-14)"/><path d="M251.72,114.44l-14.54-4.86L222,119.31l-14.8-9.73-16.08,8-15.64-8-18.61,8-.53-.18-4.44-1.53L143.33,113a144,144,0,0,1,10.74-22.54c1.72-2.89,3.52-5.66,5.41-8.27a77.41,77.41,0,0,1,14-15.16c7.35-5.93,15.38-9.43,23.78-9.43a29.33,29.33,0,0,1,3.38.19c.72.08,1.44.18,2.15.32a32.16,32.16,0,0,1,3.43.81c.51.15,1,.31,1.51.49.8.27,1.59.58,2.38.91s1.51.68,2.26,1.05c.51.26,1,.53,1.54.82l.76.43.8.47q1.11.67,2.19,1.41l0,0c.47.33,1,.67,1.42,1,.75.55,1.49,1.13,2.23,1.73.94.77,1.87,1.57,2.78,2.42a72.52,72.52,0,0,1,5.44,5.61c.39.43.76.87,1.14,1.32.82,1,1.64,2,2.42,3,.16.19.3.37.44.56l1.12,1.5c1,1.36,1.95,2.75,2.89,4.19a123.22,123.22,0,0,1,6.86,11.83c.34.67.68,1.34,1,2q1,2.1,2,4.24c.31.66.6,1.33.89,2,.39.89.77,1.78,1.13,2.68.23.53.44,1.06.65,1.59C250.67,111.63,251.21,113,251.72,114.44Z" transform="translate(-48.08 -13.84)" fill="#68fded"/><path d="M163.27,114.83l-7,2.61-4.44-1.53L143.33,113c7.11-18.82,17.64-35.9,30.14-46,7.35-5.93,15.38-9.43,23.78-9.43C154.73,75.9,163.27,114.83,163.27,114.83Z" transform="translate(-48.08 -13.84)" fill="url(#linear-gradient-15)"/><path d="M237.58,85.88c-7.58,2.7-15.44,5.13-23.39,4.21-3-.35-6-1.19-9-1.48-8.76-.85-17.32,2.81-26.1,3.4-8.3.55-16.77-1.64-25-1.58,1.72-2.89,3.52-5.66,5.41-8.27,1.91.1,3.76.82,5.81,1.15,9.41,1.56,20.68,3.74,30.15,2,5.74-1.07,11.11-3.87,16.93-4.33,7-.55,14.79,2.19,20.76-1.33.16.19.3.37.44.56l1.12,1.5C235.68,83.05,236.64,84.44,237.58,85.88Z" transform="translate(-48.08 -13.84)" fill="#fff" opacity="0.74"/></svg>