<svg id="Layer_1" data-name="Layer 1" xmlns="http://www.w3.org/2000/svg" xmlns:xlink="http://www.w3.org/1999/xlink" viewBox="0 0 391.29 272.76"><defs><linearGradient id="linear-gradient" x1="251.51" y1="193.6" x2="265.78" y2="178.8" gradientTransform="translate(-146.24 -31.28) rotate(0.7)" gradientUnits="userSpaceOnUse"><stop offset="0.01"/><stop offset="0.13" stop-opacity="0.69"/><stop offset="1" stop-opacity="0"/></linearGradient><linearGradient id="linear-gradient-2" x1="282.32" y1="169.1" x2="257.83" y2="178.44" gradientTransform="translate(-146.24 -31.28) rotate(0.7)" gradientUnits="userSpaceOnUse"><stop offset="0.01" stop-color="#fff"/><stop offset="0.13" stop-color="#fff" stop-opacity="0.69"/><stop offset="1" stop-color="#fff" stop-opacity="0"/></linearGradient><linearGradient id="linear-gradient-3" x1="552" y1="-95.33" x2="566.08" y2="-109.93" gradientTransform="translate(-427.16 397.23) rotate(-12.91)" xlink:href="#linear-gradient"/><linearGradient id="linear-gradient-4" x1="582.4" y1="-119.5" x2="558.23" y2="-110.29" gradientTransform="translate(-427.16 397.23) rotate(-12.91)" xlink:href="#linear-gradient-2"/><linearGradient id="linear-gradient-5" x1="107.18" y1="173.08" x2="98.77" y2="155.23" gradientTransform="matrix(1, 0, 0, 1, 0, 0)" xlink:href="#linear-gradient"/><linearGradient id="linear-gradient-6" x1="258.08" y1="191.23" x2="271.98" y2="176.81" gradientTransform="translate(-153.44 -14.91) rotate(0.44)" xlink:href="#linear-gradient"/><linearGradient id="linear-gradient-7" x1="288.09" y1="167.36" x2="264.23" y2="176.46" gradientTransform="translate(-153.44 -14.91) rotate(0.44)" xlink:href="#linear-gradient-2"/><linearGradient id="linear-gradient-8" x1="278.5" y1="185.07" x2="292.2" y2="170.86" gradientTransform="translate(-153.44 -14.91) rotate(0.44)" xlink:href="#linear-gradient"/><linearGradient id="linear-gradient-9" x1="308.07" y1="161.55" x2="284.56" y2="170.52" gradientTransform="translate(-153.44 -14.91) rotate(0.44)" xlink:href="#linear-gradient-2"/><linearGradient id="linear-gradient-10" x1="293.44" y1="188.6" x2="309.44" y2="172.01" gradientTransform="translate(-153.44 -14.91) rotate(0.44)" xlink:href="#linear-gradient"/><linearGradient id="linear-gradient-11" x1="327.98" y1="161.13" x2="300.52" y2="171.6" gradientTransform="translate(-153.44 -14.91) rotate(0.44)" xlink:href="#linear-gradient-2"/><linearGradient id="linear-gradient-12" x1="112.88" y1="462.97" x2="127.67" y2="447.63" gradientTransform="translate(130.42 -304.53) rotate(11.13)" xlink:href="#linear-gradient"/><linearGradient id="linear-gradient-13" x1="144.82" y1="437.57" x2="119.43" y2="447.25" gradientTransform="translate(130.42 -304.53) rotate(11.13)" xlink:href="#linear-gradient-2"/><linearGradient id="linear-gradient-14" x1="161.77" y1="163.78" x2="170.86" y2="148.87" gradientTransform="matrix(1, 0, 0, 1, 0, 0)" xlink:href="#linear-gradient"/><linearGradient id="linear-gradient-15" x1="124.77" y1="459.22" x2="139.57" y2="443.88" gradientTransform="translate(130.42 -304.53) rotate(11.13)" xlink:href="#linear-gradient"/><linearGradient id="linear-gradient-16" x1="156.71" y1="433.82" x2="131.32" y2="443.5" gradientTransform="translate(130.42 -304.53) rotate(11.13)" xlink:href="#linear-gradient-2"/><linearGradient id="linear-gradient-17" x1="98.64" y1="468.33" x2="113.44" y2="452.99" gradientTransform="translate(130.42 -304.53) rotate(11.13)" xlink:href="#linear-gradient"/><linearGradient id="linear-gradient-18" x1="130.58" y1="442.94" x2="105.19" y2="452.62" gradientTransform="translate(130.42 -304.53) rotate(11.13)" xlink:href="#linear-gradient-2"/><linearGradient id="linear-gradient-19" x1="220.9" y1="392.56" x2="222.8" y2="206.06" gradientTransform="matrix(1, 0, 0, 1, 0, 0)" xlink:href="#linear-gradient"/><linearGradient id="linear-gradient-20" x1="318.24" y1="215.54" x2="301.33" y2="193.13" gradientTransform="matrix(1, 0, 0, 1, 0, 0)" xlink:href="#linear-gradient-2"/><linearGradient id="linear-gradient-21" x1="2803.77" y1="19.8" x2="2878.62" y2="-48.25" gradientTransform="matrix(0.04, -1, 1, 0.04, 172.88, 3021.12)" xlink:href="#linear-gradient"/><linearGradient id="linear-gradient-22" x1="325.94" y1="188.14" x2="265.04" y2="157.69" gradientTransform="matrix(1, 0, 0, 1, 0, 0)" xlink:href="#linear-gradient-2"/><linearGradient id="linear-gradient-23" x1="283.58" y1="160.08" x2="300.92" y2="255.65" gradientTransform="matrix(1, 0, 0, 1, 0, 0)" xlink:href="#linear-gradient"/><linearGradient id="linear-gradient-24" x1="127.71" y1="93.33" x2="139.13" y2="178.33" gradientTransform="matrix(1, 0, 0, 1, 0, 0)" xlink:href="#linear-gradient"/><linearGradient id="linear-gradient-25" x1="124.29" y1="95.3" x2="137.4" y2="179.88" gradientTransform="matrix(1, 0, 0, 1, 0, 0)" xlink:href="#linear-gradient"/><linearGradient id="linear-gradient-26" x1="123.37" y1="78.44" x2="136.38" y2="162.36" gradientTransform="matrix(1, 0, 0, 1, 0, 0)" xlink:href="#linear-gradient"/><linearGradient id="linear-gradient-27" x1="111.28" y1="187.61" x2="208.76" y2="265.42" gradientTransform="matrix(1, 0, 0, 1, 0, 0)" xlink:href="#linear-gradient"/><linearGradient id="linear-gradient-28" x1="161.02" y1="244.68" x2="109.95" y2="165.38" gradientTransform="matrix(1, 0, 0, 1, 0, 0)" xlink:href="#linear-gradient"/><linearGradient id="linear-gradient-29" x1="155.34" y1="105.66" x2="187.42" y2="189.33" gradientTransform="matrix(1, 0, 0, 1, 0, 0)" xlink:href="#linear-gradient"/><linearGradient id="linear-gradient-30" x1="131.61" y1="162.86" x2="139.86" y2="200.71" gradientTransform="matrix(1, 0, 0, 1, 0, 0)" xlink:href="#linear-gradient"/><linearGradient id="linear-gradient-31" x1="211.22" y1="127.22" x2="154.13" y2="176.38" gradientTransform="matrix(1, 0, 0, 1, 0, 0)" xlink:href="#linear-gradient"/><linearGradient id="linear-gradient-32" x1="292.73" y1="138.22" x2="289.87" y2="119.19" gradientTransform="matrix(1, 0, 0, 1, 0, 0)" xlink:href="#linear-gradient-2"/><linearGradient id="linear-gradient-33" x1="290.65" y1="83.29" x2="256.81" y2="109.93" gradientTransform="matrix(1, 0, 0, 1, 0, 0)" xlink:href="#linear-gradient-2"/><linearGradient id="linear-gradient-34" x1="313.56" y1="87.31" x2="262.99" y2="99.68" gradientTransform="matrix(1, 0, 0, 1, 0, 0)" xlink:href="#linear-gradient-2"/><linearGradient id="linear-gradient-35" x1="270.78" y1="120.24" x2="286" y2="81.33" gradientTransform="matrix(1, 0, 0, 1, 0, 0)" xlink:href="#linear-gradient"/><linearGradient id="linear-gradient-36" x1="286.83" y1="126.52" x2="302.06" y2="87.61" gradientTransform="matrix(1, 0, 0, 1, 0, 0)" xlink:href="#linear-gradient"/><linearGradient id="linear-gradient-37" x1="286.09" y1="120.4" x2="302.27" y2="162.27" gradientTransform="matrix(1, 0, 0, 1, 0, 0)" xlink:href="#linear-gradient-2"/><linearGradient id="linear-gradient-38" x1="271.49" y1="110.43" x2="279.34" y2="120.74" gradientTransform="matrix(1, 0, 0, 1, 0, 0)" xlink:href="#linear-gradient"/><linearGradient id="linear-gradient-39" x1="279.59" y1="74.86" x2="282.98" y2="90.51" gradientTransform="matrix(1, 0, 0, 1, 0, 0)" xlink:href="#linear-gradient"/><linearGradient id="linear-gradient-40" x1="300.1" y1="35.47" x2="290.8" y2="171.65" gradientTransform="matrix(1, 0, 0, 1, 0, 0)" xlink:href="#linear-gradient"/><linearGradient id="linear-gradient-41" x1="250.67" y1="154.75" x2="262.64" y2="229.52" gradientTransform="matrix(1, 0, 0, 1, 0, 0)" xlink:href="#linear-gradient-2"/><linearGradient id="linear-gradient-42" x1="635.29" y1="-91.08" x2="723.68" y2="-171.43" gradientTransform="translate(-317.29 483.54) rotate(-15.35)" xlink:href="#linear-gradient"/><linearGradient id="linear-gradient-43" x1="276.92" y1="237.88" x2="302.61" y2="176.98" gradientTransform="matrix(1, 0, 0, 1, 0, 0)" xlink:href="#linear-gradient-2"/></defs><title>15</title><path d="M395.37,253.37c-4.93,19.55-24.33,26.68-40.75,34-18.29,8.14-39.17,7.81-58.78,7.32L182.6,291.84c-24.42-.62-49.11-1.2-73,4-26.32,5.75-77,18.78-97.16-8-6.84-9.09-8.76-21.4-6.14-32.47S15.88,234.28,19,223.29a45.09,45.09,0,0,0,1.17-5.3c2.07-13.54-3.24-27-6.12-40.35C6.24,141.27,16.6,103,34.21,70.22c4.28-8,9.19-15.93,16.6-21.12,7.83-5.5,17.6-7.29,27-9a309.63,309.63,0,0,1,32.87-3.95c34.87-2.35,68.53.87,104.68,4.22C248.7,43.5,281,27,315.71,32.51a102.2,102.2,0,0,1,46.34,19.87c12.49,9.78,22,22.68,25.82,38.11,8.31,33.63-11.77,69.09-5,103.06A104.74,104.74,0,0,0,386.7,207c.82,2.39,1.68,4.76,2.54,7.14C394,227.21,398.69,240.19,395.37,253.37Z" transform="translate(-5.19 -31.36)" fill="#68fded" opacity="0.18" style="isolation:isolate"/><path d="M395.37,253.37c-4.93,19.55-24.33,26.68-40.75,34-18.29,8.14-39.17,7.81-58.78,7.32L182.6,291.84c-24.42-.62-49.11-1.2-73,4-26.32,5.75-77,18.78-97.16-8-6.84-9.09-8.76-21.4-6.14-32.47S15.88,234.28,19,223.29c13-5.59,32.62-4.72,48.94-4.16,5.73.19,11,.34,15.52.16l182.59-7.42L386.7,207c.82,2.39,1.68,4.76,2.54,7.14C394,227.21,398.69,240.19,395.37,253.37Z" transform="translate(-5.19 -31.36)" fill="#68fded" opacity="0.55" style="isolation:isolate"/><path d="M382.9,193.55A104.74,104.74,0,0,0,386.7,207l-120.64,4.9L83.47,219.29c-4.47.18-9.79,0-15.52-.16,5-7.87,15.54-12.31,25.07-14.91,12-3.26,25.73-6.89,31.1-18.07,2.49-5.18,2.65-11.16,4.47-16.61,3.68-11,14.13-18.94,25.45-21.53s23.31-.38,34,4.08c8.46,3.52,17.14,8.55,26.16,6.91,8.41-1.52,14.74-8.58,18.84-16.07s6.68-15.8,11.37-22.94a45.82,45.82,0,0,1,25.29-18.67c10.23-3,22.1-2.64,30-9.78,9.72-8.77,8.93-24.94,17.8-34.56,10.85-11.77,28.07-9.24,44.52-4.6,12.49,9.78,22,22.68,25.82,38.11C396.18,124.12,376.1,159.58,382.9,193.55Z" transform="translate(-5.19 -31.36)" fill="#68fded" opacity="0.32" style="isolation:isolate"/><path d="M131.27,151.11v.06a14.71,14.71,0,0,1-.22,2.46,11.48,11.48,0,0,1-1.45,4l-.12.18a9.7,9.7,0,0,1-1.46,1.83,12.54,12.54,0,0,1-9.07,3.27,11.56,11.56,0,0,1-8-2.85,9,9,0,0,1-1.41-1.66,11,11,0,0,1-1.53-3.64,16.32,16.32,0,0,1-.4-3.91c0-.17,0-.35,0-.52,0-.48,0-1,.1-1.44a26.12,26.12,0,0,1,.53-3.08c1.14-5,3.72-10.05,7-12.61a7.06,7.06,0,0,1,4.43-1.69C126.21,131.62,131.35,143,131.27,151.11Z" transform="translate(-5.19 -31.36)" fill="#68fded"/><path d="M131.27,151.11v.06a14.71,14.71,0,0,1-.22,2.46,11.48,11.48,0,0,1-1.45,4l-.12.18a9.7,9.7,0,0,1-1.46,1.83,12.54,12.54,0,0,1-9.07,3.27,11.56,11.56,0,0,1-8-2.85,9,9,0,0,1-1.41-1.66,11,11,0,0,1-1.53-3.64,16.32,16.32,0,0,1-.4-3.91c0-.17,0-.35,0-.52,0-.48,0-1,.1-1.44a26.12,26.12,0,0,1,.53-3.08c1.14-5,3.72-10.05,7-12.61a7.06,7.06,0,0,1,4.43-1.69C126.21,131.62,131.35,143,131.27,151.11Z" transform="translate(-5.19 -31.36)" fill="url(#linear-gradient)"/><path d="M131.27,151.17a12.58,12.58,0,0,1-1.79,6.67,13,13,0,0,1-7.85,2.25c-6.52-.08-11.39-3.93-11.29-12.05a27.72,27.72,0,0,1,4.94-14.81,7,7,0,0,1,4.42-1.69C126.22,131.62,131.37,143.05,131.27,151.17Z" transform="translate(-5.19 -31.36)" fill="#68fded"/><path d="M131.27,151.17a12.58,12.58,0,0,1-1.79,6.67,13,13,0,0,1-7.85,2.25c-6.52-.08-11.39-3.93-11.29-12.05a27.72,27.72,0,0,1,4.94-14.81,7,7,0,0,1,4.42-1.69C126.22,131.62,131.37,143.05,131.27,151.17Z" transform="translate(-5.19 -31.36)" fill="url(#linear-gradient-2)"/><polygon points="104.4 110.32 106.89 111.21 110.36 109.76 113.23 111.28 116.23 109.83 118.95 111.67 121.79 109.9 124.47 110.83 125.12 112.92 122.16 111.67 118.22 113.38 115.77 111.59 112.93 113.47 109.91 111.24 106.23 113.86 103.69 112.34 104.4 110.32" fill="#68fded"/><polygon points="104.4 110.32 106.89 111.21 110.36 109.76 113.23 111.28 116.23 109.83 118.95 111.67 121.79 109.9 124.47 110.83 125.12 112.92 122.16 111.67 118.22 113.38 115.77 111.59 112.93 113.47 109.91 111.24 106.23 113.86 103.69 112.34 104.4 110.32" fill="#fff"/><path d="M131.27,151.11v.06a14.71,14.71,0,0,1-.22,2.46,9.31,9.31,0,0,1-1.52-1.36,2.55,2.55,0,0,0-1.15-.94,1.79,1.79,0,0,0-1.54.51,16.76,16.76,0,0,1-1.22,1.17,2.72,2.72,0,0,1-2.24.44,7.49,7.49,0,0,1-2-1.06,3,3,0,0,0-2.14-.57c-1.08.24-1.68,1.38-2.58,2a3.12,3.12,0,0,1-3.75-.17c-.6-.52-1.09-1.31-1.89-1.37s-1.32.58-1.74,1.18a4.08,4.08,0,0,1-1.23,1.31,16.32,16.32,0,0,1-.4-3.91c0-.17,0-.35,0-.52l0,0a2.56,2.56,0,0,1,3.1-.52c.56.33,1,.85,1.5,1.22a3.21,3.21,0,0,0,2.79.4,5.68,5.68,0,0,0,2.54-2.15c.47-.62,1.49-.47,2.24-.24a5.23,5.23,0,0,1,1.95,1.24c.67.64,1.38,1.41,2.31,1.42a2.7,2.7,0,0,0,2.22-1.81,2.06,2.06,0,0,1,.68-1,1.86,1.86,0,0,1,.77-.19,2.88,2.88,0,0,1,2.17.38c.59.52.68,1.45,1.27,2Z" transform="translate(-5.19 -31.36)" fill="#fff" opacity="0.74"/><path d="M129.6,157.66l-.12.18a9.7,9.7,0,0,1-1.46,1.83,6.27,6.27,0,0,1-1.88-.19c-1-.26-1.84-.83-2.83-1-2.16-.42-4.28,1-6.47.91a23.05,23.05,0,0,1-2.35-.4,3.51,3.51,0,0,0-2.33.26c-.42.24-.75.61-1.16.86a9,9,0,0,1-1.41-1.66,6,6,0,0,0,2.47-.78c.85-.5,1.72-1.19,2.7-1a4.75,4.75,0,0,1,1.41.61,5.43,5.43,0,0,0,2.44.57,3.1,3.1,0,0,0,1.41-.29c.31-.16.58-.4.89-.57a5.34,5.34,0,0,1,2.13-.52,3.2,3.2,0,0,1,1.07,0,6.08,6.08,0,0,1,1.55.9A5.48,5.48,0,0,0,129.6,157.66Z" transform="translate(-5.19 -31.36)" fill="#fff"/><circle cx="109.19" cy="116.11" r="1.57" fill="#fff"/><circle cx="116.1" cy="115.7" r="1.57" fill="#fff"/><circle cx="121.87" cy="115.06" r="1.57" fill="#fff"/><path d="M109.73,147.41a1.58,1.58,0,0,1-1.59,1.55,2.2,2.2,0,0,1-.36,0,26.12,26.12,0,0,1,.53-3.08A1.56,1.56,0,0,1,109.73,147.41Z" transform="translate(-5.19 -31.36)" fill="#fff"/><path d="M109.63,155.14a.35.35,0,0,0-.15.11.34.34,0,0,0,0,.17l0,.27a.47.47,0,0,0,0,.17.37.37,0,0,0,.39.2,2.91,2.91,0,0,0,.74-.2,7.15,7.15,0,0,1,2.17-.21.46.46,0,0,0,.41-.15c.26-.46-1-.72-1.27-.74A5.1,5.1,0,0,0,109.63,155.14Z" transform="translate(-5.19 -31.36)" fill="#fff"/><path d="M117.85,154.58a1.27,1.27,0,0,0-.77.49.28.28,0,0,0,0,.18c0,.1.18.12.3.12l3.31-.07a.52.52,0,0,0,.55-.61c-.08-.32-.37-.36-.66-.4A6.65,6.65,0,0,0,117.85,154.58Z" transform="translate(-5.19 -31.36)" fill="#fff"/><path d="M125.93,154a5.29,5.29,0,0,0-1.54.12.41.41,0,0,0-.32.23.36.36,0,0,0,.15.33,1.56,1.56,0,0,0,.87.34c.32,0,.63,0,1,0a4.35,4.35,0,0,0,2.08.1.21.21,0,0,0,.1-.06c.27-.36-.37-.92-.68-1A6.64,6.64,0,0,0,125.93,154Z" transform="translate(-5.19 -31.36)" fill="#fff"/><path d="M113.47,160.69l0,.06a15.46,15.46,0,0,1,.36,2.41,11.36,11.36,0,0,1-.47,4.2l-.06.2a9.76,9.76,0,0,1-1,2.09,12.32,12.32,0,0,1-7.94,5.24,11.45,11.45,0,0,1-8.29-.88,9.16,9.16,0,0,1-1.73-1.27,10.87,10.87,0,0,1-2.32-3.14A16.25,16.25,0,0,1,90.78,166c0-.17-.08-.33-.11-.51-.09-.45-.17-.92-.23-1.4a25.68,25.68,0,0,1-.21-3.08c-.06-5,1.23-10.5,3.75-13.7a7,7,0,0,1,3.85-2.65C104.09,143.17,111.66,152.88,113.47,160.69Z" transform="translate(-5.19 -31.36)" fill="#68fded"/><path d="M113.47,160.69l0,.06a15.46,15.46,0,0,1,.36,2.41,11.36,11.36,0,0,1-.47,4.2l-.06.2a9.76,9.76,0,0,1-1,2.09,12.32,12.32,0,0,1-7.94,5.24,11.45,11.45,0,0,1-8.29-.88,9.16,9.16,0,0,1-1.73-1.27,10.87,10.87,0,0,1-2.32-3.14A16.25,16.25,0,0,1,90.78,166c0-.17-.08-.33-.11-.51-.09-.45-.17-.92-.23-1.4a25.68,25.68,0,0,1-.21-3.08c-.06-5,1.23-10.5,3.75-13.7a7,7,0,0,1,3.85-2.65C104.09,143.17,111.66,152.88,113.47,160.69Z" transform="translate(-5.19 -31.36)" fill="url(#linear-gradient-3)"/><path d="M113.48,160.75a12.4,12.4,0,0,1-.16,6.81,13,13,0,0,1-7,4C100,173,94.48,170.42,92.68,162.6A27.42,27.42,0,0,1,94,147.26a7,7,0,0,1,3.85-2.65C104.1,143.17,111.69,152.93,113.48,160.75Z" transform="translate(-5.19 -31.36)" fill="#68fded"/><path d="M113.48,160.75a12.4,12.4,0,0,1-.16,6.81,13,13,0,0,1-7,4C100,173,94.48,170.42,92.68,162.6A27.42,27.42,0,0,1,94,147.26a7,7,0,0,1,3.85-2.65C104.1,143.17,111.69,152.93,113.48,160.75Z" transform="translate(-5.19 -31.36)" fill="url(#linear-gradient-4)"/><polygon points="85.3 125.31 87.89 125.59 90.88 123.4 93.99 124.19 96.53 122.1 99.56 123.23 101.88 120.88 104.66 121.15 105.77 123 102.64 122.49 99.26 125.04 96.5 123.89 94.21 126.36 90.79 124.92 87.88 128.29 85.09 127.42 85.3 125.31" fill="#68fded"/><polygon points="85.3 125.31 87.89 125.59 90.88 123.4 93.99 124.19 96.53 122.1 99.56 123.23 101.88 120.88 104.66 121.15 105.77 123 102.64 122.49 99.26 125.04 96.5 123.89 94.21 126.36 90.79 124.92 87.88 128.29 85.09 127.42 85.3 125.31" fill="#fff"/><path d="M113.47,160.69l0,.06a15.46,15.46,0,0,1,.36,2.41,8.49,8.49,0,0,1-1.78-1,2.54,2.54,0,0,0-1.32-.63,1.77,1.77,0,0,0-1.36.85c-.32.46-.54,1-.9,1.41a2.68,2.68,0,0,1-2,.93,7.17,7.17,0,0,1-2.15-.55,3,3,0,0,0-2.19-.05c-1,.48-1.28,1.72-2,2.54a3.1,3.1,0,0,1-3.64.71c-.69-.36-1.35-1-2.12-.88s-1.13.86-1.4,1.54a3.75,3.75,0,0,1-.88,1.53A16.25,16.25,0,0,1,90.78,166c0-.17-.08-.33-.11-.51h0a2.52,2.52,0,0,1,2.86-1.21c.61.18,1.12.59,1.72.82a3.19,3.19,0,0,0,2.77-.27,5.66,5.66,0,0,0,1.94-2.65c.3-.7,1.32-.79,2.08-.75a5.11,5.11,0,0,1,2.16.74,3.8,3.8,0,0,0,2.55.83,2.67,2.67,0,0,0,1.7-2.26,2.08,2.08,0,0,1,.43-1.11,1.94,1.94,0,0,1,.7-.36,2.77,2.77,0,0,1,2.16-.13c.69.36,1,1.23,1.68,1.59Z" transform="translate(-5.19 -31.36)" fill="#fff" opacity="0.74"/><path d="M113.38,167.36l-.06.2a9.76,9.76,0,0,1-1,2.09,6.08,6.08,0,0,1-1.85.26c-1,0-2-.37-2.95-.33-2.17.1-3.87,2-6,2.38a20.61,20.61,0,0,1-2.35.16,3.48,3.48,0,0,0-2.17.79c-.35.33-.58.76-.92,1.1a9.16,9.16,0,0,1-1.73-1.27,5.76,5.76,0,0,0,2.18-1.32c.7-.68,1.38-1.54,2.35-1.62a4.86,4.86,0,0,1,1.5.25,5.29,5.29,0,0,0,2.47,0,3,3,0,0,0,1.28-.6c.27-.23.47-.52.72-.75a5.23,5.23,0,0,1,1.93-1,3,3,0,0,1,1-.24,6.17,6.17,0,0,1,1.69.5A5.36,5.36,0,0,0,113.38,167.36Z" transform="translate(-5.19 -31.36)" fill="#fff"/><circle cx="91.24" cy="129.76" r="1.55" fill="#fff"/><circle cx="97.77" cy="127.76" r="1.55" fill="#fff"/><circle cx="103.15" cy="125.81" r="1.55" fill="#fff"/><path d="M92,162.15A1.55,1.55,0,0,1,90.79,164a1.45,1.45,0,0,1-.35,0,25.68,25.68,0,0,1-.21-3.08A1.55,1.55,0,0,1,92,162.15Z" transform="translate(-5.19 -31.36)" fill="#fff"/><path d="M93.65,169.58a.32.32,0,0,0-.12.14.47.47,0,0,0,0,.17l0,.27a.49.49,0,0,0,0,.16.38.38,0,0,0,.42.1,3,3,0,0,0,.66-.36,6.77,6.77,0,0,1,2-.71c.14,0,.31-.1.35-.24.15-.5-1.12-.46-1.39-.41A5,5,0,0,0,93.65,169.58Z" transform="translate(-5.19 -31.36)" fill="#fff"/><path d="M101.41,167.13a1.28,1.28,0,0,0-.63.65.19.19,0,0,0,0,.18c0,.09.2.08.3,0l3.17-.84a.51.51,0,0,0,.38-.71c-.15-.29-.44-.26-.72-.23A6.58,6.58,0,0,0,101.41,167.13Z" transform="translate(-5.19 -31.36)" fill="#fff"/><path d="M109,164.7a5.24,5.24,0,0,0-1.45.47c-.12.06-.25.16-.25.3a.35.35,0,0,0,.21.28,1.53,1.53,0,0,0,.92.12c.31,0,.61-.14.92-.18.69-.1,1.46,0,2-.38a.34.34,0,0,0,.08-.09c.17-.4-.57-.79-.89-.82A6.52,6.52,0,0,0,109,164.7Z" transform="translate(-5.19 -31.36)" fill="#fff"/><path d="M90.22,162.68s12.5-2,16.62-5.17l4.12-3.15-2.3,8.63L90.49,164.4Z" transform="translate(-5.19 -31.36)" fill="url(#linear-gradient-5)"/><path d="M130.73,164.3v.06a14,14,0,0,1-.2,2.39,11.1,11.1,0,0,1-1.4,3.93l-.11.18a9.58,9.58,0,0,1-1.42,1.78,12.18,12.18,0,0,1-8.82,3.23,11.31,11.31,0,0,1-7.76-2.74,9.37,9.37,0,0,1-1.38-1.61,10.94,10.94,0,0,1-1.51-3.54,16,16,0,0,1-.4-3.8c0-.17,0-.35,0-.52,0-.46,0-.93.09-1.4a25,25,0,0,1,.5-3c1.09-4.86,3.58-9.81,6.74-12.31a6.87,6.87,0,0,1,4.3-1.67C125.72,145.33,130.77,156.38,130.73,164.3Z" transform="translate(-5.19 -31.36)" fill="#68fded"/><path d="M130.73,164.3v.06a14,14,0,0,1-.2,2.39,11.1,11.1,0,0,1-1.4,3.93l-.11.18a9.58,9.58,0,0,1-1.42,1.78,12.18,12.18,0,0,1-8.82,3.23,11.31,11.31,0,0,1-7.76-2.74,9.37,9.37,0,0,1-1.38-1.61,10.94,10.94,0,0,1-1.51-3.54,16,16,0,0,1-.4-3.8c0-.17,0-.35,0-.52,0-.46,0-.93.09-1.4a25,25,0,0,1,.5-3c1.09-4.86,3.58-9.81,6.74-12.31a6.87,6.87,0,0,1,4.3-1.67C125.72,145.33,130.77,156.38,130.73,164.3Z" transform="translate(-5.19 -31.36)" fill="url(#linear-gradient-6)"/><path d="M130.73,164.35a12.33,12.33,0,0,1-1.71,6.51,12.74,12.74,0,0,1-7.64,2.22c-6.35,0-11.11-3.77-11-11.69A27,27,0,0,1,115.08,147a6.85,6.85,0,0,1,4.3-1.67C125.73,145.33,130.79,156.44,130.73,164.35Z" transform="translate(-5.19 -31.36)" fill="#68fded"/><path d="M130.73,164.35a12.33,12.33,0,0,1-1.71,6.51,12.74,12.74,0,0,1-7.64,2.22c-6.35,0-11.11-3.77-11-11.69A27,27,0,0,1,115.08,147a6.85,6.85,0,0,1,4.3-1.67C125.73,145.33,130.79,156.44,130.73,164.35Z" transform="translate(-5.19 -31.36)" fill="url(#linear-gradient-7)"/><polygon points="104.38 123.84 106.81 124.69 110.18 123.27 112.99 124.74 115.9 123.31 118.56 125.09 121.32 123.36 123.93 124.25 124.58 126.28 121.69 125.08 117.86 126.76 115.46 125.03 112.71 126.88 109.75 124.72 106.18 127.28 103.7 125.81 104.38 123.84" fill="#68fded"/><polygon points="104.38 123.84 106.81 124.69 110.18 123.27 112.99 124.74 115.9 123.31 118.56 125.09 121.32 123.36 123.93 124.25 124.58 126.28 121.69 125.08 117.86 126.76 115.46 125.03 112.71 126.88 109.75 124.72 106.18 127.28 103.7 125.81 104.38 123.84" fill="#fff"/><path d="M130.73,164.3v.06a14,14,0,0,1-.2,2.39,8.86,8.86,0,0,1-1.49-1.32,2.52,2.52,0,0,0-1.12-.91,1.7,1.7,0,0,0-1.5.51,16,16,0,0,1-1.19,1.14,2.62,2.62,0,0,1-2.17.44,7.16,7.16,0,0,1-2-1A3,3,0,0,0,119,165c-1,.23-1.62,1.35-2.5,2a3.06,3.06,0,0,1-3.66-.15c-.59-.5-1.06-1.28-1.84-1.32s-1.28.56-1.69,1.15a3.88,3.88,0,0,1-1.2,1.28,16,16,0,0,1-.4-3.8c0-.17,0-.35,0-.52l0,0a2.5,2.5,0,0,1,3-.51c.55.31,1,.82,1.47,1.18a3.12,3.12,0,0,0,2.72.37,5.51,5.51,0,0,0,2.47-2.1c.45-.61,1.45-.46,2.17-.24a4.87,4.87,0,0,1,1.91,1.2c.66.61,1.35,1.36,2.25,1.37a2.64,2.64,0,0,0,2.16-1.77,2,2,0,0,1,.66-1,2,2,0,0,1,.75-.19,2.8,2.8,0,0,1,2.12.36c.58.51.66,1.41,1.24,1.91Z" transform="translate(-5.19 -31.36)" fill="#fff" opacity="0.74"/><path d="M129.13,170.68l-.11.18a9.58,9.58,0,0,1-1.42,1.78,6,6,0,0,1-1.83-.17c-1-.25-1.8-.8-2.77-1-2.1-.39-4.16,1-6.29.92a20,20,0,0,1-2.3-.38,3.44,3.44,0,0,0-2.26.27c-.41.23-.73.6-1.13.84a9.37,9.37,0,0,1-1.38-1.61,5.83,5.83,0,0,0,2.4-.77c.83-.49,1.68-1.17,2.63-1a4.91,4.91,0,0,1,1.38.59,5.26,5.26,0,0,0,2.38.55,3.08,3.08,0,0,0,1.37-.3c.3-.15.56-.38.86-.55a5.32,5.32,0,0,1,2.08-.52,3.3,3.3,0,0,1,1,0,5.83,5.83,0,0,1,1.51.86A5.27,5.27,0,0,0,129.13,170.68Z" transform="translate(-5.19 -31.36)" fill="#fff"/><circle cx="109.07" cy="129.46" r="1.53" fill="#fff"/><circle cx="115.8" cy="129.03" r="1.53" fill="#fff"/><circle cx="121.42" cy="128.38" r="1.53" fill="#fff"/><path d="M109.73,160.79a1.53,1.53,0,0,1-1.54,1.51,1.34,1.34,0,0,1-.35,0,25,25,0,0,1,.5-3A1.53,1.53,0,0,1,109.73,160.79Z" transform="translate(-5.19 -31.36)" fill="#fff"/><path d="M109.67,168.32a.27.27,0,0,0-.15.1.33.33,0,0,0,0,.16l0,.27a.49.49,0,0,0,0,.17c0,.14.22.2.38.19a2.6,2.6,0,0,0,.71-.2,7.18,7.18,0,0,1,2.12-.22c.15,0,.32,0,.4-.14.25-.45-1-.7-1.24-.71A4.82,4.82,0,0,0,109.67,168.32Z" transform="translate(-5.19 -31.36)" fill="#fff"/><path d="M117.67,167.73a1.28,1.28,0,0,0-.75.48.23.23,0,0,0,0,.18c0,.1.17.12.28.12l3.23-.09a.49.49,0,0,0,.53-.59c-.07-.32-.36-.35-.64-.39A6.66,6.66,0,0,0,117.67,167.73Z" transform="translate(-5.19 -31.36)" fill="#fff"/><path d="M125.54,167.14a5.4,5.4,0,0,0-1.5.11c-.13,0-.27.1-.31.23a.35.35,0,0,0,.14.32,1.47,1.47,0,0,0,.86.33c.3,0,.62,0,.92,0a4.4,4.4,0,0,0,2,.09.2.2,0,0,0,.09-.06c.27-.36-.36-.9-.66-1A5.88,5.88,0,0,0,125.54,167.14Z" transform="translate(-5.19 -31.36)" fill="#fff"/><path d="M150.79,158.5v.06a13.65,13.65,0,0,1-.2,2.36,11,11,0,0,1-1.38,3.87l-.1.18a9.69,9.69,0,0,1-1.4,1.75A12,12,0,0,1,139,169.9a11.06,11.06,0,0,1-7.65-2.7,8.64,8.64,0,0,1-1.36-1.58,10.72,10.72,0,0,1-1.48-3.49,15.57,15.57,0,0,1-.4-3.75c0-.17,0-.33,0-.51,0-.45.05-.91.1-1.38a24.67,24.67,0,0,1,.49-3c1.08-4.78,3.53-9.66,6.64-12.12a6.72,6.72,0,0,1,4.24-1.65C145.85,139.81,150.83,150.7,150.79,158.5Z" transform="translate(-5.19 -31.36)" fill="#68fded"/><path d="M150.79,158.5v.06a13.65,13.65,0,0,1-.2,2.36,11,11,0,0,1-1.38,3.87l-.1.18a9.69,9.69,0,0,1-1.4,1.75A12,12,0,0,1,139,169.9a11.06,11.06,0,0,1-7.65-2.7,8.64,8.64,0,0,1-1.36-1.58,10.72,10.72,0,0,1-1.48-3.49,15.57,15.57,0,0,1-.4-3.75c0-.17,0-.33,0-.51,0-.45.05-.91.1-1.38a24.67,24.67,0,0,1,.49-3c1.08-4.78,3.53-9.66,6.64-12.12a6.72,6.72,0,0,1,4.24-1.65C145.85,139.81,150.83,150.7,150.79,158.5Z" transform="translate(-5.19 -31.36)" fill="url(#linear-gradient-8)"/><path d="M150.79,158.56A12.1,12.1,0,0,1,149.1,165a12.61,12.61,0,0,1-7.53,2.19c-6.25,0-10.94-3.72-10.88-11.52a26.47,26.47,0,0,1,4.68-14.23,6.72,6.72,0,0,1,4.24-1.65C145.86,139.81,150.85,150.76,150.79,158.56Z" transform="translate(-5.19 -31.36)" fill="#68fded"/><path d="M150.79,158.56A12.1,12.1,0,0,1,149.1,165a12.61,12.61,0,0,1-7.53,2.19c-6.25,0-10.94-3.72-10.88-11.52a26.47,26.47,0,0,1,4.68-14.23,6.72,6.72,0,0,1,4.24-1.65C145.86,139.81,150.85,150.76,150.79,158.56Z" transform="translate(-5.19 -31.36)" fill="url(#linear-gradient-9)"/><polygon points="124.75 118.18 127.15 119.02 130.46 117.62 133.23 119.07 136.1 117.66 138.72 119.41 141.44 117.7 144.02 118.59 144.65 120.58 141.8 119.4 138.03 121.06 135.67 119.35 132.96 121.17 130.04 119.04 126.53 121.57 124.08 120.12 124.75 118.18" fill="#68fded"/><polygon points="124.75 118.18 127.15 119.02 130.46 117.62 133.23 119.07 136.1 117.66 138.72 119.41 141.44 117.7 144.02 118.59 144.65 120.58 141.8 119.4 138.03 121.06 135.67 119.35 132.96 121.17 130.04 119.04 126.53 121.57 124.08 120.12 124.75 118.18" fill="#fff"/><path d="M150.79,158.5v.06a13.65,13.65,0,0,1-.2,2.36,8.19,8.19,0,0,1-1.46-1.3,2.54,2.54,0,0,0-1.11-.9,1.72,1.72,0,0,0-1.48.5,15.6,15.6,0,0,1-1.17,1.13,2.63,2.63,0,0,1-2.14.43,7.21,7.21,0,0,1-1.92-1,2.92,2.92,0,0,0-2.06-.54c-1,.23-1.6,1.33-2.46,2a3,3,0,0,1-3.61-.15c-.57-.49-1.05-1.25-1.81-1.3s-1.26.56-1.67,1.14a3.84,3.84,0,0,1-1.17,1.26,15.57,15.57,0,0,1-.4-3.75c0-.17,0-.33,0-.51l.05,0a2.45,2.45,0,0,1,3-.51c.53.31.93.81,1.44,1.16a3.07,3.07,0,0,0,2.68.37,5.47,5.47,0,0,0,2.43-2.07c.45-.6,1.43-.46,2.15-.24a4.8,4.8,0,0,1,1.87,1.18,3.64,3.64,0,0,0,2.23,1.35c1,0,1.71-.86,2.12-1.74a2,2,0,0,1,.65-1,1.72,1.72,0,0,1,.74-.18,2.71,2.71,0,0,1,2.08.36c.57.49.66,1.38,1.23,1.88Z" transform="translate(-5.19 -31.36)" fill="#fff" opacity="0.74"/><path d="M149.21,164.79l-.1.18a9.69,9.69,0,0,1-1.4,1.75,6.11,6.11,0,0,1-1.81-.16c-.93-.25-1.77-.8-2.72-1-2.07-.39-4.1,1-6.21.91a19.74,19.74,0,0,1-2.26-.38,3.41,3.41,0,0,0-2.23.26c-.4.23-.72.59-1.11.83a8.64,8.64,0,0,1-1.36-1.58,5.83,5.83,0,0,0,2.37-.76c.81-.49,1.65-1.15,2.58-1a4.65,4.65,0,0,1,1.36.58,5.31,5.31,0,0,0,2.35.53,3,3,0,0,0,1.35-.28c.3-.16.56-.38.85-.55a5.12,5.12,0,0,1,2-.51,2.91,2.91,0,0,1,1,0,5.84,5.84,0,0,1,1.49.85A5.21,5.21,0,0,0,149.21,164.79Z" transform="translate(-5.19 -31.36)" fill="#fff"/><circle cx="129.37" cy="123.72" r="1.5" fill="#fff"/><circle cx="136" cy="123.3" r="1.5" fill="#fff"/><circle cx="141.54" cy="122.65" r="1.5" fill="#fff"/><path d="M130.1,155a1.51,1.51,0,0,1-1.52,1.49,1.27,1.27,0,0,1-.34,0,24.67,24.67,0,0,1,.49-3A1.51,1.51,0,0,1,130.1,155Z" transform="translate(-5.19 -31.36)" fill="#fff"/><path d="M130,162.46a.24.24,0,0,0-.19.27l0,.26a.43.43,0,0,0,0,.16.36.36,0,0,0,.37.19,2.49,2.49,0,0,0,.71-.19,7,7,0,0,1,2.09-.22c.14,0,.32,0,.39-.14.25-.45-1-.69-1.23-.7A4.8,4.8,0,0,0,130,162.46Z" transform="translate(-5.19 -31.36)" fill="#fff"/><path d="M137.93,161.89a1.17,1.17,0,0,0-.74.47.21.21,0,0,0,0,.17c0,.1.17.12.28.12l3.18-.08a.5.5,0,0,0,.53-.59c-.08-.31-.36-.35-.64-.38A6.42,6.42,0,0,0,137.93,161.89Z" transform="translate(-5.19 -31.36)" fill="#fff"/><path d="M145.68,161.3a5.23,5.23,0,0,0-1.48.11c-.13,0-.27.1-.3.23a.32.32,0,0,0,.13.31,1.43,1.43,0,0,0,.84.32c.31,0,.61,0,.92,0a4.26,4.26,0,0,0,2,.09l.09-.06c.25-.34-.36-.88-.65-1A5.75,5.75,0,0,0,145.68,161.3Z" transform="translate(-5.19 -31.36)" fill="#fff"/><path d="M170.28,159.82v.07a17.08,17.08,0,0,1-.24,2.76,13,13,0,0,1-1.61,4.52,1.48,1.48,0,0,1-.13.21,11,11,0,0,1-1.63,2.05,14,14,0,0,1-10.15,3.71,12.91,12.91,0,0,1-8.93-3.15,10.54,10.54,0,0,1-1.59-1.85,12.38,12.38,0,0,1-1.73-4.08,17.45,17.45,0,0,1-.46-4.37c0-.2,0-.4,0-.59,0-.53.06-1.07.11-1.62a31.16,31.16,0,0,1,.57-3.46c1.26-5.58,4.13-11.28,7.76-14.16a7.91,7.91,0,0,1,5-1.92C164.5,138,170.32,150.72,170.28,159.82Z" transform="translate(-5.19 -31.36)" fill="#68fded"/><path d="M170.28,159.82v.07a17.08,17.08,0,0,1-.24,2.76,13,13,0,0,1-1.61,4.52,1.48,1.48,0,0,1-.13.21,11,11,0,0,1-1.63,2.05,14,14,0,0,1-10.15,3.71,12.91,12.91,0,0,1-8.93-3.15,10.54,10.54,0,0,1-1.59-1.85,12.38,12.38,0,0,1-1.73-4.08,17.45,17.45,0,0,1-.46-4.37c0-.2,0-.4,0-.59,0-.53.06-1.07.11-1.62a31.16,31.16,0,0,1,.57-3.46c1.26-5.58,4.13-11.28,7.76-14.16a7.91,7.91,0,0,1,5-1.92C164.5,138,170.32,150.72,170.28,159.82Z" transform="translate(-5.19 -31.36)" fill="url(#linear-gradient-10)"/><path d="M170.27,159.89a14,14,0,0,1-2,7.49,14.76,14.76,0,0,1-8.79,2.56c-7.31-.06-12.79-4.35-12.72-13.46a31,31,0,0,1,5.47-16.62,7.88,7.88,0,0,1,5-1.92C164.52,138,170.34,150.78,170.27,159.89Z" transform="translate(-5.19 -31.36)" fill="#68fded"/><path d="M170.27,159.89a14,14,0,0,1-2,7.49,14.76,14.76,0,0,1-8.79,2.56c-7.31-.06-12.79-4.35-12.72-13.46a31,31,0,0,1,5.47-16.62,7.88,7.88,0,0,1,5-1.92C164.52,138,170.34,150.78,170.27,159.89Z" transform="translate(-5.19 -31.36)" fill="url(#linear-gradient-11)"/><polygon points="140.73 118 143.53 118.98 147.4 117.34 150.64 119.04 153.99 117.39 157.04 119.44 160.22 117.44 163.23 118.47 163.97 120.81 160.65 119.42 156.24 121.36 153.48 119.36 150.31 121.49 146.91 119.01 142.8 121.96 139.94 120.27 140.73 118" fill="#68fded"/><polygon points="140.73 118 143.53 118.98 147.4 117.34 150.64 119.04 153.99 117.39 157.04 119.44 160.22 117.44 163.23 118.47 163.97 120.81 160.65 119.42 156.24 121.36 153.48 119.36 150.31 121.49 146.91 119.01 142.8 121.96 139.94 120.27 140.73 118" fill="#fff"/><path d="M170.28,159.82v.07a17.08,17.08,0,0,1-.24,2.76,9.5,9.5,0,0,1-1.71-1.52,2.88,2.88,0,0,0-1.29-1,2,2,0,0,0-1.73.58c-.48.42-.86.94-1.37,1.32a3,3,0,0,1-2.5.49,8.27,8.27,0,0,1-2.24-1.17,3.41,3.41,0,0,0-2.4-.63c-1.22.27-1.88,1.56-2.88,2.28a3.53,3.53,0,0,1-4.21-.17c-.68-.58-1.23-1.47-2.12-1.53s-1.48.66-2,1.33a4.41,4.41,0,0,1-1.37,1.47,17.45,17.45,0,0,1-.46-4.37c0-.2,0-.4,0-.59l.05,0a2.88,2.88,0,0,1,3.48-.59c.63.36,1.09.94,1.68,1.35a3.6,3.6,0,0,0,3.14.44,6.41,6.41,0,0,0,2.84-2.43c.52-.69,1.67-.53,2.5-.28A5.69,5.69,0,0,1,159.7,159c.76.71,1.56,1.56,2.6,1.58a3,3,0,0,0,2.48-2,2.34,2.34,0,0,1,.76-1.12,2.14,2.14,0,0,1,.87-.21,3.17,3.17,0,0,1,2.43.42c.67.57.77,1.62,1.43,2.19Z" transform="translate(-5.19 -31.36)" fill="#fff" opacity="0.74"/><path d="M168.43,167.17a1.48,1.48,0,0,1-.13.21,11,11,0,0,1-1.63,2.05,7.13,7.13,0,0,1-2.11-.19c-1.09-.3-2.07-.93-3.18-1.14-2.42-.46-4.79,1.16-7.25,1.06-.89,0-1.75-.31-2.64-.44a3.93,3.93,0,0,0-2.6.3c-.47.27-.84.69-1.3,1a10.54,10.54,0,0,1-1.59-1.85,6.72,6.72,0,0,0,2.76-.88c1-.57,1.93-1.35,3-1.19a5.25,5.25,0,0,1,1.58.68,6.07,6.07,0,0,0,2.74.62,3.43,3.43,0,0,0,1.58-.33c.35-.18.65-.44,1-.64a5.94,5.94,0,0,1,2.4-.59,3.4,3.4,0,0,1,1.19,0,6.89,6.89,0,0,1,1.74,1A6.14,6.14,0,0,0,168.43,167.17Z" transform="translate(-5.19 -31.36)" fill="#fff"/><circle cx="146.13" cy="124.47" r="1.76" fill="#fff"/><circle cx="153.87" cy="123.98" r="1.76" fill="#fff"/><circle cx="160.34" cy="123.23" r="1.76" fill="#fff"/><path d="M146.1,155.79a1.75,1.75,0,0,1-2.17,1.69,31.16,31.16,0,0,1,.57-3.46A1.77,1.77,0,0,1,146.1,155.79Z" transform="translate(-5.19 -31.36)" fill="#fff"/><path d="M146,164.45a.41.41,0,0,0-.17.12.32.32,0,0,0-.05.19l0,.31a.61.61,0,0,0,0,.19c.05.17.26.23.43.22a3,3,0,0,0,.83-.22,8,8,0,0,1,2.44-.26c.17,0,.37,0,.45-.17.3-.52-1.11-.8-1.42-.81A5.58,5.58,0,0,0,146,164.45Z" transform="translate(-5.19 -31.36)" fill="#fff"/><path d="M155.24,163.78a1.44,1.44,0,0,0-.86.55.29.29,0,0,0,0,.2c0,.12.2.14.33.14l3.72-.09a.58.58,0,0,0,.61-.69c-.09-.36-.42-.4-.74-.44A7.37,7.37,0,0,0,155.24,163.78Z" transform="translate(-5.19 -31.36)" fill="#fff"/><path d="M164.3,163.1a6.26,6.26,0,0,0-1.73.13c-.15,0-.31.11-.35.26a.39.39,0,0,0,.16.37,1.65,1.65,0,0,0,1,.37c.36,0,.71,0,1.07.05a4.87,4.87,0,0,0,2.33.1.19.19,0,0,0,.11-.07c.3-.4-.42-1-.76-1.14A6.84,6.84,0,0,0,164.3,163.1Z" transform="translate(-5.19 -31.36)" fill="#fff"/><path d="M183.43,162.31v.06a16.71,16.71,0,0,1-.69,2.47,12,12,0,0,1-2.24,3.83l-.15.17a10.48,10.48,0,0,1-1.83,1.58,13,13,0,0,1-9.86,1.63,12,12,0,0,1-7.58-4.4,9.8,9.8,0,0,1-1.12-2,11.57,11.57,0,0,1-.88-4,17.09,17.09,0,0,1,.33-4l.12-.54c.11-.48.23-1,.38-1.45a25.42,25.42,0,0,1,1.11-3c2.1-4.86,5.68-9.54,9.47-11.54a7.35,7.35,0,0,1,4.83-.89C181.92,141.49,185,154,183.43,162.31Z" transform="translate(-5.19 -31.36)" fill="#68fded"/><path d="M183.43,162.31v.06a16.71,16.71,0,0,1-.69,2.47,12,12,0,0,1-2.24,3.83l-.15.17a10.48,10.48,0,0,1-1.83,1.58,13,13,0,0,1-9.86,1.63,12,12,0,0,1-7.58-4.4,9.8,9.8,0,0,1-1.12-2,11.57,11.57,0,0,1-.88-4,17.09,17.09,0,0,1,.33-4l.12-.54c.11-.48.23-1,.38-1.45a25.42,25.42,0,0,1,1.11-3c2.1-4.86,5.68-9.54,9.47-11.54a7.35,7.35,0,0,1,4.83-.89C181.92,141.49,185,154,183.43,162.31Z" transform="translate(-5.19 -31.36)" fill="url(#linear-gradient-12)"/><path d="M183.42,162.37a13.2,13.2,0,0,1-3.08,6.47,13.63,13.63,0,0,1-8.43.81c-6.63-1.3-10.87-6.14-9.24-14.4a28.64,28.64,0,0,1,7.81-14.17,7.34,7.34,0,0,1,4.83-.89C181.94,141.49,185,154.11,183.42,162.37Z" transform="translate(-5.19 -31.36)" fill="#68fded"/><path d="M183.42,162.37a13.2,13.2,0,0,1-3.08,6.47,13.63,13.63,0,0,1-8.43.81c-6.63-1.3-10.87-6.14-9.24-14.4a28.64,28.64,0,0,1,7.81-14.17,7.34,7.34,0,0,1,4.83-.89C181.94,141.49,185,154.11,183.42,162.37Z" transform="translate(-5.19 -31.36)" fill="url(#linear-gradient-13)"/><polygon points="157.91 117.26 160.28 118.64 164.08 117.81 166.73 119.91 170.05 118.99 172.48 121.37 175.71 120.1 178.27 121.56 178.54 123.8 175.75 121.97 171.42 122.98 169.26 120.69 166.01 122.08 163.34 119.24 159.11 121.22 156.8 119.19 157.91 117.26" fill="#68fded"/><polygon points="157.91 117.26 160.28 118.64 164.08 117.81 166.73 119.91 170.05 118.99 172.48 121.37 175.71 120.1 178.27 121.56 178.54 123.8 175.75 121.97 171.42 122.98 169.26 120.69 166.01 122.08 163.34 119.24 159.11 121.22 156.8 119.19 157.91 117.26" fill="#fff"/><path d="M183.43,162.31v.06a16.71,16.71,0,0,1-.69,2.47,9.15,9.15,0,0,1-1.29-1.68,2.67,2.67,0,0,0-1-1.17,1.83,1.83,0,0,0-1.67.23c-.5.3-.94.71-1.47,1a2.86,2.86,0,0,1-2.36,0,7.74,7.74,0,0,1-1.83-1.46,3.1,3.1,0,0,0-2.08-1c-1.14,0-2,1.09-3,1.57a3.26,3.26,0,0,1-3.8-.88c-.51-.64-.86-1.54-1.66-1.74a2.26,2.26,0,0,0-2,.87,4,4,0,0,1-1.5,1.1,17.09,17.09,0,0,1,.33-4l.12-.54,0,0a2.66,2.66,0,0,1,3.26.06c.51.43.83,1.05,1.3,1.52a3.31,3.31,0,0,0,2.77.93,5.91,5.91,0,0,0,3-1.71c.59-.55,1.61-.2,2.32.17a5.27,5.27,0,0,1,1.76,1.63c.56.78,1.14,1.69,2.08,1.89a2.84,2.84,0,0,0,2.61-1.43,2,2,0,0,1,.88-.88,1.75,1.75,0,0,1,.82,0,3,3,0,0,1,2.14.79c.51.64.42,1.61.92,2.25Z" transform="translate(-5.19 -31.36)" fill="#fff" opacity="0.74"/><path d="M180.49,168.67l-.15.17a10.48,10.48,0,0,1-1.83,1.58,6.44,6.44,0,0,1-1.88-.54c-.94-.45-1.73-1.2-2.7-1.58-2.12-.83-4.55.23-6.77-.28a22.36,22.36,0,0,1-2.32-.86,3.68,3.68,0,0,0-2.42-.16c-.47.16-.88.48-1.35.65a9.8,9.8,0,0,1-1.12-2,6.3,6.3,0,0,0,2.66-.33c1-.35,2-.89,2.95-.56a5.53,5.53,0,0,1,1.33.89,5.56,5.56,0,0,0,2.37,1,3.17,3.17,0,0,0,1.5,0c.35-.1.67-.29,1-.41a5.59,5.59,0,0,1,2.27-.13,3.36,3.36,0,0,1,1.09.22,6.16,6.16,0,0,1,1.41,1.2A5.63,5.63,0,0,0,180.49,168.67Z" transform="translate(-5.19 -31.36)" fill="#fff"/><circle cx="161.7" cy="124.07" r="1.62" fill="#fff"/><circle cx="168.82" cy="124.95" r="1.62" fill="#fff"/><circle cx="174.83" cy="125.38" r="1.62" fill="#fff"/><path d="M162.16,154.49a1.63,1.63,0,0,1-1.91,1.28,1.42,1.42,0,0,1-.35-.11,25.42,25.42,0,0,1,1.11-3A1.63,1.63,0,0,1,162.16,154.49Z" transform="translate(-5.19 -31.36)" fill="#fff"/><path d="M160.61,162.36a.4.4,0,0,0-.18.07.53.53,0,0,0-.08.17l-.07.27a.38.38,0,0,0,0,.18c0,.16.2.25.36.27a2.64,2.64,0,0,0,.79-.06,7.21,7.21,0,0,1,2.26.19c.15,0,.34,0,.44-.08.36-.42-.88-.92-1.16-1A5.24,5.24,0,0,0,160.61,162.36Z" transform="translate(-5.19 -31.36)" fill="#fff"/><path d="M169.09,163.32a1.3,1.3,0,0,0-.87.36.2.2,0,0,0-.07.17c0,.12.15.16.27.18l3.39.56a.54.54,0,0,0,.67-.52c0-.35-.3-.44-.59-.53A7,7,0,0,0,169.09,163.32Z" transform="translate(-5.19 -31.36)" fill="#fff"/><path d="M177.44,164.25a6.15,6.15,0,0,0-1.59-.17.42.42,0,0,0-.37.18.35.35,0,0,0,.08.36,1.56,1.56,0,0,0,.83.51c.32.09.65.13,1,.22.7.2,1.39.65,2.1.5a.22.22,0,0,0,.11,0c.35-.31-.2-1-.49-1.16A6.46,6.46,0,0,0,177.44,164.25Z" transform="translate(-5.19 -31.36)" fill="#fff"/><path d="M169.22,149.3a7,7,0,0,0,5.29,1.58,11.79,11.79,0,0,0-1.17,6.4,1,1,0,0,1-.12.77,1,1,0,0,1-.69.23l-6.15.36a.59.59,0,0,1-.39-.08.56.56,0,0,1-.15-.37c-.2-1.62-.05-3.27-.36-4.88-.27-1.38-.87-2.68-1.13-4.06-.17-.91-.29-4.1,1.34-3.69.56.14,1.23,1.44,1.6,1.87A13.64,13.64,0,0,0,169.22,149.3Z" transform="translate(-5.19 -31.36)" fill="url(#linear-gradient-14)"/><path d="M195.82,160.92V161a16.71,16.71,0,0,1-.69,2.47,12,12,0,0,1-2.24,3.83l-.15.17A10.08,10.08,0,0,1,190.9,169a12.92,12.92,0,0,1-9.86,1.63,12,12,0,0,1-7.58-4.39,9.64,9.64,0,0,1-1.11-2,11.13,11.13,0,0,1-.88-4,16.66,16.66,0,0,1,.33-4.05c0-.18.07-.36.11-.54.11-.47.23-1,.38-1.44a26.57,26.57,0,0,1,1.11-3c2.1-4.86,5.68-9.55,9.47-11.54a7.29,7.29,0,0,1,4.83-.9C194.32,140.1,197.42,152.66,195.82,160.92Z" transform="translate(-5.19 -31.36)" fill="#68fded"/><path d="M195.82,160.92V161a16.71,16.71,0,0,1-.69,2.47,12,12,0,0,1-2.24,3.83l-.15.17A10.08,10.08,0,0,1,190.9,169a12.92,12.92,0,0,1-9.86,1.63,12,12,0,0,1-7.58-4.39,9.64,9.64,0,0,1-1.11-2,11.13,11.13,0,0,1-.88-4,16.66,16.66,0,0,1,.33-4.05c0-.18.07-.36.11-.54.11-.47.23-1,.38-1.44a26.57,26.57,0,0,1,1.11-3c2.1-4.86,5.68-9.55,9.47-11.54a7.29,7.29,0,0,1,4.83-.9C194.32,140.1,197.42,152.66,195.82,160.92Z" transform="translate(-5.19 -31.36)" fill="url(#linear-gradient-15)"/><path d="M195.81,161a13.07,13.07,0,0,1-3.08,6.47,13.63,13.63,0,0,1-8.43.82c-6.63-1.31-10.87-6.14-9.24-14.41a28.73,28.73,0,0,1,7.81-14.16,7.29,7.29,0,0,1,4.83-.9C194.33,140.11,197.43,152.72,195.81,161Z" transform="translate(-5.19 -31.36)" fill="#68fded"/><path d="M195.81,161a13.07,13.07,0,0,1-3.08,6.47,13.63,13.63,0,0,1-8.43.82c-6.63-1.31-10.87-6.14-9.24-14.41a28.73,28.73,0,0,1,7.81-14.16,7.29,7.29,0,0,1,4.83-.9C194.33,140.11,197.43,152.72,195.81,161Z" transform="translate(-5.19 -31.36)" fill="url(#linear-gradient-16)"/><polygon points="170.3 115.88 172.67 117.25 176.47 116.43 179.12 118.52 182.45 117.6 184.87 119.98 188.1 118.72 190.66 120.17 190.93 122.42 188.15 120.59 183.81 121.59 181.65 119.31 178.4 120.7 175.74 117.86 171.5 119.83 169.19 117.81 170.3 115.88" fill="#68fded"/><polygon points="170.3 115.88 172.67 117.25 176.47 116.43 179.12 118.52 182.45 117.6 184.87 119.98 188.1 118.72 190.66 120.17 190.93 122.42 188.15 120.59 183.81 121.59 181.65 119.31 178.4 120.7 175.74 117.86 171.5 119.83 169.19 117.81 170.3 115.88" fill="#fff"/><path d="M195.82,160.92V161a16.71,16.71,0,0,1-.69,2.47,9.08,9.08,0,0,1-1.29-1.67,2.67,2.67,0,0,0-1-1.17,1.81,1.81,0,0,0-1.67.23c-.5.3-.93.71-1.46,1a2.82,2.82,0,0,1-2.36,0,7.55,7.55,0,0,1-1.84-1.45,3.15,3.15,0,0,0-2.07-1c-1.15,0-2,1.09-3,1.58a3.25,3.25,0,0,1-3.79-.88c-.52-.64-.87-1.55-1.66-1.75a2.31,2.31,0,0,0-2,.87,3.94,3.94,0,0,1-1.49,1.1,16.66,16.66,0,0,1,.33-4.05c0-.18.07-.36.11-.54a.08.08,0,0,1,0,0,2.66,2.66,0,0,1,3.27.06c.5.43.82,1,1.29,1.51a3.3,3.3,0,0,0,2.78.93,5.85,5.85,0,0,0,3-1.71c.6-.54,1.61-.19,2.32.18a5.27,5.27,0,0,1,1.76,1.63c.57.77,1.14,1.69,2.09,1.88a2.79,2.79,0,0,0,2.6-1.43,2.19,2.19,0,0,1,.88-.88,1.93,1.93,0,0,1,.83-.05,3,3,0,0,1,2.13.8c.51.64.42,1.6.93,2.24Z" transform="translate(-5.19 -31.36)" fill="#fff" opacity="0.74"/><path d="M192.88,167.28l-.15.17A10.08,10.08,0,0,1,190.9,169a6.15,6.15,0,0,1-1.88-.54c-.94-.45-1.73-1.2-2.7-1.58-2.12-.83-4.55.24-6.77-.28a20.21,20.21,0,0,1-2.32-.85,3.67,3.67,0,0,0-2.42-.17c-.47.17-.88.48-1.35.66a9.64,9.64,0,0,1-1.11-2A6.09,6.09,0,0,0,175,164c1-.36,2-.9,2.95-.56a5,5,0,0,1,1.33.88,5.53,5.53,0,0,0,2.38,1,3.26,3.26,0,0,0,1.49,0c.35-.11.67-.29,1-.41a5.64,5.64,0,0,1,2.28-.13,3.24,3.24,0,0,1,1.08.21,6.16,6.16,0,0,1,1.41,1.2A5.63,5.63,0,0,0,192.88,167.28Z" transform="translate(-5.19 -31.36)" fill="#fff"/><circle cx="174.09" cy="122.68" r="1.62" fill="#fff"/><circle cx="181.21" cy="123.56" r="1.62" fill="#fff"/><circle cx="187.22" cy="123.99" r="1.62" fill="#fff"/><path d="M174.55,153.11a1.63,1.63,0,0,1-1.91,1.28,1.42,1.42,0,0,1-.35-.11,26.57,26.57,0,0,1,1.11-3A1.62,1.62,0,0,1,174.55,153.11Z" transform="translate(-5.19 -31.36)" fill="#fff"/><path d="M173,161a.42.42,0,0,0-.18.08.29.29,0,0,0-.07.16l-.08.28a.47.47,0,0,0,0,.17c0,.16.2.25.36.28a3,3,0,0,0,.79-.06,7.52,7.52,0,0,1,2.26.18c.15,0,.34.05.44-.07.36-.42-.88-.92-1.16-1A5.24,5.24,0,0,0,173,161Z" transform="translate(-5.19 -31.36)" fill="#fff"/><path d="M181.49,161.94a1.36,1.36,0,0,0-.88.35.24.24,0,0,0-.07.18c0,.11.16.16.27.18l3.39.55a.54.54,0,0,0,.68-.52c0-.34-.31-.44-.6-.53A6.92,6.92,0,0,0,181.49,161.94Z" transform="translate(-5.19 -31.36)" fill="#fff"/><path d="M189.83,162.87a5.71,5.71,0,0,0-1.59-.18.42.42,0,0,0-.37.18.4.4,0,0,0,.09.37,1.52,1.52,0,0,0,.82.5c.32.09.65.14,1,.23.7.2,1.38.65,2.1.49l.11,0c.34-.32-.21-1-.5-1.17A6,6,0,0,0,189.83,162.87Z" transform="translate(-5.19 -31.36)" fill="#fff"/><path d="M168.42,164.83v.06a17.06,17.06,0,0,1-.69,2.47,12,12,0,0,1-2.24,3.83l-.15.16a10.55,10.55,0,0,1-1.83,1.59,13,13,0,0,1-9.86,1.63,12.06,12.06,0,0,1-7.58-4.4,10.09,10.09,0,0,1-1.12-1.95,11.4,11.4,0,0,1-.87-4,16.17,16.17,0,0,1,.33-4.05c0-.18.07-.35.11-.53.11-.48.23-1,.38-1.45a26.57,26.57,0,0,1,1.11-3c2.1-4.86,5.68-9.55,9.47-11.54a7.29,7.29,0,0,1,4.83-.9C166.92,144,170,156.56,168.42,164.83Z" transform="translate(-5.19 -31.36)" fill="#68fded"/><path d="M168.42,164.83v.06a17.06,17.06,0,0,1-.69,2.47,12,12,0,0,1-2.24,3.83l-.15.16a10.55,10.55,0,0,1-1.83,1.59,13,13,0,0,1-9.86,1.63,12.06,12.06,0,0,1-7.58-4.4,10.09,10.09,0,0,1-1.12-1.95,11.4,11.4,0,0,1-.87-4,16.17,16.17,0,0,1,.33-4.05c0-.18.07-.35.11-.53.11-.48.23-1,.38-1.45a26.57,26.57,0,0,1,1.11-3c2.1-4.86,5.68-9.55,9.47-11.54a7.29,7.29,0,0,1,4.83-.9C166.92,144,170,156.56,168.42,164.83Z" transform="translate(-5.19 -31.36)" fill="url(#linear-gradient-17)"/><path d="M168.41,164.89a13,13,0,0,1-3.08,6.46,13.63,13.63,0,0,1-8.43.82c-6.63-1.31-10.87-6.14-9.24-14.41a28.73,28.73,0,0,1,7.81-14.16,7.29,7.29,0,0,1,4.83-.9C166.93,144,170,156.62,168.41,164.89Z" transform="translate(-5.19 -31.36)" fill="#68fded"/><path d="M168.41,164.89a13,13,0,0,1-3.08,6.46,13.63,13.63,0,0,1-8.43.82c-6.63-1.31-10.87-6.14-9.24-14.41a28.73,28.73,0,0,1,7.81-14.16,7.29,7.29,0,0,1,4.83-.9C166.93,144,170,156.62,168.41,164.89Z" transform="translate(-5.19 -31.36)" fill="url(#linear-gradient-18)"/><polygon points="142.9 119.78 145.27 121.15 149.07 120.33 151.72 122.42 155.04 121.5 157.47 123.89 160.7 122.62 163.26 124.07 163.53 126.32 160.75 124.49 156.41 125.5 154.25 123.21 151 124.6 148.34 121.76 144.1 123.74 141.79 121.71 142.9 119.78" fill="#68fded"/><polygon points="142.9 119.78 145.27 121.15 149.07 120.33 151.72 122.42 155.04 121.5 157.47 123.89 160.7 122.62 163.26 124.07 163.53 126.32 160.75 124.49 156.41 125.5 154.25 123.21 151 124.6 148.34 121.76 144.1 123.74 141.79 121.71 142.9 119.78" fill="#fff"/><path d="M168.42,164.83v.06a17.06,17.06,0,0,1-.69,2.47,9.15,9.15,0,0,1-1.29-1.68,2.67,2.67,0,0,0-1-1.17,1.84,1.84,0,0,0-1.67.23c-.5.3-.93.71-1.46,1a2.86,2.86,0,0,1-2.36,0,7.59,7.59,0,0,1-1.84-1.46,3.15,3.15,0,0,0-2.07-1c-1.15,0-2,1.09-3,1.58a3.25,3.25,0,0,1-3.79-.88c-.52-.64-.87-1.54-1.66-1.75a2.29,2.29,0,0,0-2,.88,4,4,0,0,1-1.49,1.09,16.17,16.17,0,0,1,.33-4.05c0-.18.07-.35.11-.53l0,0a2.66,2.66,0,0,1,3.27.06c.5.43.82,1,1.29,1.52a3.35,3.35,0,0,0,2.78.93,5.94,5.94,0,0,0,3-1.72c.6-.54,1.61-.19,2.32.18a5.27,5.27,0,0,1,1.76,1.63c.57.77,1.14,1.69,2.08,1.88a2.8,2.8,0,0,0,2.61-1.43,2.19,2.19,0,0,1,.88-.88,2.06,2.06,0,0,1,.82-.05,3,3,0,0,1,2.14.8c.51.64.42,1.6.93,2.24Z" transform="translate(-5.19 -31.36)" fill="#fff" opacity="0.74"/><path d="M165.48,171.19l-.15.16a10.55,10.55,0,0,1-1.83,1.59,6.76,6.76,0,0,1-1.88-.54c-.94-.46-1.73-1.2-2.7-1.58-2.12-.84-4.55.23-6.77-.28a22.36,22.36,0,0,1-2.32-.86,3.67,3.67,0,0,0-2.42-.17c-.47.17-.88.48-1.35.66a10.09,10.09,0,0,1-1.12-1.95,6.3,6.3,0,0,0,2.66-.33c1-.36,2-.9,3-.56a5.08,5.08,0,0,1,1.33.89,5.78,5.78,0,0,0,2.38,1,3.26,3.26,0,0,0,1.49,0c.35-.1.67-.29,1-.41a5.63,5.63,0,0,1,2.28-.13,3.24,3.24,0,0,1,1.08.21,6.46,6.46,0,0,1,1.41,1.21A5.68,5.68,0,0,0,165.48,171.19Z" transform="translate(-5.19 -31.36)" fill="#fff"/><circle cx="146.69" cy="126.58" r="1.62" fill="#fff"/><circle cx="153.81" cy="127.47" r="1.62" fill="#fff"/><circle cx="159.82" cy="127.89" r="1.62" fill="#fff"/><path d="M147.15,157a1.63,1.63,0,0,1-1.91,1.28,1.42,1.42,0,0,1-.35-.11,26.57,26.57,0,0,1,1.11-3A1.62,1.62,0,0,1,147.15,157Z" transform="translate(-5.19 -31.36)" fill="#fff"/><path d="M145.6,164.87a.42.42,0,0,0-.18.08.33.33,0,0,0-.07.17l-.08.27a.51.51,0,0,0,0,.17c0,.17.2.26.36.28a3,3,0,0,0,.79-.06,7.52,7.52,0,0,1,2.26.18c.15,0,.34,0,.44-.07.36-.42-.88-.92-1.16-1A5.39,5.39,0,0,0,145.6,164.87Z" transform="translate(-5.19 -31.36)" fill="#fff"/><path d="M154.09,165.84a1.32,1.32,0,0,0-.88.36.23.23,0,0,0-.07.17c0,.12.16.16.27.18l3.39.55a.54.54,0,0,0,.68-.51c0-.35-.31-.44-.6-.53A6.75,6.75,0,0,0,154.09,165.84Z" transform="translate(-5.19 -31.36)" fill="#fff"/><path d="M162.43,166.77a5.35,5.35,0,0,0-1.59-.17c-.14,0-.31,0-.37.18a.39.39,0,0,0,.09.36,1.6,1.6,0,0,0,.82.51c.32.09.65.13,1,.22.71.2,1.39.65,2.11.49a.21.21,0,0,0,.11,0c.34-.32-.21-1-.5-1.17A6.35,6.35,0,0,0,162.43,166.77Z" transform="translate(-5.19 -31.36)" fill="#fff"/><path d="M242.67,236.6c3.64-.22,7.83-.86,9.67-4,1.09-1.87,1.06-4.21,2-6.13,1.59-3.09,5.33-4.29,8.7-5.15a375.81,375.81,0,0,1,96.06-11.67A58.24,58.24,0,0,1,332.93,235c-8.93,4.28-18.79,6.19-28.17,9.37-14.51,4.91-28.59,13-43.9,12.47-9.72-.33-18.94-4.15-28.44-6.26-12.07-2.69-24.56-2.62-36.92-2.54L86,248.75a28.54,28.54,0,0,1,29-12.27l-1.32-5.76c16.47-4.67,33.66-8.06,50.83-7.6,5.14.14,40.11-.4,27.91,10.89C208.78,237.14,226,237.61,242.67,236.6Z" transform="translate(-5.19 -31.36)" fill="url(#linear-gradient-19)"/><path d="M301.34,211.29a5.47,5.47,0,0,0,.54,2.35c1.38,2.88,5.06,4.54,7.66,6.1a64.22,64.22,0,0,0,9.73,4.9,10.46,10.46,0,0,1,4.08,2.28c1.6,1.73,1.73,4.31,2.37,6.58.47,1.67,1.95,3.55,3.56,2.9,1.11-.44,1.45-1.81,1.64-3a2.22,2.22,0,0,0,2.23-1.76,6.5,6.5,0,0,0-.17-3.06c1-.39,1.12-1.75,1.06-2.82q-.18-3.37-.52-6.75a11.6,11.6,0,0,0-1.17-4.7,4.22,4.22,0,0,0-4-2.32,16.35,16.35,0,0,0-2.22.71c-2.16.62-4.45-.24-6.54-1.08a29,29,0,0,1-6.28-3.14c-1.69-1.22-2.93-3.81-5.17-4a4.15,4.15,0,0,0-1.74.27,7.7,7.7,0,0,0-4.3,3.48A6.31,6.31,0,0,0,301.34,211.29Z" transform="translate(-5.19 -31.36)" fill="#68fded"/><path d="M301.34,211.29a5.47,5.47,0,0,0,.54,2.35c1.38,2.88,5.06,4.54,7.66,6.1a64.22,64.22,0,0,0,9.73,4.9,10.46,10.46,0,0,1,4.08,2.28c1.6,1.73,1.73,4.31,2.37,6.58.47,1.67,1.95,3.55,3.56,2.9,1.11-.44,1.45-1.81,1.64-3a2.22,2.22,0,0,0,2.23-1.76,6.5,6.5,0,0,0-.17-3.06c1-.39,1.12-1.75,1.06-2.82q-.18-3.37-.52-6.75a11.6,11.6,0,0,0-1.17-4.7,4.22,4.22,0,0,0-4-2.32,16.35,16.35,0,0,0-2.22.71c-2.16.62-4.45-.24-6.54-1.08a29,29,0,0,1-6.28-3.14c-1.69-1.22-2.93-3.81-5.17-4a4.15,4.15,0,0,0-1.74.27,7.7,7.7,0,0,0-4.3,3.48A6.31,6.31,0,0,0,301.34,211.29Z" transform="translate(-5.19 -31.36)" fill="url(#linear-gradient-20)"/><path d="M302,217.51a1.91,1.91,0,0,0,1.45.56,1.86,1.86,0,0,0,1-.69,26.83,26.83,0,0,0,5.9-11.56,3.5,3.5,0,0,0,.1-1.57,3.55,3.55,0,0,0-.76-1.33c-3.33-4.28-7.14-8.51-12.23-10.39-2.19-.81-4.74-1.12-6.79,0a7.93,7.93,0,0,0-2.68,2.57c-1.13,1.65-2.84,4.85-2.26,6.95.47,1.69,2.8,3.26,4,4.48A117,117,0,0,0,302,217.51Z" transform="translate(-5.19 -31.36)" fill="#68fded"/><path d="M302,217.51a1.91,1.91,0,0,0,1.45.56,1.86,1.86,0,0,0,1-.69,26.83,26.83,0,0,0,5.9-11.56,3.5,3.5,0,0,0,.1-1.57,3.55,3.55,0,0,0-.76-1.33c-3.33-4.28-7.14-8.51-12.23-10.39-2.19-.81-4.74-1.12-6.79,0a7.93,7.93,0,0,0-2.68,2.57c-1.13,1.65-2.84,4.85-2.26,6.95.47,1.69,2.8,3.26,4,4.48A117,117,0,0,0,302,217.51Z" transform="translate(-5.19 -31.36)" fill="url(#linear-gradient-21)"/><path d="M326.16,168.41a4.7,4.7,0,0,1,1.95-1.88,3.3,3.3,0,0,1,3.63,1.15,7.9,7.9,0,0,1,1.47,3.75c.55,3.08.53,6.49-1.25,9.06a6.07,6.07,0,0,1-1,11.5,5.68,5.68,0,0,1-7.52,7.25,5.19,5.19,0,0,1-2.35,5.43,8.66,8.66,0,0,1-6.08,1A13.54,13.54,0,0,1,304.87,198a6.12,6.12,0,0,1-.62-2.58,7.35,7.35,0,0,1,1-3c1.34-2.65,2.66-6,4.69-8.2,1.38-1.49,3.1-1.82,4.86-2.68C320.23,178.85,322.9,173.19,326.16,168.41Z" transform="translate(-5.19 -31.36)" fill="#68fded"/><path d="M326.16,168.41a4.7,4.7,0,0,1,1.95-1.88,3.3,3.3,0,0,1,3.63,1.15,7.9,7.9,0,0,1,1.47,3.75c.55,3.08.53,6.49-1.25,9.06a6.07,6.07,0,0,1-1,11.5,5.68,5.68,0,0,1-7.52,7.25,5.19,5.19,0,0,1-2.35,5.43,8.66,8.66,0,0,1-6.08,1A13.54,13.54,0,0,1,304.87,198a6.12,6.12,0,0,1-.62-2.58,7.35,7.35,0,0,1,1-3c1.34-2.65,2.66-6,4.69-8.2,1.38-1.49,3.1-1.82,4.86-2.68C320.23,178.85,322.9,173.19,326.16,168.41Z" transform="translate(-5.19 -31.36)" fill="url(#linear-gradient-22)"/><path d="M309.83,172.94s5.59,18.58-1.93,29.07c-6.13,8.54-23.17,8.54-23.17,8.54s-24.89,3.65-18-31.23Z" transform="translate(-5.19 -31.36)" fill="#68fded"/><path d="M309.83,172.94s5.59,18.58-1.93,29.07c-6.13,8.54-23.17,8.54-23.17,8.54s-24.89,3.65-18-31.23Z" transform="translate(-5.19 -31.36)" fill="url(#linear-gradient-23)"/><polygon points="85.07 134.64 180.59 128.21 172.03 179.19 99.2 184.33 85.07 134.64" fill="#68fded"/><polygon points="85.07 134.64 180.59 128.21 172.03 179.19 99.2 184.33 85.07 134.64" fill="url(#linear-gradient-24)"/><polygon points="248.47 120.22 164.57 127.31 164.57 134.98 248.47 128.21 248.47 120.22" fill="#68fded"/><polygon points="93.42 163.99 175.55 158.19 173.91 167.98 95.85 172.53 93.42 163.99" fill="url(#linear-gradient-25)"/><polygon points="88.64 147.22 178.33 140.13 176.68 149.92 91.08 155.77 88.64 147.22" fill="url(#linear-gradient-26)"/><path d="M174.93,213.87a30.75,30.75,0,1,0-32.75,30.67v.07h4v-.07A30.77,30.77,0,0,0,174.93,213.87ZM149,217h21a26,26,0,0,1-6.6,14.42Zm-24.07,14.42a26,26,0,0,1-6.6-14.42h21Zm39.49-33.84A25.84,25.84,0,0,1,170.19,213H149Zm-18.25,12.59V187.92a26,26,0,0,1,15.51,6.7Zm-4,0-15.5-15.51a26,26,0,0,1,15.5-6.7ZM139.36,213H118.18a25.89,25.89,0,0,1,5.75-15.42Zm-11.51,21.16,14.33-14.33v20A25.94,25.94,0,0,1,127.85,234.12Zm18.33-14.33,14.34,14.33a26,26,0,0,1-14.34,5.7Z" transform="translate(-5.19 -31.36)" fill="#68fded"/><path d="M174.93,213.87a30.75,30.75,0,1,0-32.75,30.67v.07h4v-.07A30.77,30.77,0,0,0,174.93,213.87ZM149,217h21a26,26,0,0,1-6.6,14.42Zm-24.07,14.42a26,26,0,0,1-6.6-14.42h21Zm39.49-33.84A25.84,25.84,0,0,1,170.19,213H149Zm-18.25,12.59V187.92a26,26,0,0,1,15.51,6.7Zm-4,0-15.5-15.51a26,26,0,0,1,15.5-6.7ZM139.36,213H118.18a25.89,25.89,0,0,1,5.75-15.42Zm-11.51,21.16,14.33-14.33v20A25.94,25.94,0,0,1,127.85,234.12Zm18.33-14.33,14.34,14.33a26,26,0,0,1-14.34,5.7Z" transform="translate(-5.19 -31.36)" fill="url(#linear-gradient-27)"/><path d="M172.12,214.19a30.74,30.74,0,1,0-32.74,30.67v.07h4v-.07A30.78,30.78,0,0,0,172.12,214.19Zm-25.91,3.08h21a25.86,25.86,0,0,1-6.59,14.42Zm-24.08,14.42a25.92,25.92,0,0,1-6.59-14.42h21Zm39.5-33.84a25.93,25.93,0,0,1,5.76,15.42H146.21Zm-18.25,12.6V188.24a26,26,0,0,1,15.51,6.7Zm-4,0-15.51-15.51a26,26,0,0,1,15.51-6.7Zm-2.83,2.82H115.37a26,26,0,0,1,5.76-15.42Zm-11.5,21.17,14.33-14.34v20A25.85,25.85,0,0,1,125.05,234.44Zm18.33-14.34,14.34,14.34a25.89,25.89,0,0,1-14.34,5.69Z" transform="translate(-5.19 -31.36)" fill="#68fded"/><path d="M172.12,214.19a30.74,30.74,0,1,0-32.74,30.67v.07h4v-.07A30.78,30.78,0,0,0,172.12,214.19Zm-25.91,3.08h21a25.86,25.86,0,0,1-6.59,14.42Zm-24.08,14.42a25.92,25.92,0,0,1-6.59-14.42h21Zm39.5-33.84a25.93,25.93,0,0,1,5.76,15.42H146.21Zm-18.25,12.6V188.24a26,26,0,0,1,15.51,6.7Zm-4,0-15.51-15.51a26,26,0,0,1,15.51-6.7Zm-2.83,2.82H115.37a26,26,0,0,1,5.76-15.42Zm-11.5,21.17,14.33-14.34v20A25.85,25.85,0,0,1,125.05,234.44Zm18.33-14.34,14.34,14.34a25.89,25.89,0,0,1-14.34,5.69Z" transform="translate(-5.19 -31.36)" fill="url(#linear-gradient-28)"/><rect x="86.79" y="160.97" width="102.37" height="7.65" transform="translate(-16.7 -21) rotate(-4.13)" fill="#68fded"/><polygon points="248.47 128.21 82.01 140.94 81.46 133.31 247.92 120.58 248.47 128.21" fill="url(#linear-gradient-29)"/><circle cx="136.19" cy="183.86" r="2.82" fill="url(#linear-gradient-30)"/><polygon points="172.03 179.19 183.76 172.53 192.01 132.53 178.33 133.87 172.03 179.19" fill="#68fded"/><polygon points="172.03 179.19 183.76 172.53 192.01 132.53 178.33 133.87 172.03 179.19" fill="url(#linear-gradient-31)"/><path d="M283.41,132.12a9.62,9.62,0,0,0,.14,2.94,4.24,4.24,0,0,0,2.71,2.53,12.37,12.37,0,0,0,3.79.54,5.67,5.67,0,0,0,2.56-.28c1.35-.59,2-2.08,2.58-3.44l4-9.72c.17-.4.28-1-.11-1.19a.94.94,0,0,0-.5-.06,79.66,79.66,0,0,0-12.56,2C280.76,126.68,283.41,127.86,283.41,132.12Z" transform="translate(-5.19 -31.36)" fill="#68fded"/><path d="M283.41,132.12a9.62,9.62,0,0,0,.14,2.94,4.24,4.24,0,0,0,2.71,2.53,12.37,12.37,0,0,0,3.79.54,5.67,5.67,0,0,0,2.56-.28c1.35-.59,2-2.08,2.58-3.44l4-9.72c.17-.4.28-1-.11-1.19a.94.94,0,0,0-.5-.06,79.66,79.66,0,0,0-12.56,2C280.76,126.68,283.41,127.86,283.41,132.12Z" transform="translate(-5.19 -31.36)" fill="url(#linear-gradient-32)"/><path d="M282.93,94.86c-.34-3.5-1.39-7.25-4.23-9.32A9.17,9.17,0,0,0,275,84c-1.35-.26-2.84-.32-3.89-1.2-1.51-1.25-1.4-3.75-.23-5.33a9.12,9.12,0,0,1,5-2.91,26.58,26.58,0,0,1,10.16-.8,9.62,9.62,0,0,1,3.69,1,8.42,8.42,0,0,1,3.38,4.36c2.16,5.55.77,11.77-.64,17.56l-1.88,7.68a1.41,1.41,0,0,1-.45.87,1.35,1.35,0,0,1-.93.15c-2.1-.15-5.72.36-6.22-2.1C282.48,100.73,283.19,97.57,282.93,94.86Z" transform="translate(-5.19 -31.36)" fill="#68fded"/><path d="M292.47,96.74q-.93,3.84-1.88,7.68a1.37,1.37,0,0,1-.45.87,1.4,1.4,0,0,1-.93.15c-.57,0-1.26,0-2,0-1.87,0-3.88-.27-4.24-2-.53-2.61.19-5.78-.08-8.48-.34-3.5-1.38-7.25-4.22-9.32A9.21,9.21,0,0,0,275,84c-.63-.12-1.29-.2-1.91-.34a4.33,4.33,0,0,1-2-.86c-1.51-1.25-1.4-3.76-.23-5.33a9.09,9.09,0,0,1,5-2.91,26.4,26.4,0,0,1,10.16-.8,9.57,9.57,0,0,1,3.69,1,8.36,8.36,0,0,1,3.39,4.35C295.28,84.73,293.89,91,292.47,96.74Z" transform="translate(-5.19 -31.36)" fill="url(#linear-gradient-33)"/><path d="M289.79,98.6c-.16,1.91-.45,5.9-2.55,6.79-1.87,0-3.88-.27-4.24-2-.53-2.61.19-5.78-.08-8.48-.34-3.5-1.38-7.25-4.22-9.32a8.64,8.64,0,0,0-2.61-1.26c-.71-.22-2.15-.14-2.4-1,1.56-1.21,4.89-1.22,6.81-1.19a8.81,8.81,0,0,1,2.89.43,8,8,0,0,1,4.44,4.54c.83,1.92.9,3.92,1.41,5.9A16,16,0,0,1,289.79,98.6Z" transform="translate(-5.19 -31.36)" fill="#68fded"/><path d="M297.73,98.32c.53-2.15,1-4.38,1.53-6.55a72,72,0,0,0,2.23-17.72,5.68,5.68,0,0,1,.72-3.42,4.75,4.75,0,0,1,2.86-1.49,5,5,0,0,1,2.3-.11,4.09,4.09,0,0,1,2.54,2.41,24,24,0,0,1,1,3.48c.77,2.88,2.28,5.53,3,8.42,1.85,7-4.06,15.1-8,20.43l-4.7,6.36a1.06,1.06,0,0,1-1.66.41c-1.88-1-5.42-1.87-4.93-4.33s2.22-4.67,2.87-7.16Z" transform="translate(-5.19 -31.36)" fill="#68fded"/><path d="M306,103.77l-4.7,6.36a1.43,1.43,0,0,1-.75.63,1.4,1.4,0,0,1-.92-.22c-1.35-.69-3.59-1.36-4.52-2.62a2.08,2.08,0,0,1-.4-1.72c.51-2.56,2.22-4.66,2.87-7.15l.18-.73c.53-2.15,1-4.39,1.53-6.55a72.55,72.55,0,0,0,2.23-17.72,8.08,8.08,0,0,1,.25-2.46,3,3,0,0,1,.47-1,4.73,4.73,0,0,1,2.86-1.5,5,5,0,0,1,2.3-.1,4.05,4.05,0,0,1,2.53,2.41,21.86,21.86,0,0,1,1,3.47c.77,2.89,2.29,5.54,3.05,8.43C315.8,90.32,309.9,98.44,306,103.77Z" transform="translate(-5.19 -31.36)" fill="url(#linear-gradient-34)"/><path d="M302.09,102.5c-1,1.56-2,4.53-3.45,5.67-1.05.87-2.41.45-3.56-.25a2.08,2.08,0,0,1-.4-1.72c.51-2.56,2.22-4.66,2.87-7.15l.18-.73c.53-2.15,1-4.39,1.53-6.55a72.55,72.55,0,0,0,2.23-17.72,8.08,8.08,0,0,1,.25-2.46,6,6,0,0,1,4.74,3.22,13.46,13.46,0,0,1,1.38,6A37.92,37.92,0,0,1,302.09,102.5Z" transform="translate(-5.19 -31.36)" fill="#68fded"/><path d="M289.79,98.6c-.16,1.91-.45,5.9-2.55,6.79-1.87,0-3.88-.27-4.24-2-.53-2.61.19-5.78-.08-8.48-.34-3.5-1.38-7.25-4.22-9.32a8.64,8.64,0,0,0-2.61-1.26c-.71-.22-2.15-.14-2.4-1,1.56-1.21,4.89-1.22,6.81-1.19a8.81,8.81,0,0,1,2.89.43,8,8,0,0,1,4.44,4.54c.83,1.92.9,3.92,1.41,5.9A16,16,0,0,1,289.79,98.6Z" transform="translate(-5.19 -31.36)" fill="url(#linear-gradient-35)"/><path d="M302.09,102.5c-1,1.56-2,4.53-3.45,5.67-1.05.87-2.41.45-3.56-.25a2.08,2.08,0,0,1-.4-1.72c.51-2.56,2.22-4.66,2.87-7.15l.18-.73c.53-2.15,1-4.39,1.53-6.55a72.55,72.55,0,0,0,2.23-17.72,8.08,8.08,0,0,1,.25-2.46,6,6,0,0,1,4.74,3.22,13.46,13.46,0,0,1,1.38,6A37.92,37.92,0,0,1,302.09,102.5Z" transform="translate(-5.19 -31.36)" fill="url(#linear-gradient-36)"/><path d="M274.13,107.49c-2.88,1.86-5.66,4.27-6.64,7.56a10,10,0,0,0,1.53,8.41,12.84,12.84,0,0,0,7.2,4.83,29.61,29.61,0,0,0,8.09.63l7.24-.09a14.3,14.3,0,0,0,4.38-.52c4.2-1.42,6.09-6.36,6.36-10.79a10.12,10.12,0,0,0-.72-5.09,10.33,10.33,0,0,0-3.39-3.66C289.92,102.7,282.66,102,274.13,107.49Z" transform="translate(-5.19 -31.36)" fill="#68fded"/><path d="M274.13,107.49c-2.88,1.86-5.66,4.27-6.64,7.56a10,10,0,0,0,1.53,8.41,12.84,12.84,0,0,0,7.2,4.83,29.61,29.61,0,0,0,8.09.63l7.24-.09a14.3,14.3,0,0,0,4.38-.52c4.2-1.42,6.09-6.36,6.36-10.79a10.12,10.12,0,0,0-.72-5.09,10.33,10.33,0,0,0-3.39-3.66C289.92,102.7,282.66,102,274.13,107.49Z" transform="translate(-5.19 -31.36)" fill="url(#linear-gradient-37)"/><path d="M271.94,110.84a2.06,2.06,0,0,0-1.13,0,.87.87,0,0,0-.27.14,1.55,1.55,0,0,0-.42,1.62,4.63,4.63,0,0,0,.89,1.51l.67.86a1.48,1.48,0,0,0,.33.33,1.08,1.08,0,0,0,.59.14,5.44,5.44,0,0,0,2.7-.86c1.27-.7,1.76-2,.29-2.86A10.84,10.84,0,0,0,271.94,110.84Z" transform="translate(-5.19 -31.36)" fill="#68fded"/><path d="M271.94,110.84a2.06,2.06,0,0,0-1.13,0,.87.87,0,0,0-.27.14,1.55,1.55,0,0,0-.42,1.62,4.63,4.63,0,0,0,.89,1.51l.67.86a1.48,1.48,0,0,0,.33.33,1.08,1.08,0,0,0,.59.14,5.44,5.44,0,0,0,2.7-.86c1.27-.7,1.76-2,.29-2.86A10.84,10.84,0,0,0,271.94,110.84Z" transform="translate(-5.19 -31.36)" fill="url(#linear-gradient-38)"/><circle cx="281.13" cy="81.96" r="1.6" fill="#68fded"/><circle cx="281.13" cy="81.96" r="1.6" fill="url(#linear-gradient-39)"/><path d="M306.63,177.49a10.21,10.21,0,0,1-.85.9c-3.08,2.89-7.53,3.71-11.73,4.19a129.59,129.59,0,0,1-25.22.42c-3.89-.31-1.33-4.57-.75-7q1.29-5.46,2.82-10.88c.67-2.34,1.36-4.68,2.1-7,.45-1.43.91-2.86,1.39-4.29q1.58-4.71,3.33-9.35a18,18,0,0,1,2.79-5.36,11.11,11.11,0,0,0,1.23-1.51c.66-1.12.66-2.52,1.19-3.71a5.69,5.69,0,0,0,5.28,2.27,8.3,8.3,0,0,0,1-.14c2.64-.58,5.18-3.78,7.68-3.58,3,.24,4,3.92,5.05,6.18.6,1.24,1.17,2.5,1.7,3.77a89.12,89.12,0,0,1,5.44,17.76C310.24,166.07,310.48,173,306.63,177.49Z" transform="translate(-5.19 -31.36)" fill="#68fded"/><path d="M306.63,177.49a5.16,5.16,0,0,1-3.17.81c-2.74-.34-4.15-3.42-4.87-6.09-.55-2-1-4.06-1.36-6.12s-.74-4.38-2.37-5.74c-2.16-1.78-5.37-1-8-.18a11.3,11.3,0,0,1-4.12.76,3.72,3.72,0,0,1-3.31-2.23,42.25,42.25,0,0,1-5.92,1.84,9.22,9.22,0,0,1-.47-2.45,6.12,6.12,0,0,1,1.39-4.29,42.61,42.61,0,0,1,4.78-4.55A32.45,32.45,0,0,1,285,144.7a27.68,27.68,0,0,1,10.14-2.81c2.85-.36,5.92-.55,8.55.48a89.12,89.12,0,0,1,5.44,17.76C310.24,166.07,310.48,173,306.63,177.49Z" transform="translate(-5.19 -31.36)" fill="url(#linear-gradient-40)"/><rect x="269.29" y="117.66" width="5.47" height="1" transform="translate(94.46 328.14) rotate(-77.94)" fill="#68fded"/><path d="M274.6,121.89a8.74,8.74,0,0,1-7.38-3.47l.85-.52c.13.2,3.25,5,11.3,2.07l.34.94A14.91,14.91,0,0,1,274.6,121.89Z" transform="translate(-5.19 -31.36)" fill="#68fded"/><path d="M274.7,143.85a3.57,3.57,0,0,0-1.11.58c-.91.81-.7,2.26-.42,3.45a16,16,0,0,0,1.42,4.21,5.52,5.52,0,0,0,3.31,2.8,8.78,8.78,0,0,0,4.61-.6c3-.9,6.05-1.61,8.74-3.16s5-4.16,5.24-7.26C297.41,132,279.3,142.13,274.7,143.85Z" transform="translate(-5.19 -31.36)" fill="#68fded"/><path d="M275.27,146.22c-.33-.34-7.14,2.53-7.95,2.8q-4.12,1.35-8.31,2.54c-2.47.69-5.06,1.7-7.63,1.85a26.91,26.91,0,0,1-8.58-1.26c-3.76-1-7.65-2.15-11.48-1.49-.92.16-2,.65-2,1.58a4.48,4.48,0,0,0,.27,1.18c.35,1.42-1.93,2.35-2.87,3-1.64,1-3.34,2.57-3.21,4.5.17,2.38,3,3.63,5.33,3.74,5.53.25,10.76-2.78,16.3-2.85,2.56,0,5.1.58,7.66.73,8.12.5,15.77-3.5,22.92-7.39a5.89,5.89,0,0,0,2-1.52,4,4,0,0,0,.21-3.91A13.33,13.33,0,0,0,275.27,146.22Z" transform="translate(-5.19 -31.36)" fill="#68fded"/><path d="M275.27,146.22c-.33-.34-7.16,2.54-8,2.81-2.76.91-5.54,1.75-8.33,2.54a31.64,31.64,0,0,1-16.56.27c-4-1-8.08-2.35-12.18-1.8a3.42,3.42,0,0,0-1.71.6,1.4,1.4,0,0,0-.48,1.63c.32.63,1.22.9,1.3,1.59.06.5-.35.91-.74,1.22-1.9,1.54-5.34,2.77-5.13,5.79.17,2.38,3,3.63,5.33,3.74,5.53.25,10.76-2.78,16.3-2.85,2.56,0,5.1.58,7.66.73,8.12.5,15.77-3.5,22.92-7.39a5.89,5.89,0,0,0,2-1.52,4,4,0,0,0,.21-3.91A13.33,13.33,0,0,0,275.27,146.22Z" transform="translate(-5.19 -31.36)" fill="url(#linear-gradient-41)"/><path d="M271,214.28a1.7,1.7,0,0,0,1,2.66,31.77,31.77,0,0,0,15.13,2.46,4,4,0,0,0,1.81-.46,4.45,4.45,0,0,0,1.22-1.33c3.6-5.29,7-11.1,7.26-17.5.12-2.75-.45-5.73-2.44-7.65a9.4,9.4,0,0,0-3.84-2.08c-2.27-.68-6.49-1.44-8.64,0-1.72,1.14-2.66,4.32-3.6,6.09A137.87,137.87,0,0,0,271,214.28Z" transform="translate(-5.19 -31.36)" fill="#68fded"/><path d="M271,214.28a1.7,1.7,0,0,0,1,2.66,31.77,31.77,0,0,0,15.13,2.46,4,4,0,0,0,1.81-.46,4.45,4.45,0,0,0,1.22-1.33c3.6-5.29,7-11.1,7.26-17.5.12-2.75-.45-5.73-2.44-7.65a9.4,9.4,0,0,0-3.84-2.08c-2.27-.68-6.49-1.44-8.64,0-1.72,1.14-2.66,4.32-3.6,6.09A137.87,137.87,0,0,0,271,214.28Z" transform="translate(-5.19 -31.36)" fill="url(#linear-gradient-42)"/><path d="M277.77,211.26a6.56,6.56,0,0,0-2.45,1.45c-2.73,2.59-3.28,7.33-4.09,10.82a74.75,74.75,0,0,0-2,12.7,12.4,12.4,0,0,1-1.1,5.41c-1.37,2.43-4.21,3.51-6.53,5.05-1.71,1.13-3.29,3.47-2,5.05.9,1.08,2.57,1,4,.76a2.64,2.64,0,0,0,2.78,1.87,7.73,7.73,0,0,0,3.37-1.3c.81,1,2.37.63,3.56.18q3.74-1.42,7.39-3a13.81,13.81,0,0,0,4.87-3,5,5,0,0,0,1.17-5.31,19.1,19.1,0,0,0-1.59-2.25c-1.48-2.21-1.35-5.08-1.16-7.74a34.43,34.43,0,0,1,1.27-8.2c.76-2.33,3.22-4.67,2.67-7.27a4.88,4.88,0,0,0-.92-1.85,9.11,9.11,0,0,0-5.47-3.58A7.5,7.5,0,0,0,277.77,211.26Z" transform="translate(-5.19 -31.36)" fill="#68fded"/><path d="M277.77,211.26a6.56,6.56,0,0,0-2.45,1.45c-2.73,2.59-3.28,7.33-4.09,10.82a74.75,74.75,0,0,0-2,12.7,12.4,12.4,0,0,1-1.1,5.41c-1.37,2.43-4.21,3.51-6.53,5.05-1.71,1.13-3.29,3.47-2,5.05.9,1.08,2.57,1,4,.76a2.64,2.64,0,0,0,2.78,1.87,7.73,7.73,0,0,0,3.37-1.3c.81,1,2.37.63,3.56.18q3.74-1.42,7.39-3a13.81,13.81,0,0,0,4.87-3,5,5,0,0,0,1.17-5.31,19.1,19.1,0,0,0-1.59-2.25c-1.48-2.21-1.35-5.08-1.16-7.74a34.43,34.43,0,0,1,1.27-8.2c.76-2.33,3.22-4.67,2.67-7.27a4.88,4.88,0,0,0-.92-1.85,9.11,9.11,0,0,0-5.47-3.58A7.5,7.5,0,0,0,277.77,211.26Z" transform="translate(-5.19 -31.36)" fill="url(#linear-gradient-43)"/></svg>