<svg width="133" height="125" viewBox="0 0 133 125" fill="none" xmlns="http://www.w3.org/2000/svg">
<path d="M62.174 27.2745C64.5187 37.0389 59.9544 46.5976 51.9789 48.624C44.0045 50.6515 35.639 44.3786 33.2953 34.6143C30.9507 24.8489 35.515 15.2902 43.4904 13.2638C51.4649 11.2364 59.8303 17.5092 62.174 27.2745ZM11.6762 66.4495C17.44 74.1712 27.3928 76.2585 33.9059 71.1113C40.419 65.9642 41.0256 55.5321 35.2609 47.8104C29.4972 40.0887 19.5444 38.0015 13.0313 43.1486C6.51814 48.2957 5.91154 58.7278 11.6762 66.4495ZM70.9648 27.2745C68.6211 37.0389 73.1854 46.5976 81.1599 48.624C89.1344 50.6515 97.4998 44.3786 99.8445 34.6143C102.188 24.8489 97.6239 15.2902 89.6494 13.2638C81.6749 11.2364 73.3095 17.5092 70.9648 27.2745ZM121.464 66.4495C115.699 74.1712 105.746 76.2585 99.2339 71.1113C92.7208 65.9642 92.1142 55.5321 97.8779 47.8104C103.643 40.0887 113.595 38.0015 120.109 43.1486C126.621 48.2957 127.228 58.7278 121.464 66.4495ZM50.6613 80.8828C50.4506 80.589 50.2281 80.442 49.9937 80.442C49.5732 80.442 49.2216 80.9345 48.941 81.9173C48.8947 82.049 48.7243 82.5708 48.4319 83.4797C47.9405 84.9772 47.6953 85.8719 47.6953 86.1657C47.6953 86.5325 47.9641 86.7159 48.5028 86.7159H51.9425C52.5737 86.7159 52.8898 86.5396 52.8898 86.188C52.8898 85.7037 52.4506 84.5152 51.5732 82.6215C51.1754 81.7562 50.8711 81.1766 50.6613 80.8828Z" fill="white"/>
<path fill-rule="evenodd" clip-rule="evenodd" d="M99.0597 106.173C89.2123 116.524 80.3496 109.692 76.8045 107.828C74.641 106.69 71.4465 105.163 66.957 105.279C62.4685 105.163 59.274 106.69 57.1096 107.828C53.5645 109.692 44.7018 116.524 34.8553 106.173C25.0078 95.8206 32.098 81.9487 32.098 81.9487C32.098 81.9487 42.7057 62.2812 52.2794 53.0437C52.434 52.8947 52.5856 52.7448 52.7324 52.5877C53.5615 51.6951 57.7674 47.5814 64.7906 47.5814C65.5459 47.547 66.2647 47.5297 66.957 47.5267C67.6503 47.5297 68.3691 47.547 69.1235 47.5814C76.1476 47.5814 80.3535 51.6951 81.1827 52.5877C81.3294 52.7448 81.481 52.8947 81.6356 53.0437C91.2093 62.2812 101.817 81.9487 101.817 81.9487C101.817 81.9487 108.907 95.8206 99.0597 106.173ZM67.0515 96.5998C67.0515 95.6899 66.6311 95.1539 65.7881 94.9928C65.3558 94.9047 65.0338 94.7324 64.8231 94.4751C64.6123 94.2187 64.3494 93.6797 64.0333 92.858L60.7167 83.9427C57.8619 76.297 55.6856 71.6818 54.1888 70.0961C53.1115 68.937 51.983 68.3574 50.8013 68.3574C49.5497 68.3574 48.5196 68.8711 47.7131 69.8985C47.3271 70.3676 47.078 70.8489 46.9667 71.3403C46.8554 71.8317 46.7943 72.7082 46.7825 73.9706C46.7707 75.1591 46.6102 76.374 46.3 77.6141C45.9898 78.8543 45.3783 80.7217 44.4664 83.2162L41.9917 90.0179C41.266 92.014 40.7076 93.3159 40.3157 93.9249C39.9238 94.5338 39.3477 95.007 38.5875 95.3444C38.1187 95.5511 37.7948 95.7781 37.6136 96.0273C37.4314 96.2766 37.3418 96.6292 37.3418 97.0841C37.3418 98.1257 37.7504 98.8005 38.5697 99.1095C39.459 99.4317 40.8514 99.5938 42.7461 99.5938C46.0804 99.5938 47.7476 98.7204 47.7476 96.9737C47.7476 96.1813 47.3911 95.6534 46.6772 95.389C46.1277 95.1691 45.8027 95.0111 45.7032 94.9158C45.6038 94.8206 45.5546 94.6108 45.5546 94.2886C45.5546 93.936 45.6245 93.5692 45.7643 93.1873C45.9051 92.8063 46.0686 92.5418 46.2557 92.3949C46.56 92.1609 47.4906 92.0434 49.0465 92.0434C50.8948 92.0434 52.3286 92.1315 53.3459 92.3068C54.2932 92.4831 54.7678 93.0626 54.7678 94.0465C54.7678 94.6037 54.4921 94.9999 53.9426 95.235C53.4512 95.4407 53.1144 95.6636 52.9333 95.9067C52.7521 96.1479 52.6615 96.4893 52.6615 96.9301C52.6615 97.5026 52.8338 97.9899 53.1794 98.3932C53.5241 98.7974 53.9889 99.0649 54.5748 99.1967C55.8491 99.4753 57.8087 99.6151 60.4538 99.6151C62.7935 99.6151 64.4774 99.38 65.5075 98.9109C66.5365 98.4418 67.0515 97.6707 67.0515 96.5998ZM91.0587 75.071C91.0587 73.076 90.5436 71.2552 89.5146 69.6118C89.1404 69.0251 88.7485 68.7313 88.3388 68.7313C88.2334 68.7313 88.0818 68.7465 87.8829 68.7759C86.4087 69.0697 83.548 69.2156 79.3008 69.2156C76.6449 69.2156 74.3633 69.1204 72.4568 68.9299C71.5558 68.8417 70.8714 68.7971 70.4036 68.7971C69.667 68.7971 69.0466 69.014 68.5434 69.4466C68.0402 69.8803 67.7891 70.4193 67.7891 71.0647C67.7891 71.5197 67.8797 71.8682 68.0609 72.1104C68.2421 72.3525 68.6252 72.6352 69.2101 72.9574C69.795 73.2806 70.1633 73.8531 70.316 74.6748C70.4676 75.4975 70.5444 77.295 70.5444 80.0682C70.5444 86.496 70.4391 90.6127 70.2283 92.4172C70.0993 93.5915 69.7074 94.3403 69.0526 94.6625C68.5021 94.9411 68.181 95.1245 68.0875 95.2127C67.7123 95.6089 67.5252 96.1296 67.5252 96.7761C67.5252 97.2898 67.6542 97.7589 67.9122 98.1844C68.1692 98.61 68.5021 98.9038 68.9117 99.0649C69.8246 99.4175 71.4859 99.5938 73.8955 99.5938C76.6449 99.5938 78.7809 99.3659 80.3013 98.9109C81.354 98.5887 81.8808 97.8622 81.8808 96.7315C81.8808 96.2918 81.7755 95.9027 81.5647 95.5653C81.354 95.2279 81.097 95.0293 80.7927 94.9705C80.1723 94.853 79.7892 94.7618 79.6435 94.6959C79.4968 94.6291 79.354 94.4862 79.2132 94.2663C78.7927 93.7091 78.5819 92.1609 78.5819 89.6218C78.5928 88.3745 78.5987 87.6916 78.5987 87.5741C78.576 86.9144 78.6578 86.4666 78.8449 86.2315C79.032 85.9975 79.3884 85.8789 79.9153 85.8789C80.6529 85.8789 81.2142 86.1069 81.6002 86.5618C81.8454 86.8405 82.0128 87.1343 82.1004 87.4423C82.1881 87.7504 82.2609 88.2793 82.319 89.027C82.4244 90.1871 82.8223 90.7657 83.5126 90.7657C84.1684 90.7657 84.6824 90.3776 85.0576 89.5995C85.677 88.3228 85.9872 86.3268 85.9872 83.6124C85.9872 79.3275 85.2733 77.1845 83.8464 77.1845C83.0153 77.1845 82.4658 77.984 82.1969 79.5838C82.1034 80.1421 81.934 80.5383 81.6878 80.7723C81.4416 81.0074 81.0615 81.1249 80.5475 81.1249C79.7754 81.1249 79.2486 81.0226 78.968 80.8169C78.6873 80.6112 78.5465 80.2374 78.5465 79.6943C78.5465 78.7844 78.6075 77.7712 78.7306 76.6556C78.8537 75.5411 78.9857 74.7923 79.1255 74.4104C79.3126 73.8977 79.8099 73.6403 80.6174 73.6403C82.6411 73.7143 84.0246 73.8683 84.7681 74.1023C85.5106 74.3374 86.1458 74.8369 86.6716 75.5999C87.5372 76.8319 88.0759 77.5513 88.2866 77.757C88.4973 77.9627 88.8065 78.065 89.2162 78.065C89.7667 78.065 90.2108 77.7935 90.5505 77.2504C90.8893 76.7073 91.0587 75.9808 91.0587 75.071Z" fill="white"/>
<g opacity="0.97">
<path opacity="0.97" d="M66.2289 120C100.045 120 127.458 94.2564 127.458 62.5C127.458 30.7436 100.045 5 66.2289 5C32.4131 5 5 30.7436 5 62.5C5 94.2564 32.4131 120 66.2289 120Z" stroke="white" stroke-width="10" stroke-miterlimit="3" stroke-linecap="square"/>
</g>
</svg>
