<svg width="119" height="100" viewBox="0 0 119 100" fill="none" xmlns="http://www.w3.org/2000/svg">
<path d="M55.174 15.2745C57.5187 25.0389 52.9544 34.5976 44.9789 36.624C37.0045 38.6515 28.639 32.3786 26.2953 22.6143C23.9507 12.8489 28.515 3.29023 36.4904 1.2638C44.4649 -0.763646 52.8303 5.50917 55.174 15.2745ZM4.67624 54.4495C10.44 62.1712 20.3928 64.2585 26.9059 59.1113C33.419 53.9642 34.0256 43.5321 28.2609 35.8104C22.4972 28.0887 12.5444 26.0015 6.03125 31.1486C-0.481857 36.2957 -1.08846 46.7278 4.67624 54.4495ZM63.9648 15.2745C61.6211 25.0389 66.1854 34.5976 74.1599 36.624C82.1344 38.6515 90.4998 32.3786 92.8445 22.6143C95.1882 12.8489 90.6239 3.29023 82.6494 1.2638C74.6749 -0.763646 66.3095 5.50917 63.9648 15.2745ZM114.464 54.4495C108.699 62.1712 98.746 64.2585 92.2339 59.1113C85.7208 53.9642 85.1142 43.5321 90.8779 35.8104C96.6426 28.0887 106.595 26.0015 113.109 31.1486C119.621 36.2957 120.228 46.7278 114.464 54.4495ZM43.6613 68.8828C43.4506 68.5889 43.228 68.442 42.9937 68.442C42.5732 68.442 42.2216 68.9345 41.941 69.9173C41.8947 70.049 41.7243 70.5708 41.4319 71.4797C40.9405 72.9772 40.6953 73.8719 40.6953 74.1657C40.6953 74.5325 40.9641 74.7159 41.5028 74.7159H44.9425C45.5737 74.7159 45.8898 74.5396 45.8898 74.188C45.8898 73.7037 45.4506 72.5152 44.5732 70.6215C44.1754 69.7562 43.8711 69.1766 43.6613 68.8828Z" fill="url(#paint0_linear)"/>
<path fill-rule="evenodd" clip-rule="evenodd" d="M92.0597 94.1726C82.2123 104.524 73.3496 97.6915 69.8045 95.8282C67.641 94.6904 64.4465 93.1635 59.957 93.279C55.4685 93.1635 52.274 94.6904 50.1096 95.8282C46.5645 97.6915 37.7018 104.524 27.8553 94.1726C18.0078 83.8206 25.098 69.9487 25.098 69.9487C25.098 69.9487 35.7057 50.2812 45.2794 41.0437C45.434 40.8947 45.5856 40.7448 45.7324 40.5877C46.5615 39.6951 50.7674 35.5814 57.7906 35.5814C58.5459 35.547 59.2647 35.5297 59.957 35.5267C60.6503 35.5297 61.3691 35.547 62.1235 35.5814C69.1476 35.5814 73.3535 39.6951 74.1827 40.5877C74.3294 40.7448 74.481 40.8947 74.6356 41.0437C84.2093 50.2812 94.817 69.9487 94.817 69.9487C94.817 69.9487 101.907 83.8206 92.0597 94.1726ZM60.0515 84.5998C60.0515 83.6899 59.6311 83.1539 58.7881 82.9928C58.3558 82.9047 58.0338 82.7324 57.8231 82.4751C57.6123 82.2187 57.3494 81.6797 57.0333 80.858L53.7167 71.9427C50.8619 64.297 48.6856 59.6818 47.1888 58.0961C46.1115 56.937 44.983 56.3574 43.8013 56.3574C42.5497 56.3574 41.5196 56.8711 40.7131 57.8985C40.3271 58.3676 40.078 58.8489 39.9667 59.3403C39.8554 59.8317 39.7943 60.7082 39.7825 61.9706C39.7707 63.1591 39.6102 64.374 39.3 65.6141C38.9898 66.8543 38.3783 68.7217 37.4664 71.2162L34.9917 78.0179C34.266 80.014 33.7076 81.3159 33.3157 81.9249C32.9238 82.5338 32.3477 83.007 31.5875 83.3444C31.1187 83.5511 30.7948 83.7781 30.6136 84.0273C30.4314 84.2766 30.3418 84.6292 30.3418 85.0841C30.3418 86.1257 30.7504 86.8005 31.5697 87.1095C32.459 87.4317 33.8514 87.5938 35.7461 87.5938C39.0804 87.5938 40.7476 86.7204 40.7476 84.9737C40.7476 84.1813 40.3911 83.6534 39.6772 83.389C39.1277 83.1691 38.8027 83.0111 38.7032 82.9158C38.6038 82.8206 38.5546 82.6108 38.5546 82.2886C38.5546 81.936 38.6245 81.5692 38.7643 81.1873C38.9051 80.8063 39.0686 80.5418 39.2557 80.3949C39.56 80.1609 40.4906 80.0434 42.0465 80.0434C43.8948 80.0434 45.3286 80.1315 46.3459 80.3068C47.2932 80.4831 47.7678 81.0626 47.7678 82.0465C47.7678 82.6037 47.4921 82.9999 46.9426 83.235C46.4512 83.4407 46.1144 83.6636 45.9333 83.9067C45.7521 84.1479 45.6615 84.4893 45.6615 84.9301C45.6615 85.5026 45.8338 85.9899 46.1794 86.3932C46.5241 86.7974 46.9889 87.0649 47.5748 87.1967C48.8491 87.4753 50.8087 87.6151 53.4538 87.6151C55.7935 87.6151 57.4774 87.38 58.5075 86.9109C59.5365 86.4418 60.0515 85.6707 60.0515 84.5998ZM84.0587 63.071C84.0587 61.076 83.5436 59.2552 82.5146 57.6118C82.1404 57.0251 81.7485 56.7313 81.3388 56.7313C81.2334 56.7313 81.0818 56.7465 80.8829 56.7759C79.4087 57.0697 76.548 57.2156 72.3008 57.2156C69.6449 57.2156 67.3633 57.1204 65.4568 56.9299C64.5558 56.8417 63.8714 56.7971 63.4036 56.7971C62.667 56.7971 62.0466 57.014 61.5434 57.4466C61.0402 57.8803 60.7891 58.4193 60.7891 59.0647C60.7891 59.5197 60.8797 59.8682 61.0609 60.1104C61.2421 60.3525 61.6252 60.6352 62.2101 60.9574C62.795 61.2806 63.1633 61.8531 63.316 62.6748C63.4676 63.4975 63.5444 65.295 63.5444 68.0682C63.5444 74.496 63.4391 78.6127 63.2283 80.4172C63.0993 81.5915 62.7074 82.3403 62.0526 82.6625C61.5021 82.9411 61.181 83.1245 61.0875 83.2127C60.7123 83.6089 60.5252 84.1296 60.5252 84.7761C60.5252 85.2898 60.6542 85.7589 60.9122 86.1844C61.1692 86.61 61.5021 86.9038 61.9117 87.0649C62.8246 87.4175 64.4859 87.5938 66.8955 87.5938C69.6449 87.5938 71.7809 87.3659 73.3013 86.9109C74.354 86.5887 74.8808 85.8622 74.8808 84.7315C74.8808 84.2918 74.7755 83.9027 74.5647 83.5653C74.354 83.2279 74.097 83.0293 73.7927 82.9705C73.1723 82.853 72.7892 82.7618 72.6435 82.6959C72.4968 82.6291 72.354 82.4862 72.2132 82.2663C71.7927 81.7091 71.5819 80.1609 71.5819 77.6218C71.5928 76.3745 71.5987 75.6916 71.5987 75.5741C71.576 74.9144 71.6578 74.4666 71.8449 74.2315C72.032 73.9975 72.3884 73.8789 72.9153 73.8789C73.6529 73.8789 74.2142 74.1069 74.6002 74.5618C74.8454 74.8405 75.0128 75.1343 75.1004 75.4423C75.1881 75.7504 75.2609 76.2793 75.319 77.027C75.4244 78.1871 75.8223 78.7657 76.5126 78.7657C77.1684 78.7657 77.6824 78.3776 78.0576 77.5995C78.677 76.3228 78.9872 74.3268 78.9872 71.6124C78.9872 67.3275 78.2733 65.1845 76.8464 65.1845C76.0153 65.1845 75.4658 65.984 75.1969 67.5838C75.1034 68.1421 74.934 68.5383 74.6878 68.7723C74.4416 69.0074 74.0615 69.1249 73.5475 69.1249C72.7754 69.1249 72.2486 69.0226 71.968 68.8169C71.6873 68.6112 71.5465 68.2374 71.5465 67.6943C71.5465 66.7844 71.6075 65.7712 71.7306 64.6556C71.8537 63.5411 71.9857 62.7923 72.1255 62.4104C72.3126 61.8977 72.8099 61.6403 73.6174 61.6403C75.6411 61.7143 77.0246 61.8683 77.7681 62.1023C78.5106 62.3374 79.1458 62.8369 79.6716 63.5999C80.5372 64.8319 81.0759 65.5513 81.2866 65.757C81.4973 65.9627 81.8065 66.065 82.2162 66.065C82.7667 66.065 83.2108 65.7935 83.5505 65.2504C83.8893 64.7073 84.0587 63.9808 84.0587 63.071Z" fill="url(#paint1_linear)"/>
<defs>
<linearGradient id="paint0_linear" x1="118.419" y1="37.4479" x2="0.720215" y2="37.4479" gradientUnits="userSpaceOnUse">
<stop stop-color="#3BB2B8"/>
<stop offset="1" stop-color="#42E695"/>
</linearGradient>
<linearGradient id="paint1_linear" x1="97.2865" y1="67.3403" x2="22.6285" y2="67.3403" gradientUnits="userSpaceOnUse">
<stop stop-color="#3BB2B8"/>
<stop offset="1" stop-color="#42E695"/>
</linearGradient>
</defs>
</svg>
